<?xml version="1.0" encoding="utf-8" standalone="no"?>
<!DOCTYPE svg PUBLIC "-//W3C//DTD SVG 1.1//EN"
  "http://www.w3.org/Graphics/SVG/1.1/DTD/svg11.dtd">
<svg xmlns:xlink="http://www.w3.org/1999/xlink" width="216.457825pt" height="240.42625pt" viewBox="0 0 216.457825 240.42625" xmlns="http://www.w3.org/2000/svg" version="1.1">
 <metadata>
  <rdf:RDF xmlns:dc="http://purl.org/dc/elements/1.1/" xmlns:cc="http://creativecommons.org/ns#" xmlns:rdf="http://www.w3.org/1999/02/22-rdf-syntax-ns#">
   <cc:Work>
    <dc:type rdf:resource="http://purl.org/dc/dcmitype/StillImage"/>
    <dc:date>2025-01-29T10:39:17.635804</dc:date>
    <dc:format>image/svg+xml</dc:format>
    <dc:creator>
     <cc:Agent>
      <dc:title>Matplotlib v3.8.3, https://matplotlib.org/</dc:title>
     </cc:Agent>
    </dc:creator>
   </cc:Work>
  </rdf:RDF>
 </metadata>
 <defs>
  <style type="text/css">*{stroke-linejoin: round; stroke-linecap: butt}</style>
 </defs>
 <g id="figure_1">
  <g id="patch_1">
   <path d="M 0 240.42625 
L 216.457825 240.42625 
L 216.457825 0 
L 0 0 
z
" style="fill: #ffffff"/>
  </g>
  <g id="axes_1">
   <g id="patch_2">
    <path d="M 44.773125 105.64267 
L 207.092216 105.64267 
L 207.092216 22.318125 
L 44.773125 22.318125 
z
" style="fill: #ffffff"/>
   </g>
   <g id="PolyCollection_1">
    <defs>
     <path id="m31376fe542" d="M 52.151265 -163.820921 
L 52.151265 -163.820921 
L 52.88908 -159.158117 
L 53.626894 -155.96224 
L 54.364708 -155.032526 
L 55.102522 -156.279077 
L 55.840336 -159.621212 
L 56.57815 -164.366592 
L 57.315964 -167.784523 
L 58.053778 -171.20474 
L 58.791592 -173.77664 
L 59.529406 -175.275476 
L 60.26722 -176.194312 
L 61.005034 -176.877023 
L 61.742848 -177.683074 
L 62.480662 -178.355495 
L 63.218476 -179.221072 
L 63.95629 -180.161304 
L 64.694104 -181.5431 
L 65.431918 -182.994868 
L 66.169732 -184.864083 
L 66.907546 -186.888168 
L 67.645361 -189.261624 
L 68.383175 -191.931903 
L 69.120989 -194.377075 
L 69.858803 -196.709941 
L 70.596617 -198.727605 
L 71.334431 -200.518055 
L 72.072245 -202.104066 
L 72.810059 -203.675578 
L 73.547873 -205.609594 
L 74.285687 -207.484177 
L 75.023501 -209.124485 
L 75.761315 -210.400899 
L 76.499129 -211.462931 
L 77.236943 -212.313896 
L 77.974757 -212.974344 
L 78.712571 -213.469586 
L 79.450385 -213.771078 
L 80.188199 -213.970952 
L 80.926013 -214.110634 
L 81.663827 -214.194035 
L 82.401642 -214.246356 
L 83.139456 -214.275872 
L 83.87727 -214.294195 
L 84.615084 -214.304523 
L 85.352898 -214.310517 
L 86.090712 -214.314113 
L 86.828526 -214.316334 
L 87.56634 -214.317722 
L 88.304154 -214.318589 
L 89.041968 -214.319139 
L 89.779782 -214.319566 
L 90.517596 -214.319879 
L 91.25541 -214.320088 
L 91.993224 -214.32025 
L 92.731038 -214.320362 
L 93.468852 -214.320441 
L 94.206666 -214.320496 
L 94.94448 -214.320536 
L 95.682294 -214.320564 
L 96.420108 -214.320583 
L 97.157923 -214.320597 
L 97.895737 -214.320608 
L 98.633551 -214.320617 
L 99.371365 -214.320624 
L 100.109179 -214.320629 
L 100.846993 -214.320633 
L 101.584807 -214.320636 
L 102.322621 -214.320639 
L 103.060435 -214.320641 
L 103.798249 -214.320642 
L 104.536063 -214.320643 
L 105.273877 -214.320644 
L 106.011691 -214.320644 
L 106.749505 -214.320645 
L 107.487319 -214.320645 
L 108.225133 -214.320645 
L 108.962947 -214.320645 
L 109.700761 -214.320645 
L 110.438575 -214.320645 
L 111.176389 -214.320646 
L 111.914204 -214.320646 
L 112.652018 -214.320646 
L 113.389832 -214.320646 
L 114.127646 -214.320646 
L 114.86546 -214.320646 
L 115.603274 -214.320646 
L 116.341088 -214.320646 
L 117.078902 -214.320646 
L 117.816716 -214.320646 
L 118.55453 -214.320646 
L 119.292344 -214.320646 
L 120.030158 -214.320646 
L 120.767972 -214.320646 
L 121.505786 -214.320646 
L 122.2436 -214.320646 
L 122.981414 -214.320646 
L 123.719228 -214.320646 
L 124.457042 -214.320646 
L 125.194856 -214.320646 
L 125.93267 -214.320646 
L 126.670485 -214.320646 
L 127.408299 -214.320646 
L 128.146113 -214.320646 
L 128.883927 -214.320646 
L 129.621741 -214.320646 
L 130.359555 -214.320646 
L 131.097369 -214.320646 
L 131.835183 -214.320646 
L 132.572997 -214.320646 
L 133.310811 -214.320646 
L 134.048625 -214.320646 
L 134.786439 -214.320646 
L 135.524253 -214.320646 
L 136.262067 -214.320646 
L 136.999881 -214.320646 
L 137.737695 -214.320646 
L 138.475509 -214.320646 
L 139.213323 -214.320646 
L 139.951137 -214.320646 
L 140.688951 -214.320646 
L 141.426765 -214.320646 
L 142.16458 -214.320646 
L 142.902394 -214.320646 
L 143.640208 -214.320646 
L 144.378022 -214.320646 
L 145.115836 -214.320646 
L 145.85365 -214.320646 
L 146.591464 -214.320646 
L 147.329278 -214.320646 
L 148.067092 -214.320646 
L 148.804906 -214.320646 
L 149.54272 -214.320646 
L 150.280534 -214.320646 
L 151.018348 -214.320646 
L 151.756162 -214.320646 
L 152.493976 -214.320646 
L 153.23179 -214.320646 
L 153.969604 -214.320646 
L 154.707418 -214.320646 
L 155.445232 -214.320646 
L 156.183046 -214.320646 
L 156.920861 -214.320646 
L 157.658675 -214.320646 
L 158.396489 -214.320646 
L 159.134303 -214.320646 
L 159.872117 -214.320646 
L 160.609931 -214.320646 
L 161.347745 -214.320646 
L 162.085559 -214.320646 
L 162.823373 -214.320646 
L 163.561187 -214.320646 
L 164.299001 -214.320646 
L 165.036815 -214.320646 
L 165.774629 -214.320646 
L 166.512443 -214.320646 
L 167.250257 -214.320646 
L 167.988071 -214.320646 
L 168.725885 -214.320646 
L 169.463699 -214.320646 
L 170.201513 -214.320646 
L 170.939327 -214.320646 
L 171.677142 -214.320646 
L 172.414956 -214.320646 
L 173.15277 -214.320646 
L 173.890584 -214.320646 
L 174.628398 -214.320646 
L 175.366212 -214.320646 
L 176.104026 -214.320646 
L 176.84184 -214.320646 
L 177.579654 -214.320646 
L 178.317468 -214.320646 
L 179.055282 -214.320646 
L 179.793096 -214.320646 
L 180.53091 -214.320646 
L 181.268724 -214.320646 
L 182.006538 -214.320646 
L 182.744352 -214.320646 
L 183.482166 -214.320646 
L 184.21998 -214.320646 
L 184.957794 -214.320646 
L 185.695608 -214.320646 
L 186.433423 -214.320646 
L 187.171237 -214.320646 
L 187.909051 -214.320646 
L 188.646865 -214.320646 
L 189.384679 -214.320646 
L 190.122493 -214.320646 
L 190.860307 -214.320646 
L 191.598121 -214.320646 
L 192.335935 -214.320646 
L 193.073749 -214.320646 
L 193.811563 -214.320646 
L 194.549377 -214.320646 
L 195.287191 -214.320646 
L 196.025005 -214.320646 
L 196.762819 -214.320646 
L 197.500633 -214.320646 
L 198.238447 -214.320646 
L 198.976261 -214.320646 
L 199.714075 -214.320646 
L 199.714075 -214.320646 
L 199.714075 -214.320646 
L 198.976261 -214.320646 
L 198.238447 -214.320646 
L 197.500633 -214.320646 
L 196.762819 -214.320646 
L 196.025005 -214.320646 
L 195.287191 -214.320646 
L 194.549377 -214.320646 
L 193.811563 -214.320646 
L 193.073749 -214.320646 
L 192.335935 -214.320646 
L 191.598121 -214.320646 
L 190.860307 -214.320646 
L 190.122493 -214.320646 
L 189.384679 -214.320646 
L 188.646865 -214.320646 
L 187.909051 -214.320646 
L 187.171237 -214.320646 
L 186.433423 -214.320646 
L 185.695608 -214.320646 
L 184.957794 -214.320646 
L 184.21998 -214.320646 
L 183.482166 -214.320646 
L 182.744352 -214.320646 
L 182.006538 -214.320646 
L 181.268724 -214.320646 
L 180.53091 -214.320646 
L 179.793096 -214.320646 
L 179.055282 -214.320646 
L 178.317468 -214.320646 
L 177.579654 -214.320646 
L 176.84184 -214.320646 
L 176.104026 -214.320646 
L 175.366212 -214.320646 
L 174.628398 -214.320646 
L 173.890584 -214.320646 
L 173.15277 -214.320646 
L 172.414956 -214.320646 
L 171.677142 -214.320646 
L 170.939327 -214.320646 
L 170.201513 -214.320646 
L 169.463699 -214.320646 
L 168.725885 -214.320646 
L 167.988071 -214.320646 
L 167.250257 -214.320646 
L 166.512443 -214.320646 
L 165.774629 -214.320646 
L 165.036815 -214.320646 
L 164.299001 -214.320646 
L 163.561187 -214.320646 
L 162.823373 -214.320646 
L 162.085559 -214.320646 
L 161.347745 -214.320646 
L 160.609931 -214.320646 
L 159.872117 -214.320646 
L 159.134303 -214.320646 
L 158.396489 -214.320646 
L 157.658675 -214.320646 
L 156.920861 -214.320646 
L 156.183046 -214.320646 
L 155.445232 -214.320646 
L 154.707418 -214.320646 
L 153.969604 -214.320646 
L 153.23179 -214.320646 
L 152.493976 -214.320646 
L 151.756162 -214.320646 
L 151.018348 -214.320646 
L 150.280534 -214.320646 
L 149.54272 -214.320646 
L 148.804906 -214.320646 
L 148.067092 -214.320646 
L 147.329278 -214.320646 
L 146.591464 -214.320646 
L 145.85365 -214.320646 
L 145.115836 -214.320646 
L 144.378022 -214.320646 
L 143.640208 -214.320646 
L 142.902394 -214.320646 
L 142.16458 -214.320646 
L 141.426765 -214.320646 
L 140.688951 -214.320646 
L 139.951137 -214.320646 
L 139.213323 -214.320646 
L 138.475509 -214.320646 
L 137.737695 -214.320646 
L 136.999881 -214.320646 
L 136.262067 -214.320646 
L 135.524253 -214.320646 
L 134.786439 -214.320646 
L 134.048625 -214.320646 
L 133.310811 -214.320646 
L 132.572997 -214.320646 
L 131.835183 -214.320646 
L 131.097369 -214.320646 
L 130.359555 -214.320646 
L 129.621741 -214.320646 
L 128.883927 -214.320646 
L 128.146113 -214.320646 
L 127.408299 -214.320646 
L 126.670485 -214.320646 
L 125.93267 -214.320646 
L 125.194856 -214.320646 
L 124.457042 -214.320646 
L 123.719228 -214.320646 
L 122.981414 -214.320646 
L 122.2436 -214.320646 
L 121.505786 -214.320646 
L 120.767972 -214.320646 
L 120.030158 -214.320646 
L 119.292344 -214.320646 
L 118.55453 -214.320646 
L 117.816716 -214.320646 
L 117.078902 -214.320646 
L 116.341088 -214.320646 
L 115.603274 -214.320646 
L 114.86546 -214.320646 
L 114.127646 -214.320646 
L 113.389832 -214.320646 
L 112.652018 -214.320646 
L 111.914204 -214.320646 
L 111.176389 -214.320646 
L 110.438575 -214.320646 
L 109.700761 -214.320646 
L 108.962947 -214.320646 
L 108.225133 -214.320646 
L 107.487319 -214.320646 
L 106.749505 -214.320646 
L 106.011691 -214.320646 
L 105.273877 -214.320647 
L 104.536063 -214.320647 
L 103.798249 -214.320647 
L 103.060435 -214.320648 
L 102.322621 -214.320649 
L 101.584807 -214.32065 
L 100.846993 -214.320652 
L 100.109179 -214.320654 
L 99.371365 -214.320656 
L 98.633551 -214.320659 
L 97.895737 -214.320664 
L 97.157923 -214.320669 
L 96.420108 -214.320675 
L 95.682294 -214.320684 
L 94.94448 -214.320696 
L 94.206666 -214.320714 
L 93.468852 -214.320738 
L 92.731038 -214.320771 
L 91.993224 -214.320817 
L 91.25541 -214.320882 
L 90.517596 -214.320961 
L 89.779782 -214.321076 
L 89.041968 -214.321222 
L 88.304154 -214.32139 
L 87.56634 -214.321653 
L 86.828526 -214.322076 
L 86.090712 -214.322751 
L 85.352898 -214.323852 
L 84.615084 -214.325725 
L 83.87727 -214.329071 
L 83.139456 -214.335321 
L 82.401642 -214.345637 
L 81.663827 -214.364342 
L 80.926013 -214.395048 
L 80.188199 -214.446573 
L 79.450385 -214.520372 
L 78.712571 -214.631321 
L 77.974757 -214.821691 
L 77.236943 -215.070727 
L 76.499129 -215.396232 
L 75.761315 -215.785011 
L 75.023501 -216.215433 
L 74.285687 -216.783234 
L 73.547873 -217.418111 
L 72.810059 -217.993037 
L 72.072245 -218.3051 
L 71.334431 -218.433989 
L 70.596617 -218.514261 
L 69.858803 -218.656705 
L 69.120989 -218.856605 
L 68.383175 -218.987149 
L 67.645361 -219.218737 
L 66.907546 -219.411119 
L 66.169732 -219.47321 
L 65.431918 -219.499755 
L 64.694104 -219.367487 
L 63.95629 -219.157105 
L 63.218476 -218.744113 
L 62.480662 -218.208801 
L 61.742848 -217.636821 
L 61.005034 -216.629962 
L 60.26722 -215.066468 
L 59.529406 -212.791047 
L 58.791592 -209.999651 
L 58.053778 -206.662607 
L 57.315964 -202.60889 
L 56.57815 -197.594504 
L 55.840336 -191.621341 
L 55.102522 -184.927046 
L 54.364708 -179.227579 
L 53.626894 -175.415678 
L 52.88908 -173.186305 
L 52.151265 -163.820921 
z
" style="stroke: #7f00db; stroke-opacity: 0.2"/>
    </defs>
    <g clip-path="url(#p41620e6854)">
     <use xlink:href="#m31376fe542" x="0" y="240.42625" style="fill: #7f00db; fill-opacity: 0.2; stroke: #7f00db; stroke-opacity: 0.2"/>
    </g>
   </g>
   <g id="PolyCollection_2">
    <defs>
     <path id="m618204ddb0" d="M 52.151265 -163.820921 
L 52.151265 -163.820921 
L 52.88908 -151.07245 
L 53.626894 -145.98399 
L 54.364708 -144.450647 
L 55.102522 -143.534814 
L 55.840336 -142.508084 
L 56.57815 -141.665549 
L 57.315964 -140.770706 
L 58.053778 -140.340304 
L 58.791592 -139.827276 
L 59.529406 -138.989714 
L 60.26722 -138.020727 
L 61.005034 -137.243877 
L 61.742848 -136.691388 
L 62.480662 -136.200589 
L 63.218476 -135.795545 
L 63.95629 -135.490657 
L 64.694104 -135.374872 
L 65.431918 -135.45304 
L 66.169732 -135.398815 
L 66.907546 -135.355719 
L 67.645361 -135.399226 
L 68.383175 -135.392144 
L 69.120989 -135.295252 
L 69.858803 -135.276801 
L 70.596617 -135.227494 
L 71.334431 -135.141699 
L 72.072245 -135.130974 
L 72.810059 -135.336205 
L 73.547873 -135.792119 
L 74.285687 -136.340051 
L 75.023501 -136.846718 
L 75.761315 -137.232467 
L 76.499129 -137.588934 
L 77.236943 -137.890186 
L 77.974757 -138.121522 
L 78.712571 -138.295785 
L 79.450385 -138.395105 
L 80.188199 -138.461692 
L 80.926013 -138.507281 
L 81.663827 -138.533768 
L 82.401642 -138.549686 
L 83.139456 -138.558401 
L 83.87727 -138.563594 
L 84.615084 -138.566422 
L 85.352898 -138.568038 
L 86.090712 -138.569018 
L 86.828526 -138.56964 
L 87.56634 -138.570042 
L 88.304154 -138.570297 
L 89.041968 -138.570465 
L 89.779782 -138.570614 
L 90.517596 -138.570732 
L 91.25541 -138.570815 
L 91.993224 -138.570881 
L 92.731038 -138.570929 
L 93.468852 -138.570964 
L 94.206666 -138.570989 
L 94.94448 -138.571007 
L 95.682294 -138.57102 
L 96.420108 -138.571029 
L 97.157923 -138.571035 
L 97.895737 -138.57104 
L 98.633551 -138.571045 
L 99.371365 -138.571048 
L 100.109179 -138.571051 
L 100.846993 -138.571053 
L 101.584807 -138.571054 
L 102.322621 -138.571056 
L 103.060435 -138.571056 
L 103.798249 -138.571057 
L 104.536063 -138.571058 
L 105.273877 -138.571058 
L 106.011691 -138.571058 
L 106.749505 -138.571058 
L 107.487319 -138.571059 
L 108.225133 -138.571059 
L 108.962947 -138.571059 
L 109.700761 -138.571059 
L 110.438575 -138.571059 
L 111.176389 -138.571059 
L 111.914204 -138.571059 
L 112.652018 -138.571059 
L 113.389832 -138.571059 
L 114.127646 -138.571059 
L 114.86546 -138.571059 
L 115.603274 -138.571059 
L 116.341088 -138.571059 
L 117.078902 -138.571059 
L 117.816716 -138.571059 
L 118.55453 -138.571059 
L 119.292344 -138.571059 
L 120.030158 -138.571059 
L 120.767972 -138.571059 
L 121.505786 -138.571059 
L 122.2436 -138.571059 
L 122.981414 -138.571059 
L 123.719228 -138.571059 
L 124.457042 -138.571059 
L 125.194856 -138.571059 
L 125.93267 -138.571059 
L 126.670485 -138.571059 
L 127.408299 -138.571059 
L 128.146113 -138.571059 
L 128.883927 -138.571059 
L 129.621741 -138.571059 
L 130.359555 -138.571059 
L 131.097369 -138.571059 
L 131.835183 -138.571059 
L 132.572997 -138.571059 
L 133.310811 -138.571059 
L 134.048625 -138.571059 
L 134.786439 -138.571059 
L 135.524253 -138.571059 
L 136.262067 -138.571059 
L 136.999881 -138.571059 
L 137.737695 -138.571059 
L 138.475509 -138.571059 
L 139.213323 -138.571059 
L 139.951137 -138.571059 
L 140.688951 -138.571059 
L 141.426765 -138.571059 
L 142.16458 -138.571059 
L 142.902394 -138.571059 
L 143.640208 -138.571059 
L 144.378022 -138.571059 
L 145.115836 -138.571059 
L 145.85365 -138.571059 
L 146.591464 -138.571059 
L 147.329278 -138.571059 
L 148.067092 -138.571059 
L 148.804906 -138.571059 
L 149.54272 -138.571059 
L 150.280534 -138.571059 
L 151.018348 -138.571059 
L 151.756162 -138.571059 
L 152.493976 -138.571059 
L 153.23179 -138.571059 
L 153.969604 -138.571059 
L 154.707418 -138.571059 
L 155.445232 -138.571059 
L 156.183046 -138.571059 
L 156.920861 -138.571059 
L 157.658675 -138.571059 
L 158.396489 -138.571059 
L 159.134303 -138.571059 
L 159.872117 -138.571059 
L 160.609931 -138.571059 
L 161.347745 -138.571059 
L 162.085559 -138.571059 
L 162.823373 -138.571059 
L 163.561187 -138.571059 
L 164.299001 -138.571059 
L 165.036815 -138.571059 
L 165.774629 -138.571059 
L 166.512443 -138.571059 
L 167.250257 -138.571059 
L 167.988071 -138.571059 
L 168.725885 -138.571059 
L 169.463699 -138.571059 
L 170.201513 -138.571059 
L 170.939327 -138.571059 
L 171.677142 -138.571059 
L 172.414956 -138.571059 
L 173.15277 -138.571059 
L 173.890584 -138.571059 
L 174.628398 -138.571059 
L 175.366212 -138.571059 
L 176.104026 -138.571059 
L 176.84184 -138.571059 
L 177.579654 -138.571059 
L 178.317468 -138.571059 
L 179.055282 -138.571059 
L 179.793096 -138.571059 
L 180.53091 -138.571059 
L 181.268724 -138.571059 
L 182.006538 -138.571059 
L 182.744352 -138.571059 
L 183.482166 -138.571059 
L 184.21998 -138.571059 
L 184.957794 -138.571059 
L 185.695608 -138.571059 
L 186.433423 -138.571059 
L 187.171237 -138.571059 
L 187.909051 -138.571059 
L 188.646865 -138.571059 
L 189.384679 -138.571059 
L 190.122493 -138.571059 
L 190.860307 -138.571059 
L 191.598121 -138.571059 
L 192.335935 -138.571059 
L 193.073749 -138.571059 
L 193.811563 -138.571059 
L 194.549377 -138.571059 
L 195.287191 -138.571059 
L 196.025005 -138.571059 
L 196.762819 -138.571059 
L 197.500633 -138.571059 
L 198.238447 -138.571059 
L 198.976261 -138.571059 
L 199.714075 -138.571059 
L 199.714075 -138.571059 
L 199.714075 -138.571059 
L 198.976261 -138.571059 
L 198.238447 -138.571059 
L 197.500633 -138.571059 
L 196.762819 -138.571059 
L 196.025005 -138.571059 
L 195.287191 -138.571059 
L 194.549377 -138.571059 
L 193.811563 -138.571059 
L 193.073749 -138.571059 
L 192.335935 -138.571059 
L 191.598121 -138.571059 
L 190.860307 -138.571059 
L 190.122493 -138.571059 
L 189.384679 -138.571059 
L 188.646865 -138.571059 
L 187.909051 -138.571059 
L 187.171237 -138.571059 
L 186.433423 -138.571059 
L 185.695608 -138.571059 
L 184.957794 -138.571059 
L 184.21998 -138.571059 
L 183.482166 -138.571059 
L 182.744352 -138.571059 
L 182.006538 -138.571059 
L 181.268724 -138.571059 
L 180.53091 -138.571059 
L 179.793096 -138.571059 
L 179.055282 -138.571059 
L 178.317468 -138.571059 
L 177.579654 -138.571059 
L 176.84184 -138.571059 
L 176.104026 -138.571059 
L 175.366212 -138.571059 
L 174.628398 -138.571059 
L 173.890584 -138.571059 
L 173.15277 -138.571059 
L 172.414956 -138.571059 
L 171.677142 -138.571059 
L 170.939327 -138.571059 
L 170.201513 -138.571059 
L 169.463699 -138.571059 
L 168.725885 -138.571059 
L 167.988071 -138.571059 
L 167.250257 -138.571059 
L 166.512443 -138.571059 
L 165.774629 -138.571059 
L 165.036815 -138.571059 
L 164.299001 -138.571059 
L 163.561187 -138.571059 
L 162.823373 -138.571059 
L 162.085559 -138.571059 
L 161.347745 -138.571059 
L 160.609931 -138.571059 
L 159.872117 -138.571059 
L 159.134303 -138.571059 
L 158.396489 -138.571059 
L 157.658675 -138.571059 
L 156.920861 -138.571059 
L 156.183046 -138.571059 
L 155.445232 -138.571059 
L 154.707418 -138.571059 
L 153.969604 -138.571059 
L 153.23179 -138.571059 
L 152.493976 -138.571059 
L 151.756162 -138.571059 
L 151.018348 -138.571059 
L 150.280534 -138.571059 
L 149.54272 -138.571059 
L 148.804906 -138.571059 
L 148.067092 -138.571059 
L 147.329278 -138.571059 
L 146.591464 -138.571059 
L 145.85365 -138.571059 
L 145.115836 -138.571059 
L 144.378022 -138.571059 
L 143.640208 -138.571059 
L 142.902394 -138.571059 
L 142.16458 -138.571059 
L 141.426765 -138.571059 
L 140.688951 -138.571059 
L 139.951137 -138.571059 
L 139.213323 -138.571059 
L 138.475509 -138.571059 
L 137.737695 -138.571059 
L 136.999881 -138.571059 
L 136.262067 -138.571059 
L 135.524253 -138.571059 
L 134.786439 -138.571059 
L 134.048625 -138.571059 
L 133.310811 -138.571059 
L 132.572997 -138.571059 
L 131.835183 -138.571059 
L 131.097369 -138.571059 
L 130.359555 -138.571059 
L 129.621741 -138.571059 
L 128.883927 -138.571059 
L 128.146113 -138.571059 
L 127.408299 -138.571059 
L 126.670485 -138.571059 
L 125.93267 -138.571059 
L 125.194856 -138.571059 
L 124.457042 -138.571059 
L 123.719228 -138.571059 
L 122.981414 -138.571059 
L 122.2436 -138.571059 
L 121.505786 -138.571059 
L 120.767972 -138.571059 
L 120.030158 -138.571059 
L 119.292344 -138.571059 
L 118.55453 -138.571059 
L 117.816716 -138.571059 
L 117.078902 -138.571059 
L 116.341088 -138.571059 
L 115.603274 -138.571059 
L 114.86546 -138.571059 
L 114.127646 -138.571059 
L 113.389832 -138.571059 
L 112.652018 -138.571059 
L 111.914204 -138.571059 
L 111.176389 -138.571059 
L 110.438575 -138.571059 
L 109.700761 -138.571059 
L 108.962947 -138.571059 
L 108.225133 -138.571059 
L 107.487319 -138.57106 
L 106.749505 -138.57106 
L 106.011691 -138.57106 
L 105.273877 -138.571061 
L 104.536063 -138.571061 
L 103.798249 -138.571062 
L 103.060435 -138.571064 
L 102.322621 -138.571066 
L 101.584807 -138.571068 
L 100.846993 -138.571071 
L 100.109179 -138.571076 
L 99.371365 -138.57108 
L 98.633551 -138.571087 
L 97.895737 -138.571097 
L 97.157923 -138.571107 
L 96.420108 -138.571121 
L 95.682294 -138.571139 
L 94.94448 -138.571167 
L 94.206666 -138.571207 
L 93.468852 -138.571261 
L 92.731038 -138.571339 
L 91.993224 -138.571448 
L 91.25541 -138.571606 
L 90.517596 -138.57181 
L 89.779782 -138.572112 
L 89.041968 -138.57252 
L 88.304154 -138.573031 
L 87.56634 -138.573831 
L 86.828526 -138.575101 
L 86.090712 -138.57711 
L 85.352898 -138.580318 
L 84.615084 -138.585606 
L 83.87727 -138.59465 
L 83.139456 -138.61057 
L 82.401642 -138.636491 
L 81.663827 -138.682634 
L 80.926013 -138.756942 
L 80.188199 -138.883794 
L 79.450385 -139.068074 
L 78.712571 -139.34459 
L 77.974757 -139.806349 
L 77.236943 -140.429544 
L 76.499129 -141.229914 
L 75.761315 -142.223263 
L 75.023501 -143.402524 
L 74.285687 -144.910372 
L 73.547873 -146.596547 
L 72.810059 -148.268906 
L 72.072245 -149.585425 
L 71.334431 -150.809785 
L 70.596617 -152.118269 
L 69.858803 -153.497764 
L 69.120989 -154.996704 
L 68.383175 -156.279679 
L 67.645361 -157.430221 
L 66.907546 -158.088071 
L 66.169732 -158.192128 
L 65.431918 -158.084004 
L 64.694104 -157.875841 
L 63.95629 -157.791847 
L 63.218476 -157.6464 
L 62.480662 -157.354977 
L 61.742848 -157.097968 
L 61.005034 -157.220874 
L 60.26722 -157.528415 
L 59.529406 -158.391154 
L 58.791592 -160.184605 
L 58.053778 -163.809887 
L 57.315964 -168.104788 
L 56.57815 -171.432493 
L 55.840336 -176.664153 
L 55.102522 -180.1657 
L 54.364708 -181.674178 
L 53.626894 -181.273616 
L 52.88908 -176.557275 
L 52.151265 -163.820921 
z
" style="stroke: #ff9a00; stroke-opacity: 0.2"/>
    </defs>
    <g clip-path="url(#p41620e6854)">
     <use xlink:href="#m618204ddb0" x="0" y="240.42625" style="fill: #ff9a00; fill-opacity: 0.2; stroke: #ff9a00; stroke-opacity: 0.2"/>
    </g>
   </g>
   <g id="PolyCollection_3">
    <defs>
     <path id="m5020c703c5" d="M 52.151265 -163.820921 
L 52.151265 -163.820921 
L 52.88908 -151.710525 
L 53.626894 -148.865356 
L 54.364708 -147.115418 
L 55.102522 -144.350425 
L 55.840336 -141.509281 
L 56.57815 -138.79387 
L 57.315964 -136.360819 
L 58.053778 -133.975757 
L 58.791592 -132.216019 
L 59.529406 -130.677198 
L 60.26722 -129.437022 
L 61.005034 -128.766591 
L 61.742848 -128.628924 
L 62.480662 -128.784793 
L 63.218476 -128.994742 
L 63.95629 -129.310183 
L 64.694104 -129.98148 
L 65.431918 -131.024933 
L 66.169732 -132.298816 
L 66.907546 -133.655157 
L 67.645361 -134.885121 
L 68.383175 -135.921338 
L 69.120989 -136.661847 
L 69.858803 -137.145209 
L 70.596617 -137.500929 
L 71.334431 -137.767254 
L 72.072245 -137.961317 
L 72.810059 -138.092468 
L 73.547873 -138.224712 
L 74.285687 -138.319683 
L 75.023501 -138.38662 
L 75.761315 -138.436209 
L 76.499129 -138.470632 
L 77.236943 -138.495702 
L 77.974757 -138.514336 
L 78.712571 -138.531039 
L 79.450385 -138.543817 
L 80.188199 -138.551741 
L 80.926013 -138.558299 
L 81.663827 -138.562935 
L 82.401642 -138.566157 
L 83.139456 -138.568038 
L 83.87727 -138.569306 
L 84.615084 -138.570019 
L 85.352898 -138.570433 
L 86.090712 -138.570677 
L 86.828526 -138.570823 
L 87.56634 -138.570912 
L 88.304154 -138.570966 
L 89.041968 -138.571001 
L 89.779782 -138.571021 
L 90.517596 -138.571034 
L 91.25541 -138.571042 
L 91.993224 -138.571048 
L 92.731038 -138.571051 
L 93.468852 -138.571054 
L 94.206666 -138.571055 
L 94.94448 -138.571057 
L 95.682294 -138.571057 
L 96.420108 -138.571058 
L 97.157923 -138.571058 
L 97.895737 -138.571058 
L 98.633551 -138.571059 
L 99.371365 -138.571059 
L 100.109179 -138.571059 
L 100.846993 -138.571059 
L 101.584807 -138.571059 
L 102.322621 -138.571059 
L 103.060435 -138.571059 
L 103.798249 -138.571059 
L 104.536063 -138.571059 
L 105.273877 -138.571059 
L 106.011691 -138.571059 
L 106.749505 -138.571059 
L 107.487319 -138.571059 
L 108.225133 -138.571059 
L 108.962947 -138.571059 
L 109.700761 -138.571059 
L 110.438575 -138.571059 
L 111.176389 -138.571059 
L 111.914204 -138.571059 
L 112.652018 -138.571059 
L 113.389832 -138.571059 
L 114.127646 -138.571059 
L 114.86546 -138.571059 
L 115.603274 -138.571059 
L 116.341088 -138.571059 
L 117.078902 -138.571059 
L 117.816716 -138.571059 
L 118.55453 -138.571059 
L 119.292344 -138.571059 
L 120.030158 -138.571059 
L 120.767972 -138.571059 
L 121.505786 -138.571059 
L 122.2436 -138.571059 
L 122.981414 -138.571059 
L 123.719228 -138.571059 
L 124.457042 -138.571059 
L 125.194856 -138.571059 
L 125.93267 -138.571059 
L 126.670485 -138.571059 
L 127.408299 -138.571059 
L 128.146113 -138.571059 
L 128.883927 -138.571059 
L 129.621741 -138.571059 
L 130.359555 -138.571059 
L 131.097369 -138.571059 
L 131.835183 -138.571059 
L 132.572997 -138.571059 
L 133.310811 -138.571059 
L 134.048625 -138.571059 
L 134.786439 -138.571059 
L 135.524253 -138.571059 
L 136.262067 -138.571059 
L 136.999881 -138.571059 
L 137.737695 -138.571059 
L 138.475509 -138.571059 
L 139.213323 -138.571059 
L 139.951137 -138.571059 
L 140.688951 -138.571059 
L 141.426765 -138.571059 
L 142.16458 -138.571059 
L 142.902394 -138.571059 
L 143.640208 -138.571059 
L 144.378022 -138.571059 
L 145.115836 -138.571059 
L 145.85365 -138.571059 
L 146.591464 -138.571059 
L 147.329278 -138.571059 
L 148.067092 -138.571059 
L 148.804906 -138.571059 
L 149.54272 -138.571059 
L 150.280534 -138.571059 
L 151.018348 -138.571059 
L 151.756162 -138.571059 
L 152.493976 -138.571059 
L 153.23179 -138.571059 
L 153.969604 -138.571059 
L 154.707418 -138.571059 
L 155.445232 -138.571059 
L 156.183046 -138.571059 
L 156.920861 -138.571059 
L 157.658675 -138.571059 
L 158.396489 -138.571059 
L 159.134303 -138.571059 
L 159.872117 -138.571059 
L 160.609931 -138.571059 
L 161.347745 -138.571059 
L 162.085559 -138.571059 
L 162.823373 -138.571059 
L 163.561187 -138.571059 
L 164.299001 -138.571059 
L 165.036815 -138.571059 
L 165.774629 -138.571059 
L 166.512443 -138.571059 
L 167.250257 -138.571059 
L 167.988071 -138.571059 
L 168.725885 -138.571059 
L 169.463699 -138.571059 
L 170.201513 -138.571059 
L 170.939327 -138.571059 
L 171.677142 -138.571059 
L 172.414956 -138.571059 
L 173.15277 -138.571059 
L 173.890584 -138.571059 
L 174.628398 -138.571059 
L 175.366212 -138.571059 
L 176.104026 -138.571059 
L 176.84184 -138.571059 
L 177.579654 -138.571059 
L 178.317468 -138.571059 
L 179.055282 -138.571059 
L 179.793096 -138.571059 
L 180.53091 -138.571059 
L 181.268724 -138.571059 
L 182.006538 -138.571059 
L 182.744352 -138.571059 
L 183.482166 -138.571059 
L 184.21998 -138.571059 
L 184.957794 -138.571059 
L 185.695608 -138.571059 
L 186.433423 -138.571059 
L 187.171237 -138.571059 
L 187.909051 -138.571059 
L 188.646865 -138.571059 
L 189.384679 -138.571059 
L 190.122493 -138.571059 
L 190.860307 -138.571059 
L 191.598121 -138.571059 
L 192.335935 -138.571059 
L 193.073749 -138.571059 
L 193.811563 -138.571059 
L 194.549377 -138.571059 
L 195.287191 -138.571059 
L 196.025005 -138.571059 
L 196.762819 -138.571059 
L 197.500633 -138.571059 
L 198.238447 -138.571059 
L 198.976261 -138.571059 
L 199.714075 -138.571059 
L 199.714075 -138.571059 
L 199.714075 -138.571059 
L 198.976261 -138.571059 
L 198.238447 -138.571059 
L 197.500633 -138.571059 
L 196.762819 -138.571059 
L 196.025005 -138.571059 
L 195.287191 -138.571059 
L 194.549377 -138.571059 
L 193.811563 -138.571059 
L 193.073749 -138.571059 
L 192.335935 -138.571059 
L 191.598121 -138.571059 
L 190.860307 -138.571059 
L 190.122493 -138.571059 
L 189.384679 -138.571059 
L 188.646865 -138.571059 
L 187.909051 -138.571059 
L 187.171237 -138.571059 
L 186.433423 -138.571059 
L 185.695608 -138.571059 
L 184.957794 -138.571059 
L 184.21998 -138.571059 
L 183.482166 -138.571059 
L 182.744352 -138.571059 
L 182.006538 -138.571059 
L 181.268724 -138.571059 
L 180.53091 -138.571059 
L 179.793096 -138.571059 
L 179.055282 -138.571059 
L 178.317468 -138.571059 
L 177.579654 -138.571059 
L 176.84184 -138.571059 
L 176.104026 -138.571059 
L 175.366212 -138.571059 
L 174.628398 -138.571059 
L 173.890584 -138.571059 
L 173.15277 -138.571059 
L 172.414956 -138.571059 
L 171.677142 -138.571059 
L 170.939327 -138.571059 
L 170.201513 -138.571059 
L 169.463699 -138.571059 
L 168.725885 -138.571059 
L 167.988071 -138.571059 
L 167.250257 -138.571059 
L 166.512443 -138.571059 
L 165.774629 -138.571059 
L 165.036815 -138.571059 
L 164.299001 -138.571059 
L 163.561187 -138.571059 
L 162.823373 -138.571059 
L 162.085559 -138.571059 
L 161.347745 -138.571059 
L 160.609931 -138.571059 
L 159.872117 -138.571059 
L 159.134303 -138.571059 
L 158.396489 -138.571059 
L 157.658675 -138.571059 
L 156.920861 -138.571059 
L 156.183046 -138.571059 
L 155.445232 -138.571059 
L 154.707418 -138.571059 
L 153.969604 -138.571059 
L 153.23179 -138.571059 
L 152.493976 -138.571059 
L 151.756162 -138.571059 
L 151.018348 -138.571059 
L 150.280534 -138.571059 
L 149.54272 -138.571059 
L 148.804906 -138.571059 
L 148.067092 -138.571059 
L 147.329278 -138.571059 
L 146.591464 -138.571059 
L 145.85365 -138.571059 
L 145.115836 -138.571059 
L 144.378022 -138.571059 
L 143.640208 -138.571059 
L 142.902394 -138.571059 
L 142.16458 -138.571059 
L 141.426765 -138.571059 
L 140.688951 -138.571059 
L 139.951137 -138.571059 
L 139.213323 -138.571059 
L 138.475509 -138.571059 
L 137.737695 -138.571059 
L 136.999881 -138.571059 
L 136.262067 -138.571059 
L 135.524253 -138.571059 
L 134.786439 -138.571059 
L 134.048625 -138.571059 
L 133.310811 -138.571059 
L 132.572997 -138.571059 
L 131.835183 -138.571059 
L 131.097369 -138.571059 
L 130.359555 -138.571059 
L 129.621741 -138.571059 
L 128.883927 -138.571059 
L 128.146113 -138.571059 
L 127.408299 -138.571059 
L 126.670485 -138.571059 
L 125.93267 -138.571059 
L 125.194856 -138.571059 
L 124.457042 -138.571059 
L 123.719228 -138.571059 
L 122.981414 -138.571059 
L 122.2436 -138.571059 
L 121.505786 -138.571059 
L 120.767972 -138.571059 
L 120.030158 -138.571059 
L 119.292344 -138.571059 
L 118.55453 -138.571059 
L 117.816716 -138.571059 
L 117.078902 -138.571059 
L 116.341088 -138.571059 
L 115.603274 -138.571059 
L 114.86546 -138.571059 
L 114.127646 -138.571059 
L 113.389832 -138.571059 
L 112.652018 -138.571059 
L 111.914204 -138.571059 
L 111.176389 -138.571059 
L 110.438575 -138.571059 
L 109.700761 -138.571059 
L 108.962947 -138.571059 
L 108.225133 -138.571059 
L 107.487319 -138.571059 
L 106.749505 -138.571059 
L 106.011691 -138.571059 
L 105.273877 -138.571059 
L 104.536063 -138.571059 
L 103.798249 -138.571059 
L 103.060435 -138.571059 
L 102.322621 -138.571059 
L 101.584807 -138.571059 
L 100.846993 -138.571059 
L 100.109179 -138.571059 
L 99.371365 -138.571059 
L 98.633551 -138.571059 
L 97.895737 -138.57106 
L 97.157923 -138.57106 
L 96.420108 -138.571061 
L 95.682294 -138.571062 
L 94.94448 -138.571064 
L 94.206666 -138.571066 
L 93.468852 -138.57107 
L 92.731038 -138.571075 
L 91.993224 -138.571082 
L 91.25541 -138.571094 
L 90.517596 -138.571111 
L 89.779782 -138.571138 
L 89.041968 -138.57118 
L 88.304154 -138.571253 
L 87.56634 -138.571367 
L 86.828526 -138.571552 
L 86.090712 -138.571858 
L 85.352898 -138.572368 
L 84.615084 -138.573232 
L 83.87727 -138.574711 
L 83.139456 -138.577325 
L 82.401642 -138.581201 
L 81.663827 -138.587812 
L 80.926013 -138.597322 
L 80.188199 -138.610775 
L 79.450385 -138.627081 
L 78.712571 -138.653205 
L 77.974757 -138.687285 
L 77.236943 -138.725472 
L 76.499129 -138.776882 
L 75.761315 -138.847677 
L 75.023501 -138.949746 
L 74.285687 -139.08801 
L 73.547873 -139.284444 
L 72.810059 -139.559333 
L 72.072245 -139.838646 
L 71.334431 -140.254744 
L 70.596617 -140.836968 
L 69.858803 -141.639107 
L 69.120989 -142.738044 
L 68.383175 -144.413314 
L 67.645361 -146.730597 
L 66.907546 -149.527293 
L 66.169732 -152.698474 
L 65.431918 -155.868927 
L 64.694104 -158.782747 
L 63.95629 -161.014431 
L 63.218476 -162.523655 
L 62.480662 -164.020873 
L 61.742848 -165.187352 
L 61.005034 -166.187201 
L 60.26722 -166.678584 
L 59.529406 -166.800939 
L 58.791592 -166.921336 
L 58.053778 -166.932232 
L 57.315964 -167.295801 
L 56.57815 -169.072518 
L 55.840336 -171.001456 
L 55.102522 -173.668466 
L 54.364708 -175.425179 
L 53.626894 -175.424647 
L 52.88908 -171.240853 
L 52.151265 -163.820921 
z
" style="stroke: #000000; stroke-opacity: 0.2"/>
    </defs>
    <g clip-path="url(#p41620e6854)">
     <use xlink:href="#m5020c703c5" x="0" y="240.42625" style="fill-opacity: 0.2; stroke: #000000; stroke-opacity: 0.2"/>
    </g>
   </g>
   <g id="matplotlib.axis_1"/>
   <g id="matplotlib.axis_2">
    <g id="ytick_1">
     <g id="line2d_1">
      <defs>
       <path id="m4e012f6678" d="M 0 0 
L -3.5 0 
" style="stroke: #000000; stroke-width: 0.8"/>
      </defs>
      <g>
       <use xlink:href="#m4e012f6678" x="44.773125" y="101.855191" style="stroke: #000000; stroke-width: 0.8"/>
      </g>
     </g>
     <g id="text_1">
      <!-- 0.0 -->
      <g transform="translate(21.87 105.65441) scale(0.1 -0.1)">
       <defs>
        <path id="DejaVuSans-30" d="M 2034 4250 
Q 1547 4250 1301 3770 
Q 1056 3291 1056 2328 
Q 1056 1369 1301 889 
Q 1547 409 2034 409 
Q 2525 409 2770 889 
Q 3016 1369 3016 2328 
Q 3016 3291 2770 3770 
Q 2525 4250 2034 4250 
z
M 2034 4750 
Q 2819 4750 3233 4129 
Q 3647 3509 3647 2328 
Q 3647 1150 3233 529 
Q 2819 -91 2034 -91 
Q 1250 -91 836 529 
Q 422 1150 422 2328 
Q 422 3509 836 4129 
Q 1250 4750 2034 4750 
z
" transform="scale(0.015625)"/>
        <path id="DejaVuSans-2e" d="M 684 794 
L 1344 794 
L 1344 0 
L 684 0 
L 684 794 
z
" transform="scale(0.015625)"/>
       </defs>
       <use xlink:href="#DejaVuSans-30"/>
       <use xlink:href="#DejaVuSans-2e" x="63.623047"/>
       <use xlink:href="#DejaVuSans-30" x="95.410156"/>
      </g>
     </g>
    </g>
    <g id="ytick_2">
     <g id="line2d_2">
      <g>
       <use xlink:href="#m4e012f6678" x="44.773125" y="63.980398" style="stroke: #000000; stroke-width: 0.8"/>
      </g>
     </g>
     <g id="text_2">
      <!-- 0.5 -->
      <g transform="translate(21.87 67.779616) scale(0.1 -0.1)">
       <defs>
        <path id="DejaVuSans-35" d="M 691 4666 
L 3169 4666 
L 3169 4134 
L 1269 4134 
L 1269 2991 
Q 1406 3038 1543 3061 
Q 1681 3084 1819 3084 
Q 2600 3084 3056 2656 
Q 3513 2228 3513 1497 
Q 3513 744 3044 326 
Q 2575 -91 1722 -91 
Q 1428 -91 1123 -41 
Q 819 9 494 109 
L 494 744 
Q 775 591 1075 516 
Q 1375 441 1709 441 
Q 2250 441 2565 725 
Q 2881 1009 2881 1497 
Q 2881 1984 2565 2268 
Q 2250 2553 1709 2553 
Q 1456 2553 1204 2497 
Q 953 2441 691 2322 
L 691 4666 
z
" transform="scale(0.015625)"/>
       </defs>
       <use xlink:href="#DejaVuSans-30"/>
       <use xlink:href="#DejaVuSans-2e" x="63.623047"/>
       <use xlink:href="#DejaVuSans-35" x="95.410156"/>
      </g>
     </g>
    </g>
    <g id="ytick_3">
     <g id="line2d_3">
      <g>
       <use xlink:href="#m4e012f6678" x="44.773125" y="26.105604" style="stroke: #000000; stroke-width: 0.8"/>
      </g>
     </g>
     <g id="text_3">
      <!-- 1.0 -->
      <g transform="translate(21.87 29.904823) scale(0.1 -0.1)">
       <defs>
        <path id="DejaVuSans-31" d="M 794 531 
L 1825 531 
L 1825 4091 
L 703 3866 
L 703 4441 
L 1819 4666 
L 2450 4666 
L 2450 531 
L 3481 531 
L 3481 0 
L 794 0 
L 794 531 
z
" transform="scale(0.015625)"/>
       </defs>
       <use xlink:href="#DejaVuSans-31"/>
       <use xlink:href="#DejaVuSans-2e" x="63.623047"/>
       <use xlink:href="#DejaVuSans-30" x="95.410156"/>
      </g>
     </g>
    </g>
    <g id="text_4">
     <!-- Seeking ($\pi_S$) -->
     <g transform="translate(15.56 97.915398) rotate(-90) scale(0.11 -0.11)">
      <defs>
       <path id="DejaVuSans-53" d="M 3425 4513 
L 3425 3897 
Q 3066 4069 2747 4153 
Q 2428 4238 2131 4238 
Q 1616 4238 1336 4038 
Q 1056 3838 1056 3469 
Q 1056 3159 1242 3001 
Q 1428 2844 1947 2747 
L 2328 2669 
Q 3034 2534 3370 2195 
Q 3706 1856 3706 1288 
Q 3706 609 3251 259 
Q 2797 -91 1919 -91 
Q 1588 -91 1214 -16 
Q 841 59 441 206 
L 441 856 
Q 825 641 1194 531 
Q 1563 422 1919 422 
Q 2459 422 2753 634 
Q 3047 847 3047 1241 
Q 3047 1584 2836 1778 
Q 2625 1972 2144 2069 
L 1759 2144 
Q 1053 2284 737 2584 
Q 422 2884 422 3419 
Q 422 4038 858 4394 
Q 1294 4750 2059 4750 
Q 2388 4750 2728 4690 
Q 3069 4631 3425 4513 
z
" transform="scale(0.015625)"/>
       <path id="DejaVuSans-65" d="M 3597 1894 
L 3597 1613 
L 953 1613 
Q 991 1019 1311 708 
Q 1631 397 2203 397 
Q 2534 397 2845 478 
Q 3156 559 3463 722 
L 3463 178 
Q 3153 47 2828 -22 
Q 2503 -91 2169 -91 
Q 1331 -91 842 396 
Q 353 884 353 1716 
Q 353 2575 817 3079 
Q 1281 3584 2069 3584 
Q 2775 3584 3186 3129 
Q 3597 2675 3597 1894 
z
M 3022 2063 
Q 3016 2534 2758 2815 
Q 2500 3097 2075 3097 
Q 1594 3097 1305 2825 
Q 1016 2553 972 2059 
L 3022 2063 
z
" transform="scale(0.015625)"/>
       <path id="DejaVuSans-6b" d="M 581 4863 
L 1159 4863 
L 1159 1991 
L 2875 3500 
L 3609 3500 
L 1753 1863 
L 3688 0 
L 2938 0 
L 1159 1709 
L 1159 0 
L 581 0 
L 581 4863 
z
" transform="scale(0.015625)"/>
       <path id="DejaVuSans-69" d="M 603 3500 
L 1178 3500 
L 1178 0 
L 603 0 
L 603 3500 
z
M 603 4863 
L 1178 4863 
L 1178 4134 
L 603 4134 
L 603 4863 
z
" transform="scale(0.015625)"/>
       <path id="DejaVuSans-6e" d="M 3513 2113 
L 3513 0 
L 2938 0 
L 2938 2094 
Q 2938 2591 2744 2837 
Q 2550 3084 2163 3084 
Q 1697 3084 1428 2787 
Q 1159 2491 1159 1978 
L 1159 0 
L 581 0 
L 581 3500 
L 1159 3500 
L 1159 2956 
Q 1366 3272 1645 3428 
Q 1925 3584 2291 3584 
Q 2894 3584 3203 3211 
Q 3513 2838 3513 2113 
z
" transform="scale(0.015625)"/>
       <path id="DejaVuSans-67" d="M 2906 1791 
Q 2906 2416 2648 2759 
Q 2391 3103 1925 3103 
Q 1463 3103 1205 2759 
Q 947 2416 947 1791 
Q 947 1169 1205 825 
Q 1463 481 1925 481 
Q 2391 481 2648 825 
Q 2906 1169 2906 1791 
z
M 3481 434 
Q 3481 -459 3084 -895 
Q 2688 -1331 1869 -1331 
Q 1566 -1331 1297 -1286 
Q 1028 -1241 775 -1147 
L 775 -588 
Q 1028 -725 1275 -790 
Q 1522 -856 1778 -856 
Q 2344 -856 2625 -561 
Q 2906 -266 2906 331 
L 2906 616 
Q 2728 306 2450 153 
Q 2172 0 1784 0 
Q 1141 0 747 490 
Q 353 981 353 1791 
Q 353 2603 747 3093 
Q 1141 3584 1784 3584 
Q 2172 3584 2450 3431 
Q 2728 3278 2906 2969 
L 2906 3500 
L 3481 3500 
L 3481 434 
z
" transform="scale(0.015625)"/>
       <path id="DejaVuSans-20" transform="scale(0.015625)"/>
       <path id="DejaVuSans-28" d="M 1984 4856 
Q 1566 4138 1362 3434 
Q 1159 2731 1159 2009 
Q 1159 1288 1364 580 
Q 1569 -128 1984 -844 
L 1484 -844 
Q 1016 -109 783 600 
Q 550 1309 550 2009 
Q 550 2706 781 3412 
Q 1013 4119 1484 4856 
L 1984 4856 
z
" transform="scale(0.015625)"/>
       <path id="DejaVuSans-Oblique-3c0" d="M 584 3500 
L 3938 3500 
L 3825 2925 
L 3384 2925 
L 2966 775 
Q 2922 550 2981 450 
Q 3038 353 3209 353 
Q 3256 353 3325 363 
Q 3397 369 3419 372 
L 3338 -44 
Q 3222 -84 3103 -103 
Q 2981 -122 2866 -122 
Q 2491 -122 2388 81 
Q 2284 288 2391 838 
L 2797 2925 
L 1506 2925 
L 938 0 
L 350 0 
L 919 2925 
L 472 2925 
L 584 3500 
z
" transform="scale(0.015625)"/>
       <path id="DejaVuSans-Oblique-53" d="M 3859 4513 
L 3738 3897 
Q 3422 4066 3111 4152 
Q 2800 4238 2509 4238 
Q 1944 4238 1609 3991 
Q 1275 3744 1275 3334 
Q 1275 3109 1398 2989 
Q 1522 2869 2034 2731 
L 2413 2638 
Q 3053 2472 3303 2217 
Q 3553 1963 3553 1503 
Q 3553 797 2998 353 
Q 2444 -91 1538 -91 
Q 1166 -91 791 -17 
Q 416 56 38 206 
L 166 856 
Q 513 641 861 531 
Q 1209 422 1556 422 
Q 2147 422 2503 684 
Q 2859 947 2859 1369 
Q 2859 1650 2717 1795 
Q 2575 1941 2106 2059 
L 1728 2156 
Q 1081 2325 845 2545 
Q 609 2766 609 3163 
Q 609 3859 1145 4304 
Q 1681 4750 2541 4750 
Q 2875 4750 3203 4690 
Q 3531 4631 3859 4513 
z
" transform="scale(0.015625)"/>
       <path id="DejaVuSans-29" d="M 513 4856 
L 1013 4856 
Q 1481 4119 1714 3412 
Q 1947 2706 1947 2009 
Q 1947 1309 1714 600 
Q 1481 -109 1013 -844 
L 513 -844 
Q 928 -128 1133 580 
Q 1338 1288 1338 2009 
Q 1338 2731 1133 3434 
Q 928 4138 513 4856 
z
" transform="scale(0.015625)"/>
      </defs>
      <use xlink:href="#DejaVuSans-53" transform="translate(0 0.015625)"/>
      <use xlink:href="#DejaVuSans-65" transform="translate(63.476562 0.015625)"/>
      <use xlink:href="#DejaVuSans-65" transform="translate(125 0.015625)"/>
      <use xlink:href="#DejaVuSans-6b" transform="translate(186.523438 0.015625)"/>
      <use xlink:href="#DejaVuSans-69" transform="translate(244.433594 0.015625)"/>
      <use xlink:href="#DejaVuSans-6e" transform="translate(272.216797 0.015625)"/>
      <use xlink:href="#DejaVuSans-67" transform="translate(335.595703 0.015625)"/>
      <use xlink:href="#DejaVuSans-20" transform="translate(399.072266 0.015625)"/>
      <use xlink:href="#DejaVuSans-28" transform="translate(430.859375 0.015625)"/>
      <use xlink:href="#DejaVuSans-Oblique-3c0" transform="translate(469.873047 0.015625)"/>
      <use xlink:href="#DejaVuSans-Oblique-53" transform="translate(530.078125 -16.390625) scale(0.7)"/>
      <use xlink:href="#DejaVuSans-29" transform="translate(577.246094 0.015625)"/>
     </g>
    </g>
   </g>
   <g id="line2d_4">
    <path d="M 52.151265 76.605329 
L 52.88908 74.254039 
L 53.626894 74.737291 
L 54.364708 73.296198 
L 55.102522 69.823189 
L 57.315964 55.229544 
L 58.053778 51.492577 
L 58.791592 48.538105 
L 59.529406 46.392989 
L 60.26722 44.79586 
L 61.005034 43.672758 
L 61.742848 42.766303 
L 63.95629 40.767046 
L 66.169732 38.257603 
L 67.645361 36.18607 
L 69.120989 33.80941 
L 70.596617 31.805317 
L 72.072245 30.221667 
L 75.023501 27.756291 
L 76.499129 26.996668 
L 77.974757 26.528232 
L 79.450385 26.280525 
L 82.401642 26.130254 
L 92.731038 26.105683 
L 199.714075 26.105604 
L 199.714075 26.105604 
" clip-path="url(#p41620e6854)" style="fill: none; stroke: #7f00db; stroke-width: 1.5; stroke-linecap: square"/>
   </g>
   <g id="line2d_5">
    <path d="M 52.151265 76.605329 
L 52.88908 76.611387 
L 53.626894 76.797447 
L 54.364708 77.363837 
L 55.102522 78.575993 
L 55.840336 80.840132 
L 56.57815 83.877229 
L 58.791592 90.420309 
L 59.529406 91.735816 
L 60.26722 92.651679 
L 61.005034 93.193875 
L 61.742848 93.531572 
L 63.95629 93.784998 
L 64.694104 93.800893 
L 65.431918 93.657728 
L 66.907546 93.704355 
L 67.645361 94.011526 
L 69.120989 95.280272 
L 71.334431 97.450508 
L 74.285687 99.801039 
L 75.761315 100.698385 
L 77.236943 101.266385 
L 78.712571 101.606063 
L 80.926013 101.794138 
L 86.090712 101.853186 
L 199.714075 101.855191 
L 199.714075 101.855191 
" clip-path="url(#p41620e6854)" style="fill: none; stroke: #ff9a00; stroke-width: 1.5; stroke-linecap: square"/>
   </g>
   <g id="line2d_6">
    <path d="M 52.151265 76.605329 
L 52.88908 78.950561 
L 53.626894 78.281248 
L 54.364708 79.155952 
L 55.102522 81.416805 
L 55.840336 84.170882 
L 57.315964 88.59794 
L 58.053778 89.972255 
L 59.529406 91.687182 
L 61.005034 92.949354 
L 63.95629 95.263943 
L 65.431918 96.97932 
L 66.907546 98.835025 
L 68.383175 100.258924 
L 69.120989 100.726304 
L 70.596617 101.257301 
L 72.072245 101.526269 
L 75.023501 101.758067 
L 80.188199 101.844992 
L 106.011691 101.855191 
L 199.714075 101.855191 
L 199.714075 101.855191 
" clip-path="url(#p41620e6854)" style="fill: none; stroke: #000000; stroke-width: 1.5; stroke-linecap: square"/>
   </g>
   <g id="patch_3">
    <path d="M 44.773125 105.64267 
L 44.773125 22.318125 
" style="fill: none; stroke: #000000; stroke-width: 0.8; stroke-linejoin: miter; stroke-linecap: square"/>
   </g>
   <g id="patch_4">
    <path d="M 207.092216 105.64267 
L 207.092216 22.318125 
" style="fill: none; stroke: #000000; stroke-width: 0.8; stroke-linejoin: miter; stroke-linecap: square"/>
   </g>
   <g id="patch_5">
    <path d="M 44.773125 105.64267 
L 207.092216 105.64267 
" style="fill: none; stroke: #000000; stroke-width: 0.8; stroke-linejoin: miter; stroke-linecap: square"/>
   </g>
   <g id="patch_6">
    <path d="M 44.773125 22.318125 
L 207.092216 22.318125 
" style="fill: none; stroke: #000000; stroke-width: 0.8; stroke-linejoin: miter; stroke-linecap: square"/>
   </g>
   <g id="text_5">
    <!-- RCR -->
    <g transform="translate(113.704858 16.318125) scale(0.12 -0.12)">
     <defs>
      <path id="DejaVuSans-52" d="M 2841 2188 
Q 3044 2119 3236 1894 
Q 3428 1669 3622 1275 
L 4263 0 
L 3584 0 
L 2988 1197 
Q 2756 1666 2539 1819 
Q 2322 1972 1947 1972 
L 1259 1972 
L 1259 0 
L 628 0 
L 628 4666 
L 2053 4666 
Q 2853 4666 3247 4331 
Q 3641 3997 3641 3322 
Q 3641 2881 3436 2590 
Q 3231 2300 2841 2188 
z
M 1259 4147 
L 1259 2491 
L 2053 2491 
Q 2509 2491 2742 2702 
Q 2975 2913 2975 3322 
Q 2975 3731 2742 3939 
Q 2509 4147 2053 4147 
L 1259 4147 
z
" transform="scale(0.015625)"/>
      <path id="DejaVuSans-43" d="M 4122 4306 
L 4122 3641 
Q 3803 3938 3442 4084 
Q 3081 4231 2675 4231 
Q 1875 4231 1450 3742 
Q 1025 3253 1025 2328 
Q 1025 1406 1450 917 
Q 1875 428 2675 428 
Q 3081 428 3442 575 
Q 3803 722 4122 1019 
L 4122 359 
Q 3791 134 3420 21 
Q 3050 -91 2638 -91 
Q 1578 -91 968 557 
Q 359 1206 359 2328 
Q 359 3453 968 4101 
Q 1578 4750 2638 4750 
Q 3056 4750 3426 4639 
Q 3797 4528 4122 4306 
z
" transform="scale(0.015625)"/>
     </defs>
     <use xlink:href="#DejaVuSans-52"/>
     <use xlink:href="#DejaVuSans-43" x="64.482422"/>
     <use xlink:href="#DejaVuSans-52" x="134.306641"/>
    </g>
   </g>
  </g>
  <g id="axes_2">
   <g id="patch_7">
    <path d="M 44.773125 201.878125 
L 207.092216 201.878125 
L 207.092216 118.55358 
L 44.773125 118.55358 
z
" style="fill: #ffffff"/>
   </g>
   <g id="PolyCollection_4">
    <defs>
     <path id="m6bee430ee7" d="M 52.151265 -67.585467 
L 52.151265 -67.585467 
L 52.88908 -64.02842 
L 53.626894 -60.534319 
L 54.364708 -54.120185 
L 55.102522 -48.358726 
L 55.840336 -43.858153 
L 56.57815 -41.725076 
L 57.315964 -40.986419 
L 58.053778 -40.401729 
L 58.791592 -40.021487 
L 59.529406 -39.794961 
L 60.26722 -39.641472 
L 61.005034 -39.547039 
L 61.742848 -39.501372 
L 62.480662 -39.482222 
L 63.218476 -39.484393 
L 63.95629 -39.495671 
L 64.694104 -39.765163 
L 65.431918 -39.997389 
L 66.169732 -40.366438 
L 66.907546 -40.647023 
L 67.645361 -40.892741 
L 68.383175 -41.128214 
L 69.120989 -41.318405 
L 69.858803 -41.520421 
L 70.596617 -41.727574 
L 71.334431 -41.874902 
L 72.072245 -41.99351 
L 72.810059 -42.078512 
L 73.547873 -42.149906 
L 74.285687 -42.21053 
L 75.023501 -42.253678 
L 75.761315 -42.283093 
L 76.499129 -42.303165 
L 77.236943 -42.316222 
L 77.974757 -42.324019 
L 78.712571 -42.328577 
L 79.450385 -42.331278 
L 80.188199 -42.332941 
L 80.926013 -42.334037 
L 81.663827 -42.334708 
L 82.401642 -42.335111 
L 83.139456 -42.335329 
L 83.87727 -42.335449 
L 84.615084 -42.335515 
L 85.352898 -42.335552 
L 86.090712 -42.335574 
L 86.828526 -42.335586 
L 87.56634 -42.335593 
L 88.304154 -42.335598 
L 89.041968 -42.3356 
L 89.779782 -42.335602 
L 90.517596 -42.335603 
L 91.25541 -42.335604 
L 91.993224 -42.335604 
L 92.731038 -42.335604 
L 93.468852 -42.335604 
L 94.206666 -42.335604 
L 94.94448 -42.335604 
L 95.682294 -42.335604 
L 96.420108 -42.335604 
L 97.157923 -42.335604 
L 97.895737 -42.335604 
L 98.633551 -42.335604 
L 99.371365 -42.335604 
L 100.109179 -42.335604 
L 100.846993 -42.335604 
L 101.584807 -42.335604 
L 102.322621 -42.335604 
L 103.060435 -42.335604 
L 103.798249 -42.335604 
L 104.536063 -42.335604 
L 105.273877 -42.335604 
L 106.011691 -42.335604 
L 106.749505 -42.335604 
L 107.487319 -42.335604 
L 108.225133 -42.335604 
L 108.962947 -42.335604 
L 109.700761 -42.335604 
L 110.438575 -42.335604 
L 111.176389 -42.335604 
L 111.914204 -42.335604 
L 112.652018 -42.335604 
L 113.389832 -42.335604 
L 114.127646 -42.335604 
L 114.86546 -42.335604 
L 115.603274 -42.335604 
L 116.341088 -42.335604 
L 117.078902 -42.335604 
L 117.816716 -42.335604 
L 118.55453 -42.335604 
L 119.292344 -42.335604 
L 120.030158 -42.335604 
L 120.767972 -42.335604 
L 121.505786 -42.335604 
L 122.2436 -42.335604 
L 122.981414 -42.335604 
L 123.719228 -42.335604 
L 124.457042 -42.335604 
L 125.194856 -42.335604 
L 125.93267 -42.335604 
L 126.670485 -42.335604 
L 127.408299 -42.335604 
L 128.146113 -42.335604 
L 128.883927 -42.335604 
L 129.621741 -42.335604 
L 130.359555 -42.335604 
L 131.097369 -42.335604 
L 131.835183 -42.335604 
L 132.572997 -42.335604 
L 133.310811 -42.335604 
L 134.048625 -42.335604 
L 134.786439 -42.335604 
L 135.524253 -42.335604 
L 136.262067 -42.335604 
L 136.999881 -42.335604 
L 137.737695 -42.335604 
L 138.475509 -42.335604 
L 139.213323 -42.335604 
L 139.951137 -42.335604 
L 140.688951 -42.335604 
L 141.426765 -42.335604 
L 142.16458 -42.335604 
L 142.902394 -42.335604 
L 143.640208 -42.335604 
L 144.378022 -42.335604 
L 145.115836 -42.335604 
L 145.85365 -42.335604 
L 146.591464 -42.335604 
L 147.329278 -42.335604 
L 148.067092 -42.335604 
L 148.804906 -42.335604 
L 149.54272 -42.335604 
L 150.280534 -42.335604 
L 151.018348 -42.335604 
L 151.756162 -42.335604 
L 152.493976 -42.335604 
L 153.23179 -42.335604 
L 153.969604 -42.335604 
L 154.707418 -42.335604 
L 155.445232 -42.335604 
L 156.183046 -42.335604 
L 156.920861 -42.335604 
L 157.658675 -42.335604 
L 158.396489 -42.335604 
L 159.134303 -42.335604 
L 159.872117 -42.335604 
L 160.609931 -42.335604 
L 161.347745 -42.335604 
L 162.085559 -42.335604 
L 162.823373 -42.335604 
L 163.561187 -42.335604 
L 164.299001 -42.335604 
L 165.036815 -42.335604 
L 165.774629 -42.335604 
L 166.512443 -42.335604 
L 167.250257 -42.335604 
L 167.988071 -42.335604 
L 168.725885 -42.335604 
L 169.463699 -42.335604 
L 170.201513 -42.335604 
L 170.939327 -42.335604 
L 171.677142 -42.335604 
L 172.414956 -42.335604 
L 173.15277 -42.335604 
L 173.890584 -42.335604 
L 174.628398 -42.335604 
L 175.366212 -42.335604 
L 176.104026 -42.335604 
L 176.84184 -42.335604 
L 177.579654 -42.335604 
L 178.317468 -42.335604 
L 179.055282 -42.335604 
L 179.793096 -42.335604 
L 180.53091 -42.335604 
L 181.268724 -42.335604 
L 182.006538 -42.335604 
L 182.744352 -42.335604 
L 183.482166 -42.335604 
L 184.21998 -42.335604 
L 184.957794 -42.335604 
L 185.695608 -42.335604 
L 186.433423 -42.335604 
L 187.171237 -42.335604 
L 187.909051 -42.335604 
L 188.646865 -42.335604 
L 189.384679 -42.335604 
L 190.122493 -42.335604 
L 190.860307 -42.335604 
L 191.598121 -42.335604 
L 192.335935 -42.335604 
L 193.073749 -42.335604 
L 193.811563 -42.335604 
L 194.549377 -42.335604 
L 195.287191 -42.335604 
L 196.025005 -42.335604 
L 196.762819 -42.335604 
L 197.500633 -42.335604 
L 198.238447 -42.335604 
L 198.976261 -42.335604 
L 199.714075 -42.335604 
L 199.714075 -42.335604 
L 199.714075 -42.335604 
L 198.976261 -42.335604 
L 198.238447 -42.335604 
L 197.500633 -42.335604 
L 196.762819 -42.335604 
L 196.025005 -42.335604 
L 195.287191 -42.335604 
L 194.549377 -42.335604 
L 193.811563 -42.335604 
L 193.073749 -42.335604 
L 192.335935 -42.335604 
L 191.598121 -42.335604 
L 190.860307 -42.335604 
L 190.122493 -42.335604 
L 189.384679 -42.335604 
L 188.646865 -42.335604 
L 187.909051 -42.335604 
L 187.171237 -42.335604 
L 186.433423 -42.335604 
L 185.695608 -42.335604 
L 184.957794 -42.335604 
L 184.21998 -42.335604 
L 183.482166 -42.335604 
L 182.744352 -42.335604 
L 182.006538 -42.335604 
L 181.268724 -42.335604 
L 180.53091 -42.335604 
L 179.793096 -42.335604 
L 179.055282 -42.335604 
L 178.317468 -42.335604 
L 177.579654 -42.335604 
L 176.84184 -42.335604 
L 176.104026 -42.335604 
L 175.366212 -42.335604 
L 174.628398 -42.335604 
L 173.890584 -42.335604 
L 173.15277 -42.335604 
L 172.414956 -42.335604 
L 171.677142 -42.335604 
L 170.939327 -42.335604 
L 170.201513 -42.335604 
L 169.463699 -42.335604 
L 168.725885 -42.335604 
L 167.988071 -42.335604 
L 167.250257 -42.335604 
L 166.512443 -42.335604 
L 165.774629 -42.335604 
L 165.036815 -42.335604 
L 164.299001 -42.335604 
L 163.561187 -42.335604 
L 162.823373 -42.335604 
L 162.085559 -42.335604 
L 161.347745 -42.335604 
L 160.609931 -42.335604 
L 159.872117 -42.335604 
L 159.134303 -42.335604 
L 158.396489 -42.335604 
L 157.658675 -42.335604 
L 156.920861 -42.335604 
L 156.183046 -42.335604 
L 155.445232 -42.335604 
L 154.707418 -42.335604 
L 153.969604 -42.335604 
L 153.23179 -42.335604 
L 152.493976 -42.335604 
L 151.756162 -42.335604 
L 151.018348 -42.335604 
L 150.280534 -42.335604 
L 149.54272 -42.335604 
L 148.804906 -42.335604 
L 148.067092 -42.335604 
L 147.329278 -42.335604 
L 146.591464 -42.335604 
L 145.85365 -42.335604 
L 145.115836 -42.335604 
L 144.378022 -42.335604 
L 143.640208 -42.335604 
L 142.902394 -42.335604 
L 142.16458 -42.335604 
L 141.426765 -42.335604 
L 140.688951 -42.335604 
L 139.951137 -42.335604 
L 139.213323 -42.335604 
L 138.475509 -42.335604 
L 137.737695 -42.335604 
L 136.999881 -42.335604 
L 136.262067 -42.335604 
L 135.524253 -42.335604 
L 134.786439 -42.335604 
L 134.048625 -42.335604 
L 133.310811 -42.335604 
L 132.572997 -42.335604 
L 131.835183 -42.335604 
L 131.097369 -42.335604 
L 130.359555 -42.335604 
L 129.621741 -42.335604 
L 128.883927 -42.335604 
L 128.146113 -42.335604 
L 127.408299 -42.335604 
L 126.670485 -42.335604 
L 125.93267 -42.335604 
L 125.194856 -42.335604 
L 124.457042 -42.335604 
L 123.719228 -42.335604 
L 122.981414 -42.335604 
L 122.2436 -42.335604 
L 121.505786 -42.335604 
L 120.767972 -42.335604 
L 120.030158 -42.335604 
L 119.292344 -42.335604 
L 118.55453 -42.335604 
L 117.816716 -42.335604 
L 117.078902 -42.335604 
L 116.341088 -42.335604 
L 115.603274 -42.335604 
L 114.86546 -42.335604 
L 114.127646 -42.335604 
L 113.389832 -42.335604 
L 112.652018 -42.335604 
L 111.914204 -42.335604 
L 111.176389 -42.335604 
L 110.438575 -42.335604 
L 109.700761 -42.335604 
L 108.962947 -42.335604 
L 108.225133 -42.335604 
L 107.487319 -42.335604 
L 106.749505 -42.335604 
L 106.011691 -42.335604 
L 105.273877 -42.335604 
L 104.536063 -42.335604 
L 103.798249 -42.335604 
L 103.060435 -42.335604 
L 102.322621 -42.335604 
L 101.584807 -42.335604 
L 100.846993 -42.335604 
L 100.109179 -42.335604 
L 99.371365 -42.335604 
L 98.633551 -42.335604 
L 97.895737 -42.335604 
L 97.157923 -42.335604 
L 96.420108 -42.335604 
L 95.682294 -42.335604 
L 94.94448 -42.335604 
L 94.206666 -42.335605 
L 93.468852 -42.335605 
L 92.731038 -42.335605 
L 91.993224 -42.335606 
L 91.25541 -42.335606 
L 90.517596 -42.335608 
L 89.779782 -42.335611 
L 89.041968 -42.335615 
L 88.304154 -42.335621 
L 87.56634 -42.335631 
L 86.828526 -42.335648 
L 86.090712 -42.335678 
L 85.352898 -42.33573 
L 84.615084 -42.335823 
L 83.87727 -42.335989 
L 83.139456 -42.336293 
L 82.401642 -42.336859 
L 81.663827 -42.33794 
L 80.926013 -42.339856 
L 80.188199 -42.343147 
L 79.450385 -42.34845 
L 78.712571 -42.357238 
L 77.974757 -42.371807 
L 77.236943 -42.396138 
L 76.499129 -42.435428 
L 75.761315 -42.493354 
L 75.023501 -42.57541 
L 74.285687 -42.689669 
L 73.547873 -42.853015 
L 72.810059 -43.059197 
L 72.072245 -43.319141 
L 71.334431 -43.68777 
L 70.596617 -44.136944 
L 69.858803 -44.751749 
L 69.120989 -45.340983 
L 68.383175 -45.937914 
L 67.645361 -46.579109 
L 66.907546 -47.150657 
L 66.169732 -47.789193 
L 65.431918 -48.631562 
L 64.694104 -49.170003 
L 63.95629 -49.786625 
L 63.218476 -49.862347 
L 62.480662 -49.929919 
L 61.742848 -49.959241 
L 61.005034 -50.000131 
L 60.26722 -50.072019 
L 59.529406 -50.190448 
L 58.791592 -50.486184 
L 58.053778 -51.096442 
L 57.315964 -52.013063 
L 56.57815 -53.845649 
L 55.840336 -55.897847 
L 55.102522 -58.588385 
L 54.364708 -62.05747 
L 53.626894 -65.90567 
L 52.88908 -67.750332 
L 52.151265 -67.585467 
z
" style="stroke: #7f00db; stroke-opacity: 0.2"/>
    </defs>
    <g clip-path="url(#p59e637d65b)">
     <use xlink:href="#m6bee430ee7" x="0" y="240.42625" style="fill: #7f00db; fill-opacity: 0.2; stroke: #7f00db; stroke-opacity: 0.2"/>
    </g>
   </g>
   <g id="PolyCollection_5">
    <defs>
     <path id="m0431f5bd6f" d="M 52.151265 -67.585467 
L 52.151265 -67.585467 
L 52.88908 -65.224797 
L 53.626894 -63.50179 
L 54.364708 -68.438796 
L 55.102522 -74.396764 
L 55.840336 -78.996061 
L 56.57815 -83.628616 
L 57.315964 -87.15354 
L 58.053778 -90.0166 
L 58.791592 -92.724709 
L 59.529406 -95.447973 
L 60.26722 -97.405931 
L 61.005034 -99.432899 
L 61.742848 -102.188503 
L 62.480662 -104.879493 
L 63.218476 -106.93732 
L 63.95629 -108.259149 
L 64.694104 -109.714772 
L 65.431918 -110.889756 
L 66.169732 -112.116958 
L 66.907546 -112.966251 
L 67.645361 -113.661632 
L 68.383175 -114.385521 
L 69.120989 -115.032048 
L 69.858803 -115.645512 
L 70.596617 -116.272362 
L 71.334431 -116.727446 
L 72.072245 -117.098901 
L 72.810059 -117.360292 
L 73.547873 -117.567186 
L 74.285687 -117.730865 
L 75.023501 -117.84527 
L 75.761315 -117.92739 
L 76.499129 -117.985344 
L 77.236943 -118.024645 
L 77.974757 -118.048983 
L 78.712571 -118.063555 
L 79.450385 -118.072344 
L 80.188199 -118.077648 
L 80.926013 -118.080939 
L 81.663827 -118.082855 
L 82.401642 -118.083936 
L 83.139456 -118.084503 
L 83.87727 -118.084807 
L 84.615084 -118.084973 
L 85.352898 -118.085065 
L 86.090712 -118.085117 
L 86.828526 -118.085147 
L 87.56634 -118.085165 
L 88.304154 -118.085175 
L 89.041968 -118.085181 
L 89.779782 -118.085185 
L 90.517596 -118.085187 
L 91.25541 -118.085189 
L 91.993224 -118.08519 
L 92.731038 -118.08519 
L 93.468852 -118.085191 
L 94.206666 -118.085191 
L 94.94448 -118.085191 
L 95.682294 -118.085191 
L 96.420108 -118.085191 
L 97.157923 -118.085191 
L 97.895737 -118.085191 
L 98.633551 -118.085191 
L 99.371365 -118.085191 
L 100.109179 -118.085191 
L 100.846993 -118.085191 
L 101.584807 -118.085191 
L 102.322621 -118.085191 
L 103.060435 -118.085191 
L 103.798249 -118.085191 
L 104.536063 -118.085191 
L 105.273877 -118.085191 
L 106.011691 -118.085191 
L 106.749505 -118.085191 
L 107.487319 -118.085191 
L 108.225133 -118.085191 
L 108.962947 -118.085191 
L 109.700761 -118.085191 
L 110.438575 -118.085191 
L 111.176389 -118.085191 
L 111.914204 -118.085191 
L 112.652018 -118.085191 
L 113.389832 -118.085191 
L 114.127646 -118.085191 
L 114.86546 -118.085191 
L 115.603274 -118.085191 
L 116.341088 -118.085191 
L 117.078902 -118.085191 
L 117.816716 -118.085191 
L 118.55453 -118.085191 
L 119.292344 -118.085191 
L 120.030158 -118.085191 
L 120.767972 -118.085191 
L 121.505786 -118.085191 
L 122.2436 -118.085191 
L 122.981414 -118.085191 
L 123.719228 -118.085191 
L 124.457042 -118.085191 
L 125.194856 -118.085191 
L 125.93267 -118.085191 
L 126.670485 -118.085191 
L 127.408299 -118.085191 
L 128.146113 -118.085191 
L 128.883927 -118.085191 
L 129.621741 -118.085191 
L 130.359555 -118.085191 
L 131.097369 -118.085191 
L 131.835183 -118.085191 
L 132.572997 -118.085191 
L 133.310811 -118.085191 
L 134.048625 -118.085191 
L 134.786439 -118.085191 
L 135.524253 -118.085191 
L 136.262067 -118.085191 
L 136.999881 -118.085191 
L 137.737695 -118.085191 
L 138.475509 -118.085191 
L 139.213323 -118.085191 
L 139.951137 -118.085191 
L 140.688951 -118.085191 
L 141.426765 -118.085191 
L 142.16458 -118.085191 
L 142.902394 -118.085191 
L 143.640208 -118.085191 
L 144.378022 -118.085191 
L 145.115836 -118.085191 
L 145.85365 -118.085191 
L 146.591464 -118.085191 
L 147.329278 -118.085191 
L 148.067092 -118.085191 
L 148.804906 -118.085191 
L 149.54272 -118.085191 
L 150.280534 -118.085191 
L 151.018348 -118.085191 
L 151.756162 -118.085191 
L 152.493976 -118.085191 
L 153.23179 -118.085191 
L 153.969604 -118.085191 
L 154.707418 -118.085191 
L 155.445232 -118.085191 
L 156.183046 -118.085191 
L 156.920861 -118.085191 
L 157.658675 -118.085191 
L 158.396489 -118.085191 
L 159.134303 -118.085191 
L 159.872117 -118.085191 
L 160.609931 -118.085191 
L 161.347745 -118.085191 
L 162.085559 -118.085191 
L 162.823373 -118.085191 
L 163.561187 -118.085191 
L 164.299001 -118.085191 
L 165.036815 -118.085191 
L 165.774629 -118.085191 
L 166.512443 -118.085191 
L 167.250257 -118.085191 
L 167.988071 -118.085191 
L 168.725885 -118.085191 
L 169.463699 -118.085191 
L 170.201513 -118.085191 
L 170.939327 -118.085191 
L 171.677142 -118.085191 
L 172.414956 -118.085191 
L 173.15277 -118.085191 
L 173.890584 -118.085191 
L 174.628398 -118.085191 
L 175.366212 -118.085191 
L 176.104026 -118.085191 
L 176.84184 -118.085191 
L 177.579654 -118.085191 
L 178.317468 -118.085191 
L 179.055282 -118.085191 
L 179.793096 -118.085191 
L 180.53091 -118.085191 
L 181.268724 -118.085191 
L 182.006538 -118.085191 
L 182.744352 -118.085191 
L 183.482166 -118.085191 
L 184.21998 -118.085191 
L 184.957794 -118.085191 
L 185.695608 -118.085191 
L 186.433423 -118.085191 
L 187.171237 -118.085191 
L 187.909051 -118.085191 
L 188.646865 -118.085191 
L 189.384679 -118.085191 
L 190.122493 -118.085191 
L 190.860307 -118.085191 
L 191.598121 -118.085191 
L 192.335935 -118.085191 
L 193.073749 -118.085191 
L 193.811563 -118.085191 
L 194.549377 -118.085191 
L 195.287191 -118.085191 
L 196.025005 -118.085191 
L 196.762819 -118.085191 
L 197.500633 -118.085191 
L 198.238447 -118.085191 
L 198.976261 -118.085191 
L 199.714075 -118.085191 
L 199.714075 -118.085191 
L 199.714075 -118.085191 
L 198.976261 -118.085191 
L 198.238447 -118.085191 
L 197.500633 -118.085191 
L 196.762819 -118.085191 
L 196.025005 -118.085191 
L 195.287191 -118.085191 
L 194.549377 -118.085191 
L 193.811563 -118.085191 
L 193.073749 -118.085191 
L 192.335935 -118.085191 
L 191.598121 -118.085191 
L 190.860307 -118.085191 
L 190.122493 -118.085191 
L 189.384679 -118.085191 
L 188.646865 -118.085191 
L 187.909051 -118.085191 
L 187.171237 -118.085191 
L 186.433423 -118.085191 
L 185.695608 -118.085191 
L 184.957794 -118.085191 
L 184.21998 -118.085191 
L 183.482166 -118.085191 
L 182.744352 -118.085191 
L 182.006538 -118.085191 
L 181.268724 -118.085191 
L 180.53091 -118.085191 
L 179.793096 -118.085191 
L 179.055282 -118.085191 
L 178.317468 -118.085191 
L 177.579654 -118.085191 
L 176.84184 -118.085191 
L 176.104026 -118.085191 
L 175.366212 -118.085191 
L 174.628398 -118.085191 
L 173.890584 -118.085191 
L 173.15277 -118.085191 
L 172.414956 -118.085191 
L 171.677142 -118.085191 
L 170.939327 -118.085191 
L 170.201513 -118.085191 
L 169.463699 -118.085191 
L 168.725885 -118.085191 
L 167.988071 -118.085191 
L 167.250257 -118.085191 
L 166.512443 -118.085191 
L 165.774629 -118.085191 
L 165.036815 -118.085191 
L 164.299001 -118.085191 
L 163.561187 -118.085191 
L 162.823373 -118.085191 
L 162.085559 -118.085191 
L 161.347745 -118.085191 
L 160.609931 -118.085191 
L 159.872117 -118.085191 
L 159.134303 -118.085191 
L 158.396489 -118.085191 
L 157.658675 -118.085191 
L 156.920861 -118.085191 
L 156.183046 -118.085191 
L 155.445232 -118.085191 
L 154.707418 -118.085191 
L 153.969604 -118.085191 
L 153.23179 -118.085191 
L 152.493976 -118.085191 
L 151.756162 -118.085191 
L 151.018348 -118.085191 
L 150.280534 -118.085191 
L 149.54272 -118.085191 
L 148.804906 -118.085191 
L 148.067092 -118.085191 
L 147.329278 -118.085191 
L 146.591464 -118.085191 
L 145.85365 -118.085191 
L 145.115836 -118.085191 
L 144.378022 -118.085191 
L 143.640208 -118.085191 
L 142.902394 -118.085191 
L 142.16458 -118.085191 
L 141.426765 -118.085191 
L 140.688951 -118.085191 
L 139.951137 -118.085191 
L 139.213323 -118.085191 
L 138.475509 -118.085191 
L 137.737695 -118.085191 
L 136.999881 -118.085191 
L 136.262067 -118.085191 
L 135.524253 -118.085191 
L 134.786439 -118.085191 
L 134.048625 -118.085191 
L 133.310811 -118.085191 
L 132.572997 -118.085191 
L 131.835183 -118.085191 
L 131.097369 -118.085191 
L 130.359555 -118.085191 
L 129.621741 -118.085191 
L 128.883927 -118.085191 
L 128.146113 -118.085191 
L 127.408299 -118.085191 
L 126.670485 -118.085191 
L 125.93267 -118.085191 
L 125.194856 -118.085191 
L 124.457042 -118.085191 
L 123.719228 -118.085191 
L 122.981414 -118.085191 
L 122.2436 -118.085191 
L 121.505786 -118.085191 
L 120.767972 -118.085191 
L 120.030158 -118.085191 
L 119.292344 -118.085191 
L 118.55453 -118.085191 
L 117.816716 -118.085191 
L 117.078902 -118.085191 
L 116.341088 -118.085191 
L 115.603274 -118.085191 
L 114.86546 -118.085191 
L 114.127646 -118.085191 
L 113.389832 -118.085191 
L 112.652018 -118.085191 
L 111.914204 -118.085191 
L 111.176389 -118.085191 
L 110.438575 -118.085191 
L 109.700761 -118.085191 
L 108.962947 -118.085191 
L 108.225133 -118.085191 
L 107.487319 -118.085191 
L 106.749505 -118.085191 
L 106.011691 -118.085191 
L 105.273877 -118.085191 
L 104.536063 -118.085191 
L 103.798249 -118.085191 
L 103.060435 -118.085191 
L 102.322621 -118.085191 
L 101.584807 -118.085191 
L 100.846993 -118.085191 
L 100.109179 -118.085191 
L 99.371365 -118.085191 
L 98.633551 -118.085191 
L 97.895737 -118.085191 
L 97.157923 -118.085191 
L 96.420108 -118.085191 
L 95.682294 -118.085191 
L 94.94448 -118.085191 
L 94.206666 -118.085191 
L 93.468852 -118.085191 
L 92.731038 -118.085191 
L 91.993224 -118.085192 
L 91.25541 -118.085192 
L 90.517596 -118.085193 
L 89.779782 -118.085194 
L 89.041968 -118.085195 
L 88.304154 -118.085198 
L 87.56634 -118.085202 
L 86.828526 -118.085209 
L 86.090712 -118.085222 
L 85.352898 -118.085243 
L 84.615084 -118.085281 
L 83.87727 -118.085347 
L 83.139456 -118.085466 
L 82.401642 -118.085684 
L 81.663827 -118.086087 
L 80.926013 -118.086758 
L 80.188199 -118.087854 
L 79.450385 -118.089516 
L 78.712571 -118.092214 
L 77.974757 -118.096767 
L 77.236943 -118.104555 
L 76.499129 -118.11759 
L 75.761315 -118.137605 
L 75.023501 -118.166892 
L 74.285687 -118.209742 
L 73.547873 -118.269703 
L 72.810059 -118.339732 
L 72.072245 -118.422219 
L 71.334431 -118.536817 
L 70.596617 -118.676569 
L 69.858803 -118.871743 
L 69.120989 -119.051826 
L 68.383175 -119.205673 
L 67.645361 -119.382469 
L 66.907546 -119.54162 
L 66.169732 -119.712213 
L 65.431918 -119.924631 
L 64.694104 -120.019476 
L 63.95629 -120.181388 
L 63.218476 -120.268662 
L 62.480662 -120.550156 
L 61.742848 -121.038695 
L 61.005034 -121.535161 
L 60.26722 -121.753622 
L 59.529406 -121.788969 
L 58.791592 -121.608646 
L 58.053778 -120.665968 
L 57.315964 -119.157362 
L 56.57815 -117.055307 
L 55.840336 -113.048691 
L 55.102522 -104.894524 
L 54.364708 -95.746811 
L 53.626894 -86.158252 
L 52.88908 -78.148594 
L 52.151265 -67.585467 
z
" style="stroke: #ff9a00; stroke-opacity: 0.2"/>
    </defs>
    <g clip-path="url(#p59e637d65b)">
     <use xlink:href="#m0431f5bd6f" x="0" y="240.42625" style="fill: #ff9a00; fill-opacity: 0.2; stroke: #ff9a00; stroke-opacity: 0.2"/>
    </g>
   </g>
   <g id="PolyCollection_6">
    <defs>
     <path id="m5d86aca0b5" d="M 52.151265 -67.585467 
L 52.151265 -67.585467 
L 52.88908 -57.831628 
L 53.626894 -55.283797 
L 54.364708 -51.425531 
L 55.102522 -46.637687 
L 55.840336 -42.037093 
L 56.57815 -39.509894 
L 57.315964 -37.849867 
L 58.053778 -36.888872 
L 58.791592 -36.547793 
L 59.529406 -36.848474 
L 60.26722 -37.185406 
L 61.005034 -37.681907 
L 61.742848 -38.556364 
L 62.480662 -39.498899 
L 63.218476 -40.240771 
L 63.95629 -40.735214 
L 64.694104 -41.173779 
L 65.431918 -41.553508 
L 66.169732 -41.829614 
L 66.907546 -42.001205 
L 67.645361 -42.128663 
L 68.383175 -42.215016 
L 69.120989 -42.268332 
L 69.858803 -42.297809 
L 70.596617 -42.313578 
L 71.334431 -42.323663 
L 72.072245 -42.328929 
L 72.810059 -42.332247 
L 73.547873 -42.33405 
L 74.285687 -42.33492 
L 75.023501 -42.335311 
L 75.761315 -42.335478 
L 76.499129 -42.335551 
L 77.236943 -42.335579 
L 77.974757 -42.335592 
L 78.712571 -42.335599 
L 79.450385 -42.335602 
L 80.188199 -42.335603 
L 80.926013 -42.335604 
L 81.663827 -42.335604 
L 82.401642 -42.335604 
L 83.139456 -42.335604 
L 83.87727 -42.335604 
L 84.615084 -42.335604 
L 85.352898 -42.335604 
L 86.090712 -42.335604 
L 86.828526 -42.335604 
L 87.56634 -42.335604 
L 88.304154 -42.335604 
L 89.041968 -42.335604 
L 89.779782 -42.335604 
L 90.517596 -42.335604 
L 91.25541 -42.335604 
L 91.993224 -42.335604 
L 92.731038 -42.335604 
L 93.468852 -42.335604 
L 94.206666 -42.335604 
L 94.94448 -42.335604 
L 95.682294 -42.335604 
L 96.420108 -42.335604 
L 97.157923 -42.335604 
L 97.895737 -42.335604 
L 98.633551 -42.335604 
L 99.371365 -42.335604 
L 100.109179 -42.335604 
L 100.846993 -42.335604 
L 101.584807 -42.335604 
L 102.322621 -42.335604 
L 103.060435 -42.335604 
L 103.798249 -42.335604 
L 104.536063 -42.335604 
L 105.273877 -42.335604 
L 106.011691 -42.335604 
L 106.749505 -42.335604 
L 107.487319 -42.335604 
L 108.225133 -42.335604 
L 108.962947 -42.335604 
L 109.700761 -42.335604 
L 110.438575 -42.335604 
L 111.176389 -42.335604 
L 111.914204 -42.335604 
L 112.652018 -42.335604 
L 113.389832 -42.335604 
L 114.127646 -42.335604 
L 114.86546 -42.335604 
L 115.603274 -42.335604 
L 116.341088 -42.335604 
L 117.078902 -42.335604 
L 117.816716 -42.335604 
L 118.55453 -42.335604 
L 119.292344 -42.335604 
L 120.030158 -42.335604 
L 120.767972 -42.335604 
L 121.505786 -42.335604 
L 122.2436 -42.335604 
L 122.981414 -42.335604 
L 123.719228 -42.335604 
L 124.457042 -42.335604 
L 125.194856 -42.335604 
L 125.93267 -42.335604 
L 126.670485 -42.335604 
L 127.408299 -42.335604 
L 128.146113 -42.335604 
L 128.883927 -42.335604 
L 129.621741 -42.335604 
L 130.359555 -42.335604 
L 131.097369 -42.335604 
L 131.835183 -42.335604 
L 132.572997 -42.335604 
L 133.310811 -42.335604 
L 134.048625 -42.335604 
L 134.786439 -42.335604 
L 135.524253 -42.335604 
L 136.262067 -42.335604 
L 136.999881 -42.335604 
L 137.737695 -42.335604 
L 138.475509 -42.335604 
L 139.213323 -42.335604 
L 139.951137 -42.335604 
L 140.688951 -42.335604 
L 141.426765 -42.335604 
L 142.16458 -42.335604 
L 142.902394 -42.335604 
L 143.640208 -42.335604 
L 144.378022 -42.335604 
L 145.115836 -42.335604 
L 145.85365 -42.335604 
L 146.591464 -42.335604 
L 147.329278 -42.335604 
L 148.067092 -42.335604 
L 148.804906 -42.335604 
L 149.54272 -42.335604 
L 150.280534 -42.335604 
L 151.018348 -42.335604 
L 151.756162 -42.335604 
L 152.493976 -42.335604 
L 153.23179 -42.335604 
L 153.969604 -42.335604 
L 154.707418 -42.335604 
L 155.445232 -42.335604 
L 156.183046 -42.335604 
L 156.920861 -42.335604 
L 157.658675 -42.335604 
L 158.396489 -42.335604 
L 159.134303 -42.335604 
L 159.872117 -42.335604 
L 160.609931 -42.335604 
L 161.347745 -42.335604 
L 162.085559 -42.335604 
L 162.823373 -42.335604 
L 163.561187 -42.335604 
L 164.299001 -42.335604 
L 165.036815 -42.335604 
L 165.774629 -42.335604 
L 166.512443 -42.335604 
L 167.250257 -42.335604 
L 167.988071 -42.335604 
L 168.725885 -42.335604 
L 169.463699 -42.335604 
L 170.201513 -42.335604 
L 170.939327 -42.335604 
L 171.677142 -42.335604 
L 172.414956 -42.335604 
L 173.15277 -42.335604 
L 173.890584 -42.335604 
L 174.628398 -42.335604 
L 175.366212 -42.335604 
L 176.104026 -42.335604 
L 176.84184 -42.335604 
L 177.579654 -42.335604 
L 178.317468 -42.335604 
L 179.055282 -42.335604 
L 179.793096 -42.335604 
L 180.53091 -42.335604 
L 181.268724 -42.335604 
L 182.006538 -42.335604 
L 182.744352 -42.335604 
L 183.482166 -42.335604 
L 184.21998 -42.335604 
L 184.957794 -42.335604 
L 185.695608 -42.335604 
L 186.433423 -42.335604 
L 187.171237 -42.335604 
L 187.909051 -42.335604 
L 188.646865 -42.335604 
L 189.384679 -42.335604 
L 190.122493 -42.335604 
L 190.860307 -42.335604 
L 191.598121 -42.335604 
L 192.335935 -42.335604 
L 193.073749 -42.335604 
L 193.811563 -42.335604 
L 194.549377 -42.335604 
L 195.287191 -42.335604 
L 196.025005 -42.335604 
L 196.762819 -42.335604 
L 197.500633 -42.335604 
L 198.238447 -42.335604 
L 198.976261 -42.335604 
L 199.714075 -42.335604 
L 199.714075 -42.335604 
L 199.714075 -42.335604 
L 198.976261 -42.335604 
L 198.238447 -42.335604 
L 197.500633 -42.335604 
L 196.762819 -42.335604 
L 196.025005 -42.335604 
L 195.287191 -42.335604 
L 194.549377 -42.335604 
L 193.811563 -42.335604 
L 193.073749 -42.335604 
L 192.335935 -42.335604 
L 191.598121 -42.335604 
L 190.860307 -42.335604 
L 190.122493 -42.335604 
L 189.384679 -42.335604 
L 188.646865 -42.335604 
L 187.909051 -42.335604 
L 187.171237 -42.335604 
L 186.433423 -42.335604 
L 185.695608 -42.335604 
L 184.957794 -42.335604 
L 184.21998 -42.335604 
L 183.482166 -42.335604 
L 182.744352 -42.335604 
L 182.006538 -42.335604 
L 181.268724 -42.335604 
L 180.53091 -42.335604 
L 179.793096 -42.335604 
L 179.055282 -42.335604 
L 178.317468 -42.335604 
L 177.579654 -42.335604 
L 176.84184 -42.335604 
L 176.104026 -42.335604 
L 175.366212 -42.335604 
L 174.628398 -42.335604 
L 173.890584 -42.335604 
L 173.15277 -42.335604 
L 172.414956 -42.335604 
L 171.677142 -42.335604 
L 170.939327 -42.335604 
L 170.201513 -42.335604 
L 169.463699 -42.335604 
L 168.725885 -42.335604 
L 167.988071 -42.335604 
L 167.250257 -42.335604 
L 166.512443 -42.335604 
L 165.774629 -42.335604 
L 165.036815 -42.335604 
L 164.299001 -42.335604 
L 163.561187 -42.335604 
L 162.823373 -42.335604 
L 162.085559 -42.335604 
L 161.347745 -42.335604 
L 160.609931 -42.335604 
L 159.872117 -42.335604 
L 159.134303 -42.335604 
L 158.396489 -42.335604 
L 157.658675 -42.335604 
L 156.920861 -42.335604 
L 156.183046 -42.335604 
L 155.445232 -42.335604 
L 154.707418 -42.335604 
L 153.969604 -42.335604 
L 153.23179 -42.335604 
L 152.493976 -42.335604 
L 151.756162 -42.335604 
L 151.018348 -42.335604 
L 150.280534 -42.335604 
L 149.54272 -42.335604 
L 148.804906 -42.335604 
L 148.067092 -42.335604 
L 147.329278 -42.335604 
L 146.591464 -42.335604 
L 145.85365 -42.335604 
L 145.115836 -42.335604 
L 144.378022 -42.335604 
L 143.640208 -42.335604 
L 142.902394 -42.335604 
L 142.16458 -42.335604 
L 141.426765 -42.335604 
L 140.688951 -42.335604 
L 139.951137 -42.335604 
L 139.213323 -42.335604 
L 138.475509 -42.335604 
L 137.737695 -42.335604 
L 136.999881 -42.335604 
L 136.262067 -42.335604 
L 135.524253 -42.335604 
L 134.786439 -42.335604 
L 134.048625 -42.335604 
L 133.310811 -42.335604 
L 132.572997 -42.335604 
L 131.835183 -42.335604 
L 131.097369 -42.335604 
L 130.359555 -42.335604 
L 129.621741 -42.335604 
L 128.883927 -42.335604 
L 128.146113 -42.335604 
L 127.408299 -42.335604 
L 126.670485 -42.335604 
L 125.93267 -42.335604 
L 125.194856 -42.335604 
L 124.457042 -42.335604 
L 123.719228 -42.335604 
L 122.981414 -42.335604 
L 122.2436 -42.335604 
L 121.505786 -42.335604 
L 120.767972 -42.335604 
L 120.030158 -42.335604 
L 119.292344 -42.335604 
L 118.55453 -42.335604 
L 117.816716 -42.335604 
L 117.078902 -42.335604 
L 116.341088 -42.335604 
L 115.603274 -42.335604 
L 114.86546 -42.335604 
L 114.127646 -42.335604 
L 113.389832 -42.335604 
L 112.652018 -42.335604 
L 111.914204 -42.335604 
L 111.176389 -42.335604 
L 110.438575 -42.335604 
L 109.700761 -42.335604 
L 108.962947 -42.335604 
L 108.225133 -42.335604 
L 107.487319 -42.335604 
L 106.749505 -42.335604 
L 106.011691 -42.335604 
L 105.273877 -42.335604 
L 104.536063 -42.335604 
L 103.798249 -42.335604 
L 103.060435 -42.335604 
L 102.322621 -42.335604 
L 101.584807 -42.335604 
L 100.846993 -42.335604 
L 100.109179 -42.335604 
L 99.371365 -42.335604 
L 98.633551 -42.335604 
L 97.895737 -42.335604 
L 97.157923 -42.335604 
L 96.420108 -42.335604 
L 95.682294 -42.335604 
L 94.94448 -42.335604 
L 94.206666 -42.335604 
L 93.468852 -42.335604 
L 92.731038 -42.335604 
L 91.993224 -42.335604 
L 91.25541 -42.335604 
L 90.517596 -42.335604 
L 89.779782 -42.335604 
L 89.041968 -42.335604 
L 88.304154 -42.335604 
L 87.56634 -42.335604 
L 86.828526 -42.335604 
L 86.090712 -42.335604 
L 85.352898 -42.335604 
L 84.615084 -42.335604 
L 83.87727 -42.335604 
L 83.139456 -42.335604 
L 82.401642 -42.335605 
L 81.663827 -42.335605 
L 80.926013 -42.335605 
L 80.188199 -42.335607 
L 79.450385 -42.33561 
L 78.712571 -42.335617 
L 77.974757 -42.335631 
L 77.236943 -42.335661 
L 76.499129 -42.335722 
L 75.761315 -42.33588 
L 75.023501 -42.336238 
L 74.285687 -42.337073 
L 73.547873 -42.33894 
L 72.810059 -42.342819 
L 72.072245 -42.350099 
L 71.334431 -42.362203 
L 70.596617 -42.385772 
L 69.858803 -42.425566 
L 69.120989 -42.501206 
L 68.383175 -42.640462 
L 67.645361 -42.868186 
L 66.907546 -43.206043 
L 66.169732 -43.698383 
L 65.431918 -44.515953 
L 64.694104 -45.669607 
L 63.95629 -47.054753 
L 63.218476 -48.719306 
L 62.480662 -51.172111 
L 61.742848 -54.268624 
L 61.005034 -57.315663 
L 60.26722 -59.45435 
L 59.529406 -61.441973 
L 58.791592 -64.123981 
L 58.053778 -66.443189 
L 57.315964 -68.352549 
L 56.57815 -69.748256 
L 55.840336 -71.674955 
L 55.102522 -72.636714 
L 54.364708 -73.724007 
L 53.626894 -74.128971 
L 52.88908 -72.529028 
L 52.151265 -67.585467 
z
" style="stroke: #000000; stroke-opacity: 0.2"/>
    </defs>
    <g clip-path="url(#p59e637d65b)">
     <use xlink:href="#m5d86aca0b5" x="0" y="240.42625" style="fill-opacity: 0.2; stroke: #000000; stroke-opacity: 0.2"/>
    </g>
   </g>
   <g id="matplotlib.axis_3">
    <g id="xtick_1">
     <g id="line2d_7">
      <defs>
       <path id="m2a0c3f4f11" d="M 0 0 
L 0 3.5 
" style="stroke: #000000; stroke-width: 0.8"/>
      </defs>
      <g>
       <use xlink:href="#m2a0c3f4f11" x="52.151265" y="201.878125" style="stroke: #000000; stroke-width: 0.8"/>
      </g>
     </g>
     <g id="text_6">
      <!-- 0 -->
      <g transform="translate(48.970015 216.476562) scale(0.1 -0.1)">
       <use xlink:href="#DejaVuSans-30"/>
      </g>
     </g>
    </g>
    <g id="xtick_2">
     <g id="line2d_8">
      <g>
       <use xlink:href="#m2a0c3f4f11" x="89.041968" y="201.878125" style="stroke: #000000; stroke-width: 0.8"/>
      </g>
     </g>
     <g id="text_7">
      <!-- 50 -->
      <g transform="translate(82.679468 216.476562) scale(0.1 -0.1)">
       <use xlink:href="#DejaVuSans-35"/>
       <use xlink:href="#DejaVuSans-30" x="63.623047"/>
      </g>
     </g>
    </g>
    <g id="xtick_3">
     <g id="line2d_9">
      <g>
       <use xlink:href="#m2a0c3f4f11" x="125.93267" y="201.878125" style="stroke: #000000; stroke-width: 0.8"/>
      </g>
     </g>
     <g id="text_8">
      <!-- 100 -->
      <g transform="translate(116.38892 216.476562) scale(0.1 -0.1)">
       <use xlink:href="#DejaVuSans-31"/>
       <use xlink:href="#DejaVuSans-30" x="63.623047"/>
       <use xlink:href="#DejaVuSans-30" x="127.246094"/>
      </g>
     </g>
    </g>
    <g id="xtick_4">
     <g id="line2d_10">
      <g>
       <use xlink:href="#m2a0c3f4f11" x="162.823373" y="201.878125" style="stroke: #000000; stroke-width: 0.8"/>
      </g>
     </g>
     <g id="text_9">
      <!-- 150 -->
      <g transform="translate(153.279623 216.476562) scale(0.1 -0.1)">
       <use xlink:href="#DejaVuSans-31"/>
       <use xlink:href="#DejaVuSans-35" x="63.623047"/>
       <use xlink:href="#DejaVuSans-30" x="127.246094"/>
      </g>
     </g>
    </g>
    <g id="xtick_5">
     <g id="line2d_11">
      <g>
       <use xlink:href="#m2a0c3f4f11" x="199.714075" y="201.878125" style="stroke: #000000; stroke-width: 0.8"/>
      </g>
     </g>
     <g id="text_10">
      <!-- 200 -->
      <g transform="translate(190.170325 216.476562) scale(0.1 -0.1)">
       <defs>
        <path id="DejaVuSans-32" d="M 1228 531 
L 3431 531 
L 3431 0 
L 469 0 
L 469 531 
Q 828 903 1448 1529 
Q 2069 2156 2228 2338 
Q 2531 2678 2651 2914 
Q 2772 3150 2772 3378 
Q 2772 3750 2511 3984 
Q 2250 4219 1831 4219 
Q 1534 4219 1204 4116 
Q 875 4013 500 3803 
L 500 4441 
Q 881 4594 1212 4672 
Q 1544 4750 1819 4750 
Q 2544 4750 2975 4387 
Q 3406 4025 3406 3419 
Q 3406 3131 3298 2873 
Q 3191 2616 2906 2266 
Q 2828 2175 2409 1742 
Q 1991 1309 1228 531 
z
" transform="scale(0.015625)"/>
       </defs>
       <use xlink:href="#DejaVuSans-32"/>
       <use xlink:href="#DejaVuSans-30" x="63.623047"/>
       <use xlink:href="#DejaVuSans-30" x="127.246094"/>
      </g>
     </g>
    </g>
    <g id="text_11">
     <!-- Timestep ($t$) -->
     <g transform="translate(92.16267 230.91625) scale(0.11 -0.11)">
      <defs>
       <path id="DejaVuSans-54" d="M -19 4666 
L 3928 4666 
L 3928 4134 
L 2272 4134 
L 2272 0 
L 1638 0 
L 1638 4134 
L -19 4134 
L -19 4666 
z
" transform="scale(0.015625)"/>
       <path id="DejaVuSans-6d" d="M 3328 2828 
Q 3544 3216 3844 3400 
Q 4144 3584 4550 3584 
Q 5097 3584 5394 3201 
Q 5691 2819 5691 2113 
L 5691 0 
L 5113 0 
L 5113 2094 
Q 5113 2597 4934 2840 
Q 4756 3084 4391 3084 
Q 3944 3084 3684 2787 
Q 3425 2491 3425 1978 
L 3425 0 
L 2847 0 
L 2847 2094 
Q 2847 2600 2669 2842 
Q 2491 3084 2119 3084 
Q 1678 3084 1418 2786 
Q 1159 2488 1159 1978 
L 1159 0 
L 581 0 
L 581 3500 
L 1159 3500 
L 1159 2956 
Q 1356 3278 1631 3431 
Q 1906 3584 2284 3584 
Q 2666 3584 2933 3390 
Q 3200 3197 3328 2828 
z
" transform="scale(0.015625)"/>
       <path id="DejaVuSans-73" d="M 2834 3397 
L 2834 2853 
Q 2591 2978 2328 3040 
Q 2066 3103 1784 3103 
Q 1356 3103 1142 2972 
Q 928 2841 928 2578 
Q 928 2378 1081 2264 
Q 1234 2150 1697 2047 
L 1894 2003 
Q 2506 1872 2764 1633 
Q 3022 1394 3022 966 
Q 3022 478 2636 193 
Q 2250 -91 1575 -91 
Q 1294 -91 989 -36 
Q 684 19 347 128 
L 347 722 
Q 666 556 975 473 
Q 1284 391 1588 391 
Q 1994 391 2212 530 
Q 2431 669 2431 922 
Q 2431 1156 2273 1281 
Q 2116 1406 1581 1522 
L 1381 1569 
Q 847 1681 609 1914 
Q 372 2147 372 2553 
Q 372 3047 722 3315 
Q 1072 3584 1716 3584 
Q 2034 3584 2315 3537 
Q 2597 3491 2834 3397 
z
" transform="scale(0.015625)"/>
       <path id="DejaVuSans-74" d="M 1172 4494 
L 1172 3500 
L 2356 3500 
L 2356 3053 
L 1172 3053 
L 1172 1153 
Q 1172 725 1289 603 
Q 1406 481 1766 481 
L 2356 481 
L 2356 0 
L 1766 0 
Q 1100 0 847 248 
Q 594 497 594 1153 
L 594 3053 
L 172 3053 
L 172 3500 
L 594 3500 
L 594 4494 
L 1172 4494 
z
" transform="scale(0.015625)"/>
       <path id="DejaVuSans-70" d="M 1159 525 
L 1159 -1331 
L 581 -1331 
L 581 3500 
L 1159 3500 
L 1159 2969 
Q 1341 3281 1617 3432 
Q 1894 3584 2278 3584 
Q 2916 3584 3314 3078 
Q 3713 2572 3713 1747 
Q 3713 922 3314 415 
Q 2916 -91 2278 -91 
Q 1894 -91 1617 61 
Q 1341 213 1159 525 
z
M 3116 1747 
Q 3116 2381 2855 2742 
Q 2594 3103 2138 3103 
Q 1681 3103 1420 2742 
Q 1159 2381 1159 1747 
Q 1159 1113 1420 752 
Q 1681 391 2138 391 
Q 2594 391 2855 752 
Q 3116 1113 3116 1747 
z
" transform="scale(0.015625)"/>
       <path id="DejaVuSans-Oblique-74" d="M 2706 3500 
L 2619 3053 
L 1472 3053 
L 1100 1153 
Q 1081 1047 1072 975 
Q 1063 903 1063 863 
Q 1063 663 1183 572 
Q 1303 481 1569 481 
L 2150 481 
L 2053 0 
L 1503 0 
Q 991 0 739 200 
Q 488 400 488 806 
Q 488 878 497 964 
Q 506 1050 525 1153 
L 897 3053 
L 409 3053 
L 500 3500 
L 978 3500 
L 1172 4494 
L 1747 4494 
L 1556 3500 
L 2706 3500 
z
" transform="scale(0.015625)"/>
      </defs>
      <use xlink:href="#DejaVuSans-54" transform="translate(0 0.015625)"/>
      <use xlink:href="#DejaVuSans-69" transform="translate(61.083984 0.015625)"/>
      <use xlink:href="#DejaVuSans-6d" transform="translate(88.867188 0.015625)"/>
      <use xlink:href="#DejaVuSans-65" transform="translate(186.279297 0.015625)"/>
      <use xlink:href="#DejaVuSans-73" transform="translate(247.802734 0.015625)"/>
      <use xlink:href="#DejaVuSans-74" transform="translate(299.902344 0.015625)"/>
      <use xlink:href="#DejaVuSans-65" transform="translate(339.111328 0.015625)"/>
      <use xlink:href="#DejaVuSans-70" transform="translate(400.634766 0.015625)"/>
      <use xlink:href="#DejaVuSans-20" transform="translate(464.111328 0.015625)"/>
      <use xlink:href="#DejaVuSans-28" transform="translate(495.898438 0.015625)"/>
      <use xlink:href="#DejaVuSans-Oblique-74" transform="translate(534.912109 0.015625)"/>
      <use xlink:href="#DejaVuSans-29" transform="translate(574.121094 0.015625)"/>
     </g>
    </g>
   </g>
   <g id="matplotlib.axis_4">
    <g id="ytick_4">
     <g id="line2d_12">
      <g>
       <use xlink:href="#m4e012f6678" x="44.773125" y="198.090646" style="stroke: #000000; stroke-width: 0.8"/>
      </g>
     </g>
     <g id="text_12">
      <!-- 0.0 -->
      <g transform="translate(21.87 201.889864) scale(0.1 -0.1)">
       <use xlink:href="#DejaVuSans-30"/>
       <use xlink:href="#DejaVuSans-2e" x="63.623047"/>
       <use xlink:href="#DejaVuSans-30" x="95.410156"/>
      </g>
     </g>
    </g>
    <g id="ytick_5">
     <g id="line2d_13">
      <g>
       <use xlink:href="#m4e012f6678" x="44.773125" y="160.215852" style="stroke: #000000; stroke-width: 0.8"/>
      </g>
     </g>
     <g id="text_13">
      <!-- 0.5 -->
      <g transform="translate(21.87 164.015071) scale(0.1 -0.1)">
       <use xlink:href="#DejaVuSans-30"/>
       <use xlink:href="#DejaVuSans-2e" x="63.623047"/>
       <use xlink:href="#DejaVuSans-35" x="95.410156"/>
      </g>
     </g>
    </g>
    <g id="ytick_6">
     <g id="line2d_14">
      <g>
       <use xlink:href="#m4e012f6678" x="44.773125" y="122.341059" style="stroke: #000000; stroke-width: 0.8"/>
      </g>
     </g>
     <g id="text_14">
      <!-- 1.0 -->
      <g transform="translate(21.87 126.140278) scale(0.1 -0.1)">
       <use xlink:href="#DejaVuSans-31"/>
       <use xlink:href="#DejaVuSans-2e" x="63.623047"/>
       <use xlink:href="#DejaVuSans-30" x="95.410156"/>
      </g>
     </g>
    </g>
    <g id="text_15">
     <!-- Averse ($\pi_A$) -->
     <g transform="translate(15.582344 191.290852) rotate(-90) scale(0.11 -0.11)">
      <defs>
       <path id="DejaVuSans-41" d="M 2188 4044 
L 1331 1722 
L 3047 1722 
L 2188 4044 
z
M 1831 4666 
L 2547 4666 
L 4325 0 
L 3669 0 
L 3244 1197 
L 1141 1197 
L 716 0 
L 50 0 
L 1831 4666 
z
" transform="scale(0.015625)"/>
       <path id="DejaVuSans-76" d="M 191 3500 
L 800 3500 
L 1894 563 
L 2988 3500 
L 3597 3500 
L 2284 0 
L 1503 0 
L 191 3500 
z
" transform="scale(0.015625)"/>
       <path id="DejaVuSans-72" d="M 2631 2963 
Q 2534 3019 2420 3045 
Q 2306 3072 2169 3072 
Q 1681 3072 1420 2755 
Q 1159 2438 1159 1844 
L 1159 0 
L 581 0 
L 581 3500 
L 1159 3500 
L 1159 2956 
Q 1341 3275 1631 3429 
Q 1922 3584 2338 3584 
Q 2397 3584 2469 3576 
Q 2541 3569 2628 3553 
L 2631 2963 
z
" transform="scale(0.015625)"/>
       <path id="DejaVuSans-Oblique-41" d="M 2356 4666 
L 3072 4666 
L 3938 0 
L 3278 0 
L 3084 1197 
L 984 1197 
L 325 0 
L -341 0 
L 2356 4666 
z
M 2584 4044 
L 1275 1722 
L 2988 1722 
L 2584 4044 
z
" transform="scale(0.015625)"/>
      </defs>
      <use xlink:href="#DejaVuSans-41" transform="translate(0 0.125)"/>
      <use xlink:href="#DejaVuSans-76" transform="translate(68.408203 0.125)"/>
      <use xlink:href="#DejaVuSans-65" transform="translate(127.587891 0.125)"/>
      <use xlink:href="#DejaVuSans-72" transform="translate(189.111328 0.125)"/>
      <use xlink:href="#DejaVuSans-73" transform="translate(230.224609 0.125)"/>
      <use xlink:href="#DejaVuSans-65" transform="translate(282.324219 0.125)"/>
      <use xlink:href="#DejaVuSans-20" transform="translate(343.847656 0.125)"/>
      <use xlink:href="#DejaVuSans-28" transform="translate(375.634766 0.125)"/>
      <use xlink:href="#DejaVuSans-Oblique-3c0" transform="translate(414.648438 0.125)"/>
      <use xlink:href="#DejaVuSans-Oblique-41" transform="translate(474.853516 -16.28125) scale(0.7)"/>
      <use xlink:href="#DejaVuSans-29" transform="translate(525.473633 0.125)"/>
     </g>
    </g>
   </g>
   <g id="line2d_15">
    <path d="M 52.151265 172.840783 
L 52.88908 174.536874 
L 53.626894 177.206255 
L 55.102522 186.952694 
L 55.840336 190.54825 
L 56.57815 192.640887 
L 57.315964 193.926509 
L 58.053778 194.677165 
L 58.791592 195.172415 
L 59.529406 195.433545 
L 61.005034 195.652665 
L 64.694104 195.958667 
L 66.907546 196.52741 
L 69.858803 197.290165 
L 71.334431 197.644914 
L 73.547873 197.924789 
L 76.499129 198.056953 
L 84.615084 198.090581 
L 199.714075 198.090646 
L 199.714075 198.090646 
" clip-path="url(#p59e637d65b)" style="fill: none; stroke: #7f00db; stroke-width: 1.5; stroke-linecap: square"/>
   </g>
   <g id="line2d_16">
    <path d="M 52.151265 172.840783 
L 52.88908 168.739554 
L 53.626894 165.596229 
L 55.840336 144.403874 
L 56.57815 140.084288 
L 57.315964 137.270799 
L 58.053778 135.084966 
L 58.791592 133.259573 
L 59.529406 131.807779 
L 61.742848 128.812651 
L 62.480662 127.711425 
L 63.218476 126.823259 
L 65.431918 125.019056 
L 66.169732 124.511665 
L 67.645361 123.904199 
L 69.858803 123.167622 
L 71.334431 122.794119 
L 73.547873 122.507806 
L 76.499129 122.374783 
L 84.615084 122.341123 
L 199.714075 122.341059 
L 199.714075 122.341059 
" clip-path="url(#p59e637d65b)" style="fill: none; stroke: #ff9a00; stroke-width: 1.5; stroke-linecap: square"/>
   </g>
   <g id="line2d_17">
    <path d="M 52.151265 172.840783 
L 52.88908 175.245922 
L 53.626894 175.719866 
L 54.364708 177.851481 
L 55.840336 183.570226 
L 56.57815 185.797175 
L 58.053778 188.76022 
L 59.529406 191.281026 
L 61.005034 192.927465 
L 62.480662 195.090745 
L 63.218476 195.946211 
L 64.694104 197.004557 
L 66.169732 197.662251 
L 67.645361 197.927826 
L 69.858803 198.064562 
L 77.974757 198.090638 
L 199.714075 198.090646 
L 199.714075 198.090646 
" clip-path="url(#p59e637d65b)" style="fill: none; stroke: #000000; stroke-width: 1.5; stroke-linecap: square"/>
   </g>
   <g id="patch_8">
    <path d="M 44.773125 201.878125 
L 44.773125 118.55358 
" style="fill: none; stroke: #000000; stroke-width: 0.8; stroke-linejoin: miter; stroke-linecap: square"/>
   </g>
   <g id="patch_9">
    <path d="M 207.092216 201.878125 
L 207.092216 118.55358 
" style="fill: none; stroke: #000000; stroke-width: 0.8; stroke-linejoin: miter; stroke-linecap: square"/>
   </g>
   <g id="patch_10">
    <path d="M 44.773125 201.878125 
L 207.092216 201.878125 
" style="fill: none; stroke: #000000; stroke-width: 0.8; stroke-linejoin: miter; stroke-linecap: square"/>
   </g>
   <g id="patch_11">
    <path d="M 44.773125 118.55358 
L 207.092216 118.55358 
" style="fill: none; stroke: #000000; stroke-width: 0.8; stroke-linejoin: miter; stroke-linecap: square"/>
   </g>
  </g>
 </g>
 <defs>
  <clipPath id="p41620e6854">
   <rect x="44.773125" y="22.318125" width="162.319091" height="83.324545"/>
  </clipPath>
  <clipPath id="p59e637d65b">
   <rect x="44.773125" y="118.55358" width="162.319091" height="83.324545"/>
  </clipPath>
 </defs>
</svg>
