<?xml version="1.0" encoding="utf-8" standalone="no"?>
<!DOCTYPE svg PUBLIC "-//W3C//DTD SVG 1.1//EN"
  "http://www.w3.org/Graphics/SVG/1.1/DTD/svg11.dtd">
<svg xmlns:xlink="http://www.w3.org/1999/xlink" width="178.8847pt" height="240.42625pt" viewBox="0 0 178.8847 240.42625" xmlns="http://www.w3.org/2000/svg" version="1.1">
 <metadata>
  <rdf:RDF xmlns:dc="http://purl.org/dc/elements/1.1/" xmlns:cc="http://creativecommons.org/ns#" xmlns:rdf="http://www.w3.org/1999/02/22-rdf-syntax-ns#">
   <cc:Work>
    <dc:type rdf:resource="http://purl.org/dc/dcmitype/StillImage"/>
    <dc:date>2025-01-29T10:40:12.442112</dc:date>
    <dc:format>image/svg+xml</dc:format>
    <dc:creator>
     <cc:Agent>
      <dc:title>Matplotlib v3.8.3, https://matplotlib.org/</dc:title>
     </cc:Agent>
    </dc:creator>
   </cc:Work>
  </rdf:RDF>
 </metadata>
 <defs>
  <style type="text/css">*{stroke-linejoin: round; stroke-linecap: butt}</style>
 </defs>
 <g id="figure_1">
  <g id="patch_1">
   <path d="M 0 240.42625 
L 178.8847 240.42625 
L 178.8847 0 
L 0 0 
z
" style="fill: #ffffff"/>
  </g>
  <g id="axes_1">
   <g id="patch_2">
    <path d="M 7.2 106.698125 
L 169.519091 106.698125 
L 169.519091 22.318125 
L 7.2 22.318125 
z
" style="fill: #ffffff"/>
   </g>
   <g id="PolyCollection_1">
    <defs>
     <path id="m7fe9c9a99b" d="M 14.57814 -163.133277 
L 14.57814 -163.133277 
L 15.315955 -154.915172 
L 16.053769 -151.580075 
L 16.791583 -148.278107 
L 17.529397 -144.784564 
L 18.267211 -143.158894 
L 19.005025 -142.492584 
L 19.742839 -141.487328 
L 20.480653 -140.87495 
L 21.218467 -140.54875 
L 21.956281 -140.994888 
L 22.694095 -141.330464 
L 23.431909 -141.885467 
L 24.169723 -142.961227 
L 24.907537 -143.951384 
L 25.645351 -144.847553 
L 26.383165 -145.538722 
L 27.120979 -146.036549 
L 27.858793 -146.473744 
L 28.596607 -146.856709 
L 29.334421 -147.086542 
L 30.072236 -147.226097 
L 30.81005 -147.360285 
L 31.547864 -147.59364 
L 32.285678 -147.857379 
L 33.023492 -148.200547 
L 33.761306 -148.720262 
L 34.49912 -149.553243 
L 35.236934 -150.827464 
L 35.974748 -152.321209 
L 36.712562 -154.246738 
L 37.450376 -156.090641 
L 38.18819 -157.778893 
L 38.926004 -159.102368 
L 39.663818 -160.41804 
L 40.401632 -161.907724 
L 41.139446 -163.352499 
L 41.87726 -164.941054 
L 42.615074 -166.308005 
L 43.352888 -167.400471 
L 44.090702 -168.194013 
L 44.828517 -168.722448 
L 45.566331 -169.093724 
L 46.304145 -169.418739 
L 47.041959 -169.732532 
L 47.779773 -170.05338 
L 48.517587 -170.418642 
L 49.255401 -170.824747 
L 49.993215 -171.303582 
L 50.731029 -171.917893 
L 51.468843 -172.595616 
L 52.206657 -173.358001 
L 52.944471 -174.314073 
L 53.682285 -175.372477 
L 54.420099 -176.464742 
L 55.157913 -177.622557 
L 55.895727 -178.97304 
L 56.633541 -180.311496 
L 57.371355 -181.453121 
L 58.109169 -182.715496 
L 58.846983 -183.888087 
L 59.584798 -185.098582 
L 60.322612 -186.441023 
L 61.060426 -187.948164 
L 61.79824 -189.534709 
L 62.536054 -191.404563 
L 63.273868 -193.460397 
L 64.011682 -195.568485 
L 64.749496 -197.797718 
L 65.48731 -200.190096 
L 66.225124 -202.303343 
L 66.962938 -204.249647 
L 67.700752 -205.954659 
L 68.438566 -207.608231 
L 69.17638 -208.965477 
L 69.914194 -210.032977 
L 70.652008 -210.967486 
L 71.389822 -211.715735 
L 72.127636 -212.299345 
L 72.86545 -212.792178 
L 73.603264 -213.152762 
L 74.341079 -213.42418 
L 75.078893 -213.631892 
L 75.816707 -213.793738 
L 76.554521 -213.921298 
L 77.292335 -214.013492 
L 78.030149 -214.084311 
L 78.767963 -214.137967 
L 79.505777 -214.178449 
L 80.243591 -214.207966 
L 80.981405 -214.229 
L 81.719219 -214.243367 
L 82.457033 -214.253271 
L 83.194847 -214.259363 
L 83.932661 -214.263196 
L 84.670475 -214.266041 
L 85.408289 -214.26799 
L 86.146103 -214.269381 
L 86.883917 -214.270361 
L 87.621731 -214.271085 
L 88.359545 -214.271602 
L 89.09736 -214.271946 
L 89.835174 -214.272178 
L 90.572988 -214.272335 
L 91.310802 -214.272442 
L 92.048616 -214.272515 
L 92.78643 -214.272564 
L 93.524244 -214.272597 
L 94.262058 -214.272619 
L 94.999872 -214.272635 
L 95.737686 -214.272645 
L 96.4755 -214.272653 
L 97.213314 -214.272658 
L 97.951128 -214.272661 
L 98.688942 -214.272664 
L 99.426756 -214.272666 
L 100.16457 -214.272667 
L 100.902384 -214.272668 
L 101.640198 -214.272668 
L 102.378012 -214.272669 
L 103.115826 -214.272669 
L 103.85364 -214.27267 
L 104.591455 -214.27267 
L 105.329269 -214.27267 
L 106.067083 -214.27267 
L 106.804897 -214.27267 
L 107.542711 -214.27267 
L 108.280525 -214.27267 
L 109.018339 -214.27267 
L 109.756153 -214.27267 
L 110.493967 -214.27267 
L 111.231781 -214.27267 
L 111.969595 -214.27267 
L 112.707409 -214.27267 
L 113.445223 -214.27267 
L 114.183037 -214.27267 
L 114.920851 -214.27267 
L 115.658665 -214.27267 
L 116.396479 -214.27267 
L 117.134293 -214.27267 
L 117.872107 -214.27267 
L 118.609921 -214.27267 
L 119.347736 -214.27267 
L 120.08555 -214.27267 
L 120.823364 -214.27267 
L 121.561178 -214.27267 
L 122.298992 -214.27267 
L 123.036806 -214.27267 
L 123.77462 -214.27267 
L 124.512434 -214.27267 
L 125.250248 -214.27267 
L 125.988062 -214.27267 
L 126.725876 -214.27267 
L 127.46369 -214.27267 
L 128.201504 -214.27267 
L 128.939318 -214.27267 
L 129.677132 -214.27267 
L 130.414946 -214.27267 
L 131.15276 -214.27267 
L 131.890574 -214.27267 
L 132.628388 -214.27267 
L 133.366202 -214.27267 
L 134.104017 -214.27267 
L 134.841831 -214.27267 
L 135.579645 -214.27267 
L 136.317459 -214.27267 
L 137.055273 -214.27267 
L 137.793087 -214.27267 
L 138.530901 -214.27267 
L 139.268715 -214.27267 
L 140.006529 -214.27267 
L 140.744343 -214.27267 
L 141.482157 -214.27267 
L 142.219971 -214.27267 
L 142.957785 -214.27267 
L 143.695599 -214.27267 
L 144.433413 -214.27267 
L 145.171227 -214.27267 
L 145.909041 -214.27267 
L 146.646855 -214.27267 
L 147.384669 -214.27267 
L 148.122483 -214.27267 
L 148.860298 -214.27267 
L 149.598112 -214.27267 
L 150.335926 -214.27267 
L 151.07374 -214.27267 
L 151.811554 -214.27267 
L 152.549368 -214.27267 
L 153.287182 -214.27267 
L 154.024996 -214.27267 
L 154.76281 -214.27267 
L 155.500624 -214.27267 
L 156.238438 -214.27267 
L 156.976252 -214.27267 
L 157.714066 -214.27267 
L 158.45188 -214.27267 
L 159.189694 -214.27267 
L 159.927508 -214.27267 
L 160.665322 -214.27267 
L 161.403136 -214.27267 
L 162.14095 -214.27267 
L 162.14095 -214.27267 
L 162.14095 -214.27267 
L 161.403136 -214.27267 
L 160.665322 -214.27267 
L 159.927508 -214.27267 
L 159.189694 -214.27267 
L 158.45188 -214.27267 
L 157.714066 -214.27267 
L 156.976252 -214.27267 
L 156.238438 -214.27267 
L 155.500624 -214.27267 
L 154.76281 -214.27267 
L 154.024996 -214.27267 
L 153.287182 -214.27267 
L 152.549368 -214.27267 
L 151.811554 -214.27267 
L 151.07374 -214.27267 
L 150.335926 -214.27267 
L 149.598112 -214.27267 
L 148.860298 -214.27267 
L 148.122483 -214.27267 
L 147.384669 -214.27267 
L 146.646855 -214.27267 
L 145.909041 -214.27267 
L 145.171227 -214.27267 
L 144.433413 -214.27267 
L 143.695599 -214.27267 
L 142.957785 -214.27267 
L 142.219971 -214.27267 
L 141.482157 -214.27267 
L 140.744343 -214.27267 
L 140.006529 -214.27267 
L 139.268715 -214.27267 
L 138.530901 -214.27267 
L 137.793087 -214.27267 
L 137.055273 -214.27267 
L 136.317459 -214.27267 
L 135.579645 -214.27267 
L 134.841831 -214.27267 
L 134.104017 -214.27267 
L 133.366202 -214.27267 
L 132.628388 -214.27267 
L 131.890574 -214.27267 
L 131.15276 -214.27267 
L 130.414946 -214.27267 
L 129.677132 -214.27267 
L 128.939318 -214.27267 
L 128.201504 -214.27267 
L 127.46369 -214.27267 
L 126.725876 -214.27267 
L 125.988062 -214.27267 
L 125.250248 -214.27267 
L 124.512434 -214.27267 
L 123.77462 -214.27267 
L 123.036806 -214.27267 
L 122.298992 -214.27267 
L 121.561178 -214.27267 
L 120.823364 -214.27267 
L 120.08555 -214.27267 
L 119.347736 -214.27267 
L 118.609921 -214.27267 
L 117.872107 -214.27267 
L 117.134293 -214.27267 
L 116.396479 -214.27267 
L 115.658665 -214.27267 
L 114.920851 -214.27267 
L 114.183037 -214.27267 
L 113.445223 -214.27267 
L 112.707409 -214.27267 
L 111.969595 -214.27267 
L 111.231781 -214.27267 
L 110.493967 -214.27267 
L 109.756153 -214.27267 
L 109.018339 -214.272671 
L 108.280525 -214.272671 
L 107.542711 -214.272671 
L 106.804897 -214.272671 
L 106.067083 -214.272671 
L 105.329269 -214.272671 
L 104.591455 -214.272671 
L 103.85364 -214.272671 
L 103.115826 -214.272671 
L 102.378012 -214.272671 
L 101.640198 -214.272671 
L 100.902384 -214.272672 
L 100.16457 -214.272672 
L 99.426756 -214.272673 
L 98.688942 -214.272674 
L 97.951128 -214.272675 
L 97.213314 -214.272677 
L 96.4755 -214.272679 
L 95.737686 -214.272683 
L 94.999872 -214.272688 
L 94.262058 -214.272696 
L 93.524244 -214.272707 
L 92.78643 -214.272723 
L 92.048616 -214.272748 
L 91.310802 -214.272784 
L 90.572988 -214.272837 
L 89.835174 -214.272915 
L 89.09736 -214.27303 
L 88.359545 -214.2732 
L 87.621731 -214.273457 
L 86.883917 -214.273816 
L 86.146103 -214.274302 
L 85.408289 -214.274991 
L 84.670475 -214.275957 
L 83.932661 -214.277365 
L 83.194847 -214.279261 
L 82.457033 -214.282277 
L 81.719219 -214.287185 
L 80.981405 -214.294303 
L 80.243591 -214.304721 
L 79.505777 -214.319337 
L 78.767963 -214.339369 
L 78.030149 -214.36591 
L 77.292335 -214.400895 
L 76.554521 -214.446426 
L 75.816707 -214.509377 
L 75.078893 -214.589132 
L 74.341079 -214.69131 
L 73.603264 -214.82438 
L 72.86545 -215.001075 
L 72.127636 -215.242238 
L 71.389822 -215.526269 
L 70.652008 -215.890121 
L 69.914194 -216.342985 
L 69.17638 -216.855948 
L 68.438566 -217.504709 
L 67.700752 -218.290723 
L 66.962938 -219.084898 
L 66.225124 -219.974593 
L 65.48731 -220.923541 
L 64.749496 -221.983587 
L 64.011682 -222.912475 
L 63.273868 -223.716299 
L 62.536054 -224.412272 
L 61.79824 -224.904215 
L 61.060426 -225.234707 
L 60.322612 -225.43099 
L 59.584798 -225.525013 
L 58.846983 -225.631051 
L 58.109169 -225.745702 
L 57.371355 -225.907908 
L 56.633541 -226.093779 
L 55.895727 -226.361199 
L 55.157913 -226.685555 
L 54.420099 -226.985039 
L 53.682285 -227.279923 
L 52.944471 -227.573815 
L 52.206657 -227.842127 
L 51.468843 -228.043236 
L 50.731029 -228.201029 
L 49.993215 -228.321854 
L 49.255401 -228.379622 
L 48.517587 -228.376277 
L 47.779773 -228.304978 
L 47.041959 -228.130241 
L 46.304145 -227.864579 
L 45.566331 -227.489994 
L 44.828517 -227.000901 
L 44.090702 -226.388007 
L 43.352888 -225.685997 
L 42.615074 -225.008133 
L 41.87726 -224.385988 
L 41.139446 -223.825989 
L 40.401632 -223.220837 
L 39.663818 -222.474663 
L 38.926004 -221.406147 
L 38.18819 -220.142725 
L 37.450376 -218.851996 
L 36.712562 -217.833932 
L 35.974748 -217.035319 
L 35.236934 -216.524346 
L 34.49912 -216.102541 
L 33.761306 -215.769974 
L 33.023492 -215.395284 
L 32.285678 -214.822296 
L 31.547864 -214.231678 
L 30.81005 -213.435727 
L 30.072236 -212.666467 
L 29.334421 -211.760029 
L 28.596607 -210.739355 
L 27.858793 -209.312076 
L 27.120979 -207.732742 
L 26.383165 -205.927836 
L 25.645351 -203.65318 
L 24.907537 -200.959057 
L 24.169723 -198.219084 
L 23.431909 -195.492884 
L 22.694095 -192.977058 
L 21.956281 -190.802803 
L 21.218467 -188.494541 
L 20.480653 -186.461157 
L 19.742839 -182.903639 
L 19.005025 -180.464593 
L 18.267211 -179.791255 
L 17.529397 -179.067071 
L 16.791583 -176.910203 
L 16.053769 -174.803821 
L 15.315955 -169.743876 
L 14.57814 -163.133277 
z
" style="stroke: #7f00db; stroke-opacity: 0.2"/>
    </defs>
    <g clip-path="url(#p06962a8989)">
     <use xlink:href="#m7fe9c9a99b" x="0" y="240.42625" style="fill: #7f00db; fill-opacity: 0.2; stroke: #7f00db; stroke-opacity: 0.2"/>
    </g>
   </g>
   <g id="PolyCollection_2">
    <defs>
     <path id="m7440981640" d="M 14.57814 -163.133277 
L 14.57814 -163.133277 
L 15.315955 -159.158603 
L 16.053769 -155.547743 
L 16.791583 -150.586229 
L 17.529397 -146.899705 
L 18.267211 -144.006185 
L 19.005025 -141.742555 
L 19.742839 -139.290369 
L 20.480653 -137.280008 
L 21.218467 -136.408122 
L 21.956281 -135.740321 
L 22.694095 -134.89517 
L 23.431909 -134.010763 
L 24.169723 -133.371833 
L 24.907537 -132.604913 
L 25.645351 -131.62668 
L 26.383165 -130.778502 
L 27.120979 -130.00334 
L 27.858793 -129.309142 
L 28.596607 -128.646944 
L 29.334421 -128.167763 
L 30.072236 -127.683797 
L 30.81005 -127.284447 
L 31.547864 -126.839806 
L 32.285678 -126.509589 
L 33.023492 -126.181361 
L 33.761306 -125.951211 
L 34.49912 -125.750502 
L 35.236934 -125.504941 
L 35.974748 -125.261042 
L 36.712562 -124.972882 
L 37.450376 -124.717246 
L 38.18819 -124.492848 
L 38.926004 -124.263369 
L 39.663818 -124.037784 
L 40.401632 -123.879264 
L 41.139446 -123.726116 
L 41.87726 -123.612712 
L 42.615074 -123.520636 
L 43.352888 -123.450894 
L 44.090702 -123.375493 
L 44.828517 -123.301581 
L 45.566331 -123.227575 
L 46.304145 -123.170789 
L 47.041959 -123.128123 
L 47.779773 -123.105632 
L 48.517587 -123.110311 
L 49.255401 -123.130071 
L 49.993215 -123.156891 
L 50.731029 -123.205477 
L 51.468843 -123.278591 
L 52.206657 -123.362824 
L 52.944471 -123.474247 
L 53.682285 -123.553825 
L 54.420099 -123.633153 
L 55.157913 -123.724534 
L 55.895727 -123.834592 
L 56.633541 -123.910326 
L 57.371355 -123.98305 
L 58.109169 -124.093221 
L 58.846983 -124.235222 
L 59.584798 -124.442913 
L 60.322612 -124.728967 
L 61.060426 -125.177245 
L 61.79824 -125.758126 
L 62.536054 -126.518045 
L 63.273868 -127.431369 
L 64.011682 -128.407473 
L 64.749496 -129.468078 
L 65.48731 -130.626461 
L 66.225124 -131.653609 
L 66.962938 -132.60433 
L 67.700752 -133.441376 
L 68.438566 -134.257457 
L 69.17638 -134.92834 
L 69.914194 -135.456685 
L 70.652008 -135.920214 
L 71.389822 -136.291681 
L 72.127636 -136.581472 
L 72.86545 -136.826514 
L 73.603264 -137.005862 
L 74.341079 -137.140885 
L 75.078893 -137.244295 
L 75.816707 -137.324903 
L 76.554521 -137.388453 
L 77.292335 -137.434392 
L 78.030149 -137.469682 
L 78.767963 -137.496428 
L 79.505777 -137.516608 
L 80.243591 -137.531324 
L 80.981405 -137.541811 
L 81.719219 -137.548975 
L 82.457033 -137.553913 
L 83.194847 -137.55695 
L 83.932661 -137.558859 
L 84.670475 -137.560277 
L 85.408289 -137.561248 
L 86.146103 -137.561941 
L 86.883917 -137.562429 
L 87.621731 -137.56279 
L 88.359545 -137.563048 
L 89.09736 -137.563219 
L 89.835174 -137.563334 
L 90.572988 -137.563413 
L 91.310802 -137.563466 
L 92.048616 -137.563502 
L 92.78643 -137.563526 
L 93.524244 -137.563543 
L 94.262058 -137.563554 
L 94.999872 -137.563562 
L 95.737686 -137.563567 
L 96.4755 -137.563571 
L 97.213314 -137.563573 
L 97.951128 -137.563575 
L 98.688942 -137.563576 
L 99.426756 -137.563577 
L 100.16457 -137.563578 
L 100.902384 -137.563578 
L 101.640198 -137.563579 
L 102.378012 -137.563579 
L 103.115826 -137.563579 
L 103.85364 -137.563579 
L 104.591455 -137.563579 
L 105.329269 -137.563579 
L 106.067083 -137.563579 
L 106.804897 -137.563579 
L 107.542711 -137.563579 
L 108.280525 -137.563579 
L 109.018339 -137.563579 
L 109.756153 -137.56358 
L 110.493967 -137.56358 
L 111.231781 -137.56358 
L 111.969595 -137.56358 
L 112.707409 -137.56358 
L 113.445223 -137.56358 
L 114.183037 -137.56358 
L 114.920851 -137.56358 
L 115.658665 -137.56358 
L 116.396479 -137.56358 
L 117.134293 -137.56358 
L 117.872107 -137.56358 
L 118.609921 -137.56358 
L 119.347736 -137.56358 
L 120.08555 -137.56358 
L 120.823364 -137.56358 
L 121.561178 -137.56358 
L 122.298992 -137.56358 
L 123.036806 -137.56358 
L 123.77462 -137.56358 
L 124.512434 -137.56358 
L 125.250248 -137.56358 
L 125.988062 -137.56358 
L 126.725876 -137.56358 
L 127.46369 -137.56358 
L 128.201504 -137.56358 
L 128.939318 -137.56358 
L 129.677132 -137.56358 
L 130.414946 -137.56358 
L 131.15276 -137.56358 
L 131.890574 -137.56358 
L 132.628388 -137.56358 
L 133.366202 -137.56358 
L 134.104017 -137.56358 
L 134.841831 -137.56358 
L 135.579645 -137.56358 
L 136.317459 -137.56358 
L 137.055273 -137.56358 
L 137.793087 -137.56358 
L 138.530901 -137.56358 
L 139.268715 -137.56358 
L 140.006529 -137.56358 
L 140.744343 -137.56358 
L 141.482157 -137.56358 
L 142.219971 -137.56358 
L 142.957785 -137.56358 
L 143.695599 -137.56358 
L 144.433413 -137.56358 
L 145.171227 -137.56358 
L 145.909041 -137.56358 
L 146.646855 -137.56358 
L 147.384669 -137.56358 
L 148.122483 -137.56358 
L 148.860298 -137.56358 
L 149.598112 -137.56358 
L 150.335926 -137.56358 
L 151.07374 -137.56358 
L 151.811554 -137.56358 
L 152.549368 -137.56358 
L 153.287182 -137.56358 
L 154.024996 -137.56358 
L 154.76281 -137.56358 
L 155.500624 -137.56358 
L 156.238438 -137.56358 
L 156.976252 -137.56358 
L 157.714066 -137.56358 
L 158.45188 -137.56358 
L 159.189694 -137.56358 
L 159.927508 -137.56358 
L 160.665322 -137.56358 
L 161.403136 -137.56358 
L 162.14095 -137.56358 
L 162.14095 -137.56358 
L 162.14095 -137.56358 
L 161.403136 -137.56358 
L 160.665322 -137.56358 
L 159.927508 -137.56358 
L 159.189694 -137.56358 
L 158.45188 -137.56358 
L 157.714066 -137.56358 
L 156.976252 -137.56358 
L 156.238438 -137.56358 
L 155.500624 -137.56358 
L 154.76281 -137.56358 
L 154.024996 -137.56358 
L 153.287182 -137.56358 
L 152.549368 -137.56358 
L 151.811554 -137.56358 
L 151.07374 -137.56358 
L 150.335926 -137.56358 
L 149.598112 -137.56358 
L 148.860298 -137.56358 
L 148.122483 -137.56358 
L 147.384669 -137.56358 
L 146.646855 -137.56358 
L 145.909041 -137.56358 
L 145.171227 -137.56358 
L 144.433413 -137.56358 
L 143.695599 -137.56358 
L 142.957785 -137.56358 
L 142.219971 -137.56358 
L 141.482157 -137.56358 
L 140.744343 -137.56358 
L 140.006529 -137.56358 
L 139.268715 -137.56358 
L 138.530901 -137.56358 
L 137.793087 -137.56358 
L 137.055273 -137.56358 
L 136.317459 -137.56358 
L 135.579645 -137.56358 
L 134.841831 -137.56358 
L 134.104017 -137.56358 
L 133.366202 -137.56358 
L 132.628388 -137.56358 
L 131.890574 -137.56358 
L 131.15276 -137.56358 
L 130.414946 -137.56358 
L 129.677132 -137.56358 
L 128.939318 -137.56358 
L 128.201504 -137.56358 
L 127.46369 -137.56358 
L 126.725876 -137.56358 
L 125.988062 -137.56358 
L 125.250248 -137.56358 
L 124.512434 -137.56358 
L 123.77462 -137.56358 
L 123.036806 -137.56358 
L 122.298992 -137.56358 
L 121.561178 -137.56358 
L 120.823364 -137.56358 
L 120.08555 -137.56358 
L 119.347736 -137.56358 
L 118.609921 -137.56358 
L 117.872107 -137.56358 
L 117.134293 -137.56358 
L 116.396479 -137.56358 
L 115.658665 -137.56358 
L 114.920851 -137.56358 
L 114.183037 -137.56358 
L 113.445223 -137.56358 
L 112.707409 -137.56358 
L 111.969595 -137.56358 
L 111.231781 -137.56358 
L 110.493967 -137.56358 
L 109.756153 -137.56358 
L 109.018339 -137.56358 
L 108.280525 -137.56358 
L 107.542711 -137.56358 
L 106.804897 -137.56358 
L 106.067083 -137.56358 
L 105.329269 -137.56358 
L 104.591455 -137.56358 
L 103.85364 -137.56358 
L 103.115826 -137.563581 
L 102.378012 -137.563581 
L 101.640198 -137.563582 
L 100.902384 -137.563582 
L 100.16457 -137.563583 
L 99.426756 -137.563584 
L 98.688942 -137.563586 
L 97.951128 -137.563588 
L 97.213314 -137.563592 
L 96.4755 -137.563597 
L 95.737686 -137.563604 
L 94.999872 -137.563615 
L 94.262058 -137.56363 
L 93.524244 -137.563653 
L 92.78643 -137.563686 
L 92.048616 -137.563735 
L 91.310802 -137.563807 
L 90.572988 -137.563913 
L 89.835174 -137.56407 
L 89.09736 -137.564301 
L 88.359545 -137.564644 
L 87.621731 -137.565159 
L 86.883917 -137.565881 
L 86.146103 -137.566857 
L 85.408289 -137.568243 
L 84.670475 -137.570185 
L 83.932661 -137.57302 
L 83.194847 -137.576839 
L 82.457033 -137.582912 
L 81.719219 -137.592789 
L 80.981405 -137.607117 
L 80.243591 -137.628092 
L 79.505777 -137.657524 
L 78.767963 -137.697884 
L 78.030149 -137.751377 
L 77.292335 -137.821956 
L 76.554521 -137.913834 
L 75.816707 -138.040935 
L 75.078893 -138.202151 
L 74.341079 -138.408973 
L 73.603264 -138.67902 
L 72.86545 -139.037718 
L 72.127636 -139.527805 
L 71.389822 -140.107392 
L 70.652008 -140.850331 
L 69.914194 -141.777396 
L 69.17638 -142.834099 
L 68.438566 -144.175882 
L 67.700752 -145.808066 
L 66.962938 -147.482194 
L 66.225124 -149.383681 
L 65.48731 -151.438043 
L 64.749496 -153.754899 
L 64.011682 -155.876232 
L 63.273868 -157.828613 
L 62.536054 -159.65551 
L 61.79824 -161.175671 
L 61.060426 -162.337881 
L 60.322612 -163.234966 
L 59.584798 -163.807653 
L 58.846983 -164.223783 
L 58.109169 -164.508773 
L 57.371355 -164.73042 
L 56.633541 -164.877611 
L 55.895727 -165.031419 
L 55.157913 -165.254686 
L 54.420099 -165.441715 
L 53.682285 -165.606145 
L 52.944471 -165.773064 
L 52.206657 -166.006832 
L 51.468843 -166.190296 
L 50.731029 -166.357112 
L 49.993215 -166.483281 
L 49.255401 -166.576042 
L 48.517587 -166.671042 
L 47.779773 -166.763726 
L 47.041959 -166.824297 
L 46.304145 -166.881705 
L 45.566331 -166.932349 
L 44.828517 -166.965213 
L 44.090702 -167.017062 
L 43.352888 -167.131175 
L 42.615074 -167.321207 
L 41.87726 -167.499491 
L 41.139446 -167.639473 
L 40.401632 -167.816342 
L 39.663818 -167.986574 
L 38.926004 -168.185789 
L 38.18819 -168.379742 
L 37.450376 -168.572016 
L 36.712562 -168.78616 
L 35.974748 -169.036476 
L 35.236934 -169.260304 
L 34.49912 -169.479108 
L 33.761306 -169.642641 
L 33.023492 -169.802558 
L 32.285678 -170.046717 
L 31.547864 -170.293305 
L 30.81005 -170.640421 
L 30.072236 -170.961991 
L 29.334421 -171.298667 
L 28.596607 -171.750242 
L 27.858793 -172.41601 
L 27.120979 -173.122598 
L 26.383165 -173.973408 
L 25.645351 -175.038847 
L 24.907537 -176.659831 
L 24.169723 -178.78633 
L 23.431909 -180.935487 
L 22.694095 -182.469271 
L 21.956281 -183.308418 
L 21.218467 -184.014789 
L 20.480653 -183.6364 
L 19.742839 -183.58829 
L 19.005025 -182.743065 
L 18.267211 -181.859738 
L 17.529397 -178.814327 
L 16.791583 -175.338661 
L 16.053769 -169.359982 
L 15.315955 -165.925165 
L 14.57814 -163.133277 
z
" style="stroke: #ff9a00; stroke-opacity: 0.2"/>
    </defs>
    <g clip-path="url(#p06962a8989)">
     <use xlink:href="#m7440981640" x="0" y="240.42625" style="fill: #ff9a00; fill-opacity: 0.2; stroke: #ff9a00; stroke-opacity: 0.2"/>
    </g>
   </g>
   <g id="PolyCollection_3">
    <defs>
     <path id="mb8eac3829a" d="M 14.57814 -163.133277 
L 14.57814 -163.133277 
L 15.315955 -155.057565 
L 16.053769 -149.929516 
L 16.791583 -145.044073 
L 17.529397 -141.799144 
L 18.267211 -139.203901 
L 19.005025 -137.584161 
L 19.742839 -135.820799 
L 20.480653 -134.148212 
L 21.218467 -132.937158 
L 21.956281 -131.946964 
L 22.694095 -131.274099 
L 23.431909 -130.765044 
L 24.169723 -130.214695 
L 24.907537 -129.704104 
L 25.645351 -129.098977 
L 26.383165 -128.403888 
L 27.120979 -127.923583 
L 27.858793 -127.500351 
L 28.596607 -127.164394 
L 29.334421 -126.920323 
L 30.072236 -126.734022 
L 30.81005 -126.598284 
L 31.547864 -126.515608 
L 32.285678 -126.462265 
L 33.023492 -126.435827 
L 33.761306 -126.479459 
L 34.49912 -126.588174 
L 35.236934 -126.765171 
L 35.974748 -126.911202 
L 36.712562 -126.950918 
L 37.450376 -126.748554 
L 38.18819 -126.23734 
L 38.926004 -125.672768 
L 39.663818 -125.278136 
L 40.401632 -125.154984 
L 41.139446 -125.160053 
L 41.87726 -125.2201 
L 42.615074 -125.155019 
L 43.352888 -124.933795 
L 44.090702 -124.575699 
L 44.828517 -124.196561 
L 45.566331 -123.878745 
L 46.304145 -123.6439 
L 47.041959 -123.496503 
L 47.779773 -123.421797 
L 48.517587 -123.445732 
L 49.255401 -123.542887 
L 49.993215 -123.719456 
L 50.731029 -123.991654 
L 51.468843 -124.306402 
L 52.206657 -124.692432 
L 52.944471 -125.202868 
L 53.682285 -125.838447 
L 54.420099 -126.519874 
L 55.157913 -127.262801 
L 55.895727 -128.162968 
L 56.633541 -129.145071 
L 57.371355 -130.017176 
L 58.109169 -130.999714 
L 58.846983 -131.910283 
L 59.584798 -132.801995 
L 60.322612 -133.76106 
L 61.060426 -134.6203 
L 61.79824 -135.293178 
L 62.536054 -135.909366 
L 63.273868 -136.353328 
L 64.011682 -136.679602 
L 64.749496 -136.916631 
L 65.48731 -137.087345 
L 66.225124 -137.221036 
L 66.962938 -137.323667 
L 67.700752 -137.394744 
L 68.438566 -137.443979 
L 69.17638 -137.479933 
L 69.914194 -137.504845 
L 70.652008 -137.522013 
L 71.389822 -137.534237 
L 72.127636 -137.543472 
L 72.86545 -137.549683 
L 73.603264 -137.553929 
L 74.341079 -137.557045 
L 75.078893 -137.559016 
L 75.816707 -137.560382 
L 76.554521 -137.561348 
L 77.292335 -137.562006 
L 78.030149 -137.562499 
L 78.767963 -137.562832 
L 79.505777 -137.563072 
L 80.243591 -137.563236 
L 80.981405 -137.56335 
L 81.719219 -137.563425 
L 82.457033 -137.563476 
L 83.194847 -137.56351 
L 83.932661 -137.563533 
L 84.670475 -137.563548 
L 85.408289 -137.563558 
L 86.146103 -137.563565 
L 86.883917 -137.56357 
L 87.621731 -137.563573 
L 88.359545 -137.563575 
L 89.09736 -137.563576 
L 89.835174 -137.563577 
L 90.572988 -137.563578 
L 91.310802 -137.563579 
L 92.048616 -137.563579 
L 92.78643 -137.563579 
L 93.524244 -137.563579 
L 94.262058 -137.563579 
L 94.999872 -137.563579 
L 95.737686 -137.563579 
L 96.4755 -137.563579 
L 97.213314 -137.56358 
L 97.951128 -137.56358 
L 98.688942 -137.56358 
L 99.426756 -137.56358 
L 100.16457 -137.56358 
L 100.902384 -137.56358 
L 101.640198 -137.56358 
L 102.378012 -137.56358 
L 103.115826 -137.56358 
L 103.85364 -137.56358 
L 104.591455 -137.56358 
L 105.329269 -137.56358 
L 106.067083 -137.56358 
L 106.804897 -137.56358 
L 107.542711 -137.56358 
L 108.280525 -137.56358 
L 109.018339 -137.56358 
L 109.756153 -137.56358 
L 110.493967 -137.56358 
L 111.231781 -137.56358 
L 111.969595 -137.56358 
L 112.707409 -137.56358 
L 113.445223 -137.56358 
L 114.183037 -137.56358 
L 114.920851 -137.56358 
L 115.658665 -137.56358 
L 116.396479 -137.56358 
L 117.134293 -137.56358 
L 117.872107 -137.56358 
L 118.609921 -137.56358 
L 119.347736 -137.56358 
L 120.08555 -137.56358 
L 120.823364 -137.56358 
L 121.561178 -137.56358 
L 122.298992 -137.56358 
L 123.036806 -137.56358 
L 123.77462 -137.56358 
L 124.512434 -137.56358 
L 125.250248 -137.56358 
L 125.988062 -137.56358 
L 126.725876 -137.56358 
L 127.46369 -137.56358 
L 128.201504 -137.56358 
L 128.939318 -137.56358 
L 129.677132 -137.56358 
L 130.414946 -137.56358 
L 131.15276 -137.56358 
L 131.890574 -137.56358 
L 132.628388 -137.56358 
L 133.366202 -137.56358 
L 134.104017 -137.56358 
L 134.841831 -137.56358 
L 135.579645 -137.56358 
L 136.317459 -137.56358 
L 137.055273 -137.56358 
L 137.793087 -137.56358 
L 138.530901 -137.56358 
L 139.268715 -137.56358 
L 140.006529 -137.56358 
L 140.744343 -137.56358 
L 141.482157 -137.56358 
L 142.219971 -137.56358 
L 142.957785 -137.56358 
L 143.695599 -137.56358 
L 144.433413 -137.56358 
L 145.171227 -137.56358 
L 145.909041 -137.56358 
L 146.646855 -137.56358 
L 147.384669 -137.56358 
L 148.122483 -137.56358 
L 148.860298 -137.56358 
L 149.598112 -137.56358 
L 150.335926 -137.56358 
L 151.07374 -137.56358 
L 151.811554 -137.56358 
L 152.549368 -137.56358 
L 153.287182 -137.56358 
L 154.024996 -137.56358 
L 154.76281 -137.56358 
L 155.500624 -137.56358 
L 156.238438 -137.56358 
L 156.976252 -137.56358 
L 157.714066 -137.56358 
L 158.45188 -137.56358 
L 159.189694 -137.56358 
L 159.927508 -137.56358 
L 160.665322 -137.56358 
L 161.403136 -137.56358 
L 162.14095 -137.56358 
L 162.14095 -137.56358 
L 162.14095 -137.56358 
L 161.403136 -137.56358 
L 160.665322 -137.56358 
L 159.927508 -137.56358 
L 159.189694 -137.56358 
L 158.45188 -137.56358 
L 157.714066 -137.56358 
L 156.976252 -137.56358 
L 156.238438 -137.56358 
L 155.500624 -137.56358 
L 154.76281 -137.56358 
L 154.024996 -137.56358 
L 153.287182 -137.56358 
L 152.549368 -137.56358 
L 151.811554 -137.56358 
L 151.07374 -137.56358 
L 150.335926 -137.56358 
L 149.598112 -137.56358 
L 148.860298 -137.56358 
L 148.122483 -137.56358 
L 147.384669 -137.56358 
L 146.646855 -137.56358 
L 145.909041 -137.56358 
L 145.171227 -137.56358 
L 144.433413 -137.56358 
L 143.695599 -137.56358 
L 142.957785 -137.56358 
L 142.219971 -137.56358 
L 141.482157 -137.56358 
L 140.744343 -137.56358 
L 140.006529 -137.56358 
L 139.268715 -137.56358 
L 138.530901 -137.56358 
L 137.793087 -137.56358 
L 137.055273 -137.56358 
L 136.317459 -137.56358 
L 135.579645 -137.56358 
L 134.841831 -137.56358 
L 134.104017 -137.56358 
L 133.366202 -137.56358 
L 132.628388 -137.56358 
L 131.890574 -137.56358 
L 131.15276 -137.56358 
L 130.414946 -137.56358 
L 129.677132 -137.56358 
L 128.939318 -137.56358 
L 128.201504 -137.56358 
L 127.46369 -137.56358 
L 126.725876 -137.56358 
L 125.988062 -137.56358 
L 125.250248 -137.56358 
L 124.512434 -137.56358 
L 123.77462 -137.56358 
L 123.036806 -137.56358 
L 122.298992 -137.56358 
L 121.561178 -137.56358 
L 120.823364 -137.56358 
L 120.08555 -137.56358 
L 119.347736 -137.56358 
L 118.609921 -137.56358 
L 117.872107 -137.56358 
L 117.134293 -137.56358 
L 116.396479 -137.56358 
L 115.658665 -137.56358 
L 114.920851 -137.56358 
L 114.183037 -137.56358 
L 113.445223 -137.56358 
L 112.707409 -137.56358 
L 111.969595 -137.56358 
L 111.231781 -137.56358 
L 110.493967 -137.56358 
L 109.756153 -137.56358 
L 109.018339 -137.56358 
L 108.280525 -137.56358 
L 107.542711 -137.56358 
L 106.804897 -137.56358 
L 106.067083 -137.56358 
L 105.329269 -137.56358 
L 104.591455 -137.56358 
L 103.85364 -137.56358 
L 103.115826 -137.56358 
L 102.378012 -137.56358 
L 101.640198 -137.56358 
L 100.902384 -137.56358 
L 100.16457 -137.56358 
L 99.426756 -137.56358 
L 98.688942 -137.56358 
L 97.951128 -137.56358 
L 97.213314 -137.56358 
L 96.4755 -137.56358 
L 95.737686 -137.56358 
L 94.999872 -137.56358 
L 94.262058 -137.56358 
L 93.524244 -137.56358 
L 92.78643 -137.563581 
L 92.048616 -137.563581 
L 91.310802 -137.563582 
L 90.572988 -137.563583 
L 89.835174 -137.563585 
L 89.09736 -137.563587 
L 88.359545 -137.563591 
L 87.621731 -137.563596 
L 86.883917 -137.563603 
L 86.146103 -137.563613 
L 85.408289 -137.563629 
L 84.670475 -137.563652 
L 83.932661 -137.563686 
L 83.194847 -137.563735 
L 82.457033 -137.563809 
L 81.719219 -137.563919 
L 80.981405 -137.564079 
L 80.243591 -137.564321 
L 79.505777 -137.56467 
L 78.767963 -137.565179 
L 78.030149 -137.565881 
L 77.292335 -137.566918 
L 76.554521 -137.5683 
L 75.816707 -137.570324 
L 75.078893 -137.573173 
L 74.341079 -137.577266 
L 73.603264 -137.583706 
L 72.86545 -137.592491 
L 72.127636 -137.605328 
L 71.389822 -137.624346 
L 70.652008 -137.649495 
L 69.914194 -137.684771 
L 69.17638 -137.735863 
L 68.438566 -137.8094 
L 67.700752 -137.910091 
L 66.962938 -138.054923 
L 66.225124 -138.263397 
L 65.48731 -138.534173 
L 64.749496 -138.878746 
L 64.011682 -139.355392 
L 63.273868 -140.009653 
L 62.536054 -140.899904 
L 61.79824 -142.13376 
L 61.060426 -143.481361 
L 60.322612 -145.202653 
L 59.584798 -147.123504 
L 58.846983 -148.911233 
L 58.109169 -150.736753 
L 57.371355 -152.707983 
L 56.633541 -154.461376 
L 55.895727 -156.436441 
L 55.157913 -158.249526 
L 54.420099 -159.755137 
L 53.682285 -161.148843 
L 52.944471 -162.461591 
L 52.206657 -163.537442 
L 51.468843 -164.385518 
L 50.731029 -165.126494 
L 49.993215 -165.814595 
L 49.255401 -166.346288 
L 48.517587 -166.777654 
L 47.779773 -167.150146 
L 47.041959 -167.487964 
L 46.304145 -167.819947 
L 45.566331 -168.177271 
L 44.828517 -168.612955 
L 44.090702 -169.249385 
L 43.352888 -170.197327 
L 42.615074 -171.48666 
L 41.87726 -173.140314 
L 41.139446 -175.09553 
L 40.401632 -176.820508 
L 39.663818 -178.604461 
L 38.926004 -180.169218 
L 38.18819 -181.76811 
L 37.450376 -183.819207 
L 36.712562 -186.00903 
L 35.974748 -188.234411 
L 35.236934 -189.917434 
L 34.49912 -191.32609 
L 33.761306 -192.236112 
L 33.023492 -192.784081 
L 32.285678 -193.101414 
L 31.547864 -193.325622 
L 30.81005 -193.480496 
L 30.072236 -193.527285 
L 29.334421 -193.566335 
L 28.596607 -193.642015 
L 27.858793 -193.788336 
L 27.120979 -193.980847 
L 26.383165 -194.177303 
L 25.645351 -194.534423 
L 24.907537 -194.92037 
L 24.169723 -195.246489 
L 23.431909 -195.710013 
L 22.694095 -195.853597 
L 21.956281 -196.006265 
L 21.218467 -196.396299 
L 20.480653 -196.398932 
L 19.742839 -195.709234 
L 19.005025 -193.772702 
L 18.267211 -190.779686 
L 17.529397 -187.434848 
L 16.791583 -182.642387 
L 16.053769 -177.578523 
L 15.315955 -173.999279 
L 14.57814 -163.133277 
z
" style="stroke: #000000; stroke-opacity: 0.2"/>
    </defs>
    <g clip-path="url(#p06962a8989)">
     <use xlink:href="#mb8eac3829a" x="0" y="240.42625" style="fill-opacity: 0.2; stroke: #000000; stroke-opacity: 0.2"/>
    </g>
   </g>
   <g id="matplotlib.axis_1"/>
   <g id="matplotlib.axis_2"/>
   <g id="line2d_1">
    <path d="M 14.57814 77.292973 
L 15.315955 78.096726 
L 16.053769 77.234302 
L 18.267211 78.951176 
L 19.005025 78.947662 
L 19.742839 78.230766 
L 20.480653 76.758197 
L 21.218467 75.904605 
L 23.431909 71.737074 
L 25.645351 66.175883 
L 26.383165 64.692971 
L 27.858793 62.53334 
L 28.596607 61.628218 
L 30.072236 60.479968 
L 33.761306 58.181132 
L 34.49912 57.598358 
L 35.974748 55.747986 
L 39.663818 48.979898 
L 41.87726 45.762729 
L 43.352888 43.883016 
L 44.090702 43.13524 
L 44.828517 42.564576 
L 46.304145 41.784591 
L 48.517587 41.028791 
L 51.468843 40.106824 
L 52.944471 39.482306 
L 55.157913 38.272194 
L 59.584798 35.114453 
L 62.536054 32.517833 
L 65.48731 29.869431 
L 66.962938 28.758978 
L 69.17638 27.515538 
L 70.652008 26.997447 
L 72.86545 26.529624 
L 75.078893 26.315738 
L 79.505777 26.177357 
L 92.78643 26.153606 
L 162.14095 26.15358 
L 162.14095 26.15358 
" clip-path="url(#p06962a8989)" style="fill: none; stroke: #7f00db; stroke-width: 1.5; stroke-linecap: square"/>
   </g>
   <g id="line2d_2">
    <path d="M 14.57814 77.292973 
L 15.315955 77.884366 
L 16.053769 77.972388 
L 16.791583 77.463805 
L 17.529397 77.569234 
L 18.267211 77.493288 
L 19.742839 78.986921 
L 20.480653 79.968046 
L 21.218467 80.214794 
L 21.956281 80.90188 
L 22.694095 81.74403 
L 24.169723 84.347168 
L 25.645351 87.093487 
L 27.120979 88.863281 
L 28.596607 90.227657 
L 30.072236 91.103356 
L 33.023492 92.43429 
L 35.974748 93.277491 
L 38.18819 93.989955 
L 41.139446 94.743456 
L 44.828517 95.292853 
L 55.895727 95.993245 
L 58.846983 96.196747 
L 60.322612 96.444283 
L 61.79824 96.959352 
L 63.273868 97.796259 
L 64.749496 98.814761 
L 66.225124 99.907605 
L 68.438566 101.209581 
L 69.914194 101.809209 
L 71.389822 102.226714 
L 73.603264 102.583809 
L 76.554521 102.775106 
L 82.457033 102.857837 
L 138.530901 102.86267 
L 162.14095 102.86267 
L 162.14095 102.86267 
" clip-path="url(#p06962a8989)" style="fill: none; stroke: #ff9a00; stroke-width: 1.5; stroke-linecap: square"/>
   </g>
   <g id="line2d_3">
    <path d="M 14.57814 77.292973 
L 15.315955 75.897828 
L 16.053769 76.672231 
L 16.791583 76.58302 
L 17.529397 75.809254 
L 18.267211 75.434456 
L 19.005025 74.747819 
L 19.742839 74.661234 
L 21.218467 75.759521 
L 21.956281 76.449635 
L 25.645351 78.60955 
L 26.383165 79.135654 
L 27.858793 79.781907 
L 29.334421 80.182921 
L 33.023492 80.816296 
L 33.761306 81.068465 
L 34.49912 81.469118 
L 35.236934 82.084947 
L 35.974748 82.853443 
L 37.450376 85.14237 
L 38.926004 87.505257 
L 41.87726 91.246043 
L 43.352888 92.860689 
L 44.828517 94.021492 
L 46.304145 94.694327 
L 48.517587 95.314557 
L 51.468843 96.08029 
L 52.944471 96.59402 
L 55.157913 97.670086 
L 61.79824 101.712781 
L 63.273868 102.24476 
L 64.749496 102.528562 
L 67.700752 102.773833 
L 72.86545 102.855163 
L 111.231781 102.86267 
L 162.14095 102.86267 
L 162.14095 102.86267 
" clip-path="url(#p06962a8989)" style="fill: none; stroke: #000000; stroke-width: 1.5; stroke-linecap: square"/>
   </g>
   <g id="patch_3">
    <path d="M 7.2 106.698125 
L 7.2 22.318125 
" style="fill: none; stroke: #000000; stroke-width: 0.8; stroke-linejoin: miter; stroke-linecap: square"/>
   </g>
   <g id="patch_4">
    <path d="M 169.519091 106.698125 
L 169.519091 22.318125 
" style="fill: none; stroke: #000000; stroke-width: 0.8; stroke-linejoin: miter; stroke-linecap: square"/>
   </g>
   <g id="patch_5">
    <path d="M 7.2 106.698125 
L 169.519091 106.698125 
" style="fill: none; stroke: #000000; stroke-width: 0.8; stroke-linejoin: miter; stroke-linecap: square"/>
   </g>
   <g id="patch_6">
    <path d="M 7.2 22.318125 
L 169.519091 22.318125 
" style="fill: none; stroke: #000000; stroke-width: 0.8; stroke-linejoin: miter; stroke-linecap: square"/>
   </g>
   <g id="text_1">
    <!-- RMP -->
    <g transform="translate(75.395795 16.318125) scale(0.12 -0.12)">
     <defs>
      <path id="DejaVuSans-52" d="M 2841 2188 
Q 3044 2119 3236 1894 
Q 3428 1669 3622 1275 
L 4263 0 
L 3584 0 
L 2988 1197 
Q 2756 1666 2539 1819 
Q 2322 1972 1947 1972 
L 1259 1972 
L 1259 0 
L 628 0 
L 628 4666 
L 2053 4666 
Q 2853 4666 3247 4331 
Q 3641 3997 3641 3322 
Q 3641 2881 3436 2590 
Q 3231 2300 2841 2188 
z
M 1259 4147 
L 1259 2491 
L 2053 2491 
Q 2509 2491 2742 2702 
Q 2975 2913 2975 3322 
Q 2975 3731 2742 3939 
Q 2509 4147 2053 4147 
L 1259 4147 
z
" transform="scale(0.015625)"/>
      <path id="DejaVuSans-4d" d="M 628 4666 
L 1569 4666 
L 2759 1491 
L 3956 4666 
L 4897 4666 
L 4897 0 
L 4281 0 
L 4281 4097 
L 3078 897 
L 2444 897 
L 1241 4097 
L 1241 0 
L 628 0 
L 628 4666 
z
" transform="scale(0.015625)"/>
      <path id="DejaVuSans-50" d="M 1259 4147 
L 1259 2394 
L 2053 2394 
Q 2494 2394 2734 2622 
Q 2975 2850 2975 3272 
Q 2975 3691 2734 3919 
Q 2494 4147 2053 4147 
L 1259 4147 
z
M 628 4666 
L 2053 4666 
Q 2838 4666 3239 4311 
Q 3641 3956 3641 3272 
Q 3641 2581 3239 2228 
Q 2838 1875 2053 1875 
L 1259 1875 
L 1259 0 
L 628 0 
L 628 4666 
z
" transform="scale(0.015625)"/>
     </defs>
     <use xlink:href="#DejaVuSans-52"/>
     <use xlink:href="#DejaVuSans-4d" x="69.482422"/>
     <use xlink:href="#DejaVuSans-50" x="155.761719"/>
    </g>
   </g>
  </g>
  <g id="axes_2">
   <g id="patch_7">
    <path d="M 7.2 201.878125 
L 169.519091 201.878125 
L 169.519091 117.498125 
L 7.2 117.498125 
z
" style="fill: #ffffff"/>
   </g>
   <g id="PolyCollection_4">
    <defs>
     <path id="maef6f22a3d" d="M 14.57814 -67.953277 
L 14.57814 -67.953277 
L 15.315955 -63.127308 
L 16.053769 -61.21602 
L 16.791583 -59.315489 
L 17.529397 -57.18811 
L 18.267211 -54.85831 
L 19.005025 -52.775255 
L 19.742839 -50.980351 
L 20.480653 -48.761938 
L 21.218467 -46.698799 
L 21.956281 -44.743459 
L 22.694095 -42.809059 
L 23.431909 -41.179697 
L 24.169723 -39.560102 
L 24.907537 -38.047604 
L 25.645351 -36.973237 
L 26.383165 -36.067503 
L 27.120979 -35.376045 
L 27.858793 -34.796726 
L 28.596607 -34.35305 
L 29.334421 -33.877718 
L 30.072236 -33.389022 
L 30.81005 -32.91773 
L 31.547864 -32.437492 
L 32.285678 -31.986742 
L 33.023492 -31.695796 
L 33.761306 -31.480933 
L 34.49912 -31.474151 
L 35.236934 -31.636237 
L 35.974748 -31.860784 
L 36.712562 -32.317848 
L 37.450376 -32.771303 
L 38.18819 -33.410636 
L 38.926004 -34.161991 
L 39.663818 -35.24088 
L 40.401632 -36.278104 
L 41.139446 -37.489759 
L 41.87726 -38.692041 
L 42.615074 -39.757785 
L 43.352888 -40.601047 
L 44.090702 -41.211457 
L 44.828517 -41.617308 
L 45.566331 -41.886986 
L 46.304145 -42.063878 
L 47.041959 -42.175642 
L 47.779773 -42.246994 
L 48.517587 -42.294923 
L 49.255401 -42.326095 
L 49.993215 -42.347448 
L 50.731029 -42.361299 
L 51.468843 -42.3694 
L 52.206657 -42.374406 
L 52.944471 -42.37746 
L 53.682285 -42.379435 
L 54.420099 -42.380884 
L 55.157913 -42.381853 
L 55.895727 -42.382461 
L 56.633541 -42.382845 
L 57.371355 -42.383106 
L 58.109169 -42.383266 
L 58.846983 -42.383368 
L 59.584798 -42.383432 
L 60.322612 -42.383472 
L 61.060426 -42.383503 
L 61.79824 -42.383525 
L 62.536054 -42.383541 
L 63.273868 -42.383553 
L 64.011682 -42.383562 
L 64.749496 -42.383568 
L 65.48731 -42.383572 
L 66.225124 -42.383574 
L 66.962938 -42.383576 
L 67.700752 -42.383577 
L 68.438566 -42.383578 
L 69.17638 -42.383579 
L 69.914194 -42.383579 
L 70.652008 -42.383579 
L 71.389822 -42.383579 
L 72.127636 -42.383579 
L 72.86545 -42.383579 
L 73.603264 -42.383579 
L 74.341079 -42.383579 
L 75.078893 -42.38358 
L 75.816707 -42.38358 
L 76.554521 -42.38358 
L 77.292335 -42.38358 
L 78.030149 -42.38358 
L 78.767963 -42.38358 
L 79.505777 -42.38358 
L 80.243591 -42.38358 
L 80.981405 -42.38358 
L 81.719219 -42.38358 
L 82.457033 -42.38358 
L 83.194847 -42.38358 
L 83.932661 -42.38358 
L 84.670475 -42.38358 
L 85.408289 -42.38358 
L 86.146103 -42.38358 
L 86.883917 -42.38358 
L 87.621731 -42.38358 
L 88.359545 -42.38358 
L 89.09736 -42.38358 
L 89.835174 -42.38358 
L 90.572988 -42.38358 
L 91.310802 -42.38358 
L 92.048616 -42.38358 
L 92.78643 -42.38358 
L 93.524244 -42.38358 
L 94.262058 -42.38358 
L 94.999872 -42.38358 
L 95.737686 -42.38358 
L 96.4755 -42.38358 
L 97.213314 -42.38358 
L 97.951128 -42.38358 
L 98.688942 -42.38358 
L 99.426756 -42.38358 
L 100.16457 -42.38358 
L 100.902384 -42.38358 
L 101.640198 -42.38358 
L 102.378012 -42.38358 
L 103.115826 -42.38358 
L 103.85364 -42.38358 
L 104.591455 -42.38358 
L 105.329269 -42.38358 
L 106.067083 -42.38358 
L 106.804897 -42.38358 
L 107.542711 -42.38358 
L 108.280525 -42.38358 
L 109.018339 -42.38358 
L 109.756153 -42.38358 
L 110.493967 -42.38358 
L 111.231781 -42.38358 
L 111.969595 -42.38358 
L 112.707409 -42.38358 
L 113.445223 -42.38358 
L 114.183037 -42.38358 
L 114.920851 -42.38358 
L 115.658665 -42.38358 
L 116.396479 -42.38358 
L 117.134293 -42.38358 
L 117.872107 -42.38358 
L 118.609921 -42.38358 
L 119.347736 -42.38358 
L 120.08555 -42.38358 
L 120.823364 -42.38358 
L 121.561178 -42.38358 
L 122.298992 -42.38358 
L 123.036806 -42.38358 
L 123.77462 -42.38358 
L 124.512434 -42.38358 
L 125.250248 -42.38358 
L 125.988062 -42.38358 
L 126.725876 -42.38358 
L 127.46369 -42.38358 
L 128.201504 -42.38358 
L 128.939318 -42.38358 
L 129.677132 -42.38358 
L 130.414946 -42.38358 
L 131.15276 -42.38358 
L 131.890574 -42.38358 
L 132.628388 -42.38358 
L 133.366202 -42.38358 
L 134.104017 -42.38358 
L 134.841831 -42.38358 
L 135.579645 -42.38358 
L 136.317459 -42.38358 
L 137.055273 -42.38358 
L 137.793087 -42.38358 
L 138.530901 -42.38358 
L 139.268715 -42.38358 
L 140.006529 -42.38358 
L 140.744343 -42.38358 
L 141.482157 -42.38358 
L 142.219971 -42.38358 
L 142.957785 -42.38358 
L 143.695599 -42.38358 
L 144.433413 -42.38358 
L 145.171227 -42.38358 
L 145.909041 -42.38358 
L 146.646855 -42.38358 
L 147.384669 -42.38358 
L 148.122483 -42.38358 
L 148.860298 -42.38358 
L 149.598112 -42.38358 
L 150.335926 -42.38358 
L 151.07374 -42.38358 
L 151.811554 -42.38358 
L 152.549368 -42.38358 
L 153.287182 -42.38358 
L 154.024996 -42.38358 
L 154.76281 -42.38358 
L 155.500624 -42.38358 
L 156.238438 -42.38358 
L 156.976252 -42.38358 
L 157.714066 -42.38358 
L 158.45188 -42.38358 
L 159.189694 -42.38358 
L 159.927508 -42.38358 
L 160.665322 -42.38358 
L 161.403136 -42.38358 
L 162.14095 -42.38358 
L 162.14095 -42.38358 
L 162.14095 -42.38358 
L 161.403136 -42.38358 
L 160.665322 -42.38358 
L 159.927508 -42.38358 
L 159.189694 -42.38358 
L 158.45188 -42.38358 
L 157.714066 -42.38358 
L 156.976252 -42.38358 
L 156.238438 -42.38358 
L 155.500624 -42.38358 
L 154.76281 -42.38358 
L 154.024996 -42.38358 
L 153.287182 -42.38358 
L 152.549368 -42.38358 
L 151.811554 -42.38358 
L 151.07374 -42.38358 
L 150.335926 -42.38358 
L 149.598112 -42.38358 
L 148.860298 -42.38358 
L 148.122483 -42.38358 
L 147.384669 -42.38358 
L 146.646855 -42.38358 
L 145.909041 -42.38358 
L 145.171227 -42.38358 
L 144.433413 -42.38358 
L 143.695599 -42.38358 
L 142.957785 -42.38358 
L 142.219971 -42.38358 
L 141.482157 -42.38358 
L 140.744343 -42.38358 
L 140.006529 -42.38358 
L 139.268715 -42.38358 
L 138.530901 -42.38358 
L 137.793087 -42.38358 
L 137.055273 -42.38358 
L 136.317459 -42.38358 
L 135.579645 -42.38358 
L 134.841831 -42.38358 
L 134.104017 -42.38358 
L 133.366202 -42.38358 
L 132.628388 -42.38358 
L 131.890574 -42.38358 
L 131.15276 -42.38358 
L 130.414946 -42.38358 
L 129.677132 -42.38358 
L 128.939318 -42.38358 
L 128.201504 -42.38358 
L 127.46369 -42.38358 
L 126.725876 -42.38358 
L 125.988062 -42.38358 
L 125.250248 -42.38358 
L 124.512434 -42.38358 
L 123.77462 -42.38358 
L 123.036806 -42.38358 
L 122.298992 -42.38358 
L 121.561178 -42.38358 
L 120.823364 -42.38358 
L 120.08555 -42.38358 
L 119.347736 -42.38358 
L 118.609921 -42.38358 
L 117.872107 -42.38358 
L 117.134293 -42.38358 
L 116.396479 -42.38358 
L 115.658665 -42.38358 
L 114.920851 -42.38358 
L 114.183037 -42.38358 
L 113.445223 -42.38358 
L 112.707409 -42.38358 
L 111.969595 -42.38358 
L 111.231781 -42.38358 
L 110.493967 -42.38358 
L 109.756153 -42.38358 
L 109.018339 -42.38358 
L 108.280525 -42.38358 
L 107.542711 -42.38358 
L 106.804897 -42.38358 
L 106.067083 -42.38358 
L 105.329269 -42.38358 
L 104.591455 -42.38358 
L 103.85364 -42.38358 
L 103.115826 -42.38358 
L 102.378012 -42.38358 
L 101.640198 -42.38358 
L 100.902384 -42.38358 
L 100.16457 -42.38358 
L 99.426756 -42.38358 
L 98.688942 -42.38358 
L 97.951128 -42.38358 
L 97.213314 -42.38358 
L 96.4755 -42.38358 
L 95.737686 -42.38358 
L 94.999872 -42.38358 
L 94.262058 -42.38358 
L 93.524244 -42.38358 
L 92.78643 -42.38358 
L 92.048616 -42.38358 
L 91.310802 -42.38358 
L 90.572988 -42.38358 
L 89.835174 -42.38358 
L 89.09736 -42.38358 
L 88.359545 -42.38358 
L 87.621731 -42.38358 
L 86.883917 -42.38358 
L 86.146103 -42.38358 
L 85.408289 -42.38358 
L 84.670475 -42.38358 
L 83.932661 -42.38358 
L 83.194847 -42.38358 
L 82.457033 -42.38358 
L 81.719219 -42.38358 
L 80.981405 -42.38358 
L 80.243591 -42.38358 
L 79.505777 -42.38358 
L 78.767963 -42.38358 
L 78.030149 -42.38358 
L 77.292335 -42.38358 
L 76.554521 -42.38358 
L 75.816707 -42.38358 
L 75.078893 -42.38358 
L 74.341079 -42.38358 
L 73.603264 -42.38358 
L 72.86545 -42.38358 
L 72.127636 -42.38358 
L 71.389822 -42.38358 
L 70.652008 -42.383581 
L 69.914194 -42.383581 
L 69.17638 -42.383582 
L 68.438566 -42.383583 
L 67.700752 -42.383585 
L 66.962938 -42.383587 
L 66.225124 -42.383591 
L 65.48731 -42.383597 
L 64.749496 -42.383607 
L 64.011682 -42.383621 
L 63.273868 -42.383641 
L 62.536054 -42.383672 
L 61.79824 -42.383715 
L 61.060426 -42.383781 
L 60.322612 -42.383876 
L 59.584798 -42.384008 
L 58.846983 -42.38421 
L 58.109169 -42.384519 
L 57.371355 -42.384987 
L 56.633541 -42.385727 
L 55.895727 -42.386798 
L 55.157913 -42.388424 
L 54.420099 -42.390954 
L 53.682285 -42.394694 
L 52.944471 -42.399853 
L 52.206657 -42.407804 
L 51.468843 -42.42023 
L 50.731029 -42.439408 
L 49.993215 -42.471327 
L 49.255401 -42.520241 
L 48.517587 -42.591085 
L 47.779773 -42.696473 
L 47.041959 -42.848676 
L 46.304145 -43.085388 
L 45.566331 -43.455881 
L 44.828517 -44.011563 
L 44.090702 -44.84385 
L 43.352888 -46.084306 
L 42.615074 -47.795529 
L 41.87726 -49.957434 
L 41.139446 -52.395259 
L 40.401632 -54.861213 
L 39.663818 -56.990072 
L 38.926004 -59.221285 
L 38.18819 -60.820298 
L 37.450376 -62.241721 
L 36.712562 -63.353351 
L 35.974748 -64.55099 
L 35.236934 -65.408274 
L 34.49912 -66.34253 
L 33.761306 -67.30575 
L 33.023492 -68.217223 
L 32.285678 -69.371759 
L 31.547864 -70.601892 
L 30.81005 -72.316836 
L 30.072236 -74.128304 
L 29.334421 -75.714113 
L 28.596607 -76.942592 
L 27.858793 -78.262524 
L 27.120979 -79.542635 
L 26.383165 -80.940574 
L 25.645351 -82.120612 
L 24.907537 -82.939907 
L 24.169723 -83.708737 
L 23.431909 -84.146191 
L 22.694095 -84.20361 
L 21.956281 -83.697544 
L 21.218467 -82.513726 
L 20.480653 -81.039019 
L 19.742839 -79.376166 
L 19.005025 -76.907209 
L 18.267211 -74.212568 
L 17.529397 -72.596401 
L 16.791583 -73.213664 
L 16.053769 -73.499388 
L 15.315955 -72.088007 
L 14.57814 -67.953277 
z
" style="stroke: #7f00db; stroke-opacity: 0.2"/>
    </defs>
    <g clip-path="url(#p21c4f7a91f)">
     <use xlink:href="#maef6f22a3d" x="0" y="240.42625" style="fill: #7f00db; fill-opacity: 0.2; stroke: #7f00db; stroke-opacity: 0.2"/>
    </g>
   </g>
   <g id="PolyCollection_5">
    <defs>
     <path id="m5466f6f281" d="M 14.57814 -67.953277 
L 14.57814 -67.953277 
L 15.315955 -62.665761 
L 16.053769 -59.126386 
L 16.791583 -56.474529 
L 17.529397 -54.782257 
L 18.267211 -54.057183 
L 19.005025 -54.862925 
L 19.742839 -56.054819 
L 20.480653 -58.380206 
L 21.218467 -61.098569 
L 21.956281 -63.426025 
L 22.694095 -65.54726 
L 23.431909 -67.195496 
L 24.169723 -68.560062 
L 24.907537 -70.060592 
L 25.645351 -71.283577 
L 26.383165 -72.913974 
L 27.120979 -75.139872 
L 27.858793 -77.224404 
L 28.596607 -79.391121 
L 29.334421 -81.818574 
L 30.072236 -84.350658 
L 30.81005 -86.954514 
L 31.547864 -89.228548 
L 32.285678 -91.031642 
L 33.023492 -92.597388 
L 33.761306 -93.748273 
L 34.49912 -94.856994 
L 35.236934 -95.881932 
L 35.974748 -96.797231 
L 36.712562 -98.030278 
L 37.450376 -99.169778 
L 38.18819 -100.610151 
L 38.926004 -102.222051 
L 39.663818 -104.46235 
L 40.401632 -106.597941 
L 41.139446 -109.06887 
L 41.87726 -111.510103 
L 42.615074 -113.674386 
L 43.352888 -115.387299 
L 44.090702 -116.629124 
L 44.828517 -117.462353 
L 45.566331 -118.018685 
L 46.304145 -118.389638 
L 47.041959 -118.626677 
L 47.779773 -118.779121 
L 48.517587 -118.884685 
L 49.255401 -118.955657 
L 49.993215 -119.004675 
L 50.731029 -119.036677 
L 51.468843 -119.05591 
L 52.206657 -119.068374 
L 52.944471 -119.076347 
L 53.682285 -119.081522 
L 54.420099 -119.085272 
L 55.157913 -119.08781 
L 55.895727 -119.089441 
L 56.633541 -119.090517 
L 57.371355 -119.091258 
L 58.109169 -119.091729 
L 58.846983 -119.092039 
L 59.584798 -119.092241 
L 60.322612 -119.092373 
L 61.060426 -119.092469 
L 61.79824 -119.092535 
L 62.536054 -119.092578 
L 63.273868 -119.092609 
L 64.011682 -119.092629 
L 64.749496 -119.092643 
L 65.48731 -119.092653 
L 66.225124 -119.092659 
L 66.962938 -119.092663 
L 67.700752 -119.092665 
L 68.438566 -119.092667 
L 69.17638 -119.092668 
L 69.914194 -119.092669 
L 70.652008 -119.092669 
L 71.389822 -119.09267 
L 72.127636 -119.09267 
L 72.86545 -119.09267 
L 73.603264 -119.09267 
L 74.341079 -119.09267 
L 75.078893 -119.09267 
L 75.816707 -119.09267 
L 76.554521 -119.09267 
L 77.292335 -119.09267 
L 78.030149 -119.09267 
L 78.767963 -119.09267 
L 79.505777 -119.09267 
L 80.243591 -119.09267 
L 80.981405 -119.09267 
L 81.719219 -119.09267 
L 82.457033 -119.09267 
L 83.194847 -119.09267 
L 83.932661 -119.09267 
L 84.670475 -119.09267 
L 85.408289 -119.09267 
L 86.146103 -119.09267 
L 86.883917 -119.09267 
L 87.621731 -119.09267 
L 88.359545 -119.09267 
L 89.09736 -119.09267 
L 89.835174 -119.09267 
L 90.572988 -119.09267 
L 91.310802 -119.09267 
L 92.048616 -119.09267 
L 92.78643 -119.09267 
L 93.524244 -119.09267 
L 94.262058 -119.09267 
L 94.999872 -119.09267 
L 95.737686 -119.09267 
L 96.4755 -119.09267 
L 97.213314 -119.09267 
L 97.951128 -119.09267 
L 98.688942 -119.09267 
L 99.426756 -119.09267 
L 100.16457 -119.09267 
L 100.902384 -119.09267 
L 101.640198 -119.09267 
L 102.378012 -119.09267 
L 103.115826 -119.09267 
L 103.85364 -119.09267 
L 104.591455 -119.09267 
L 105.329269 -119.09267 
L 106.067083 -119.09267 
L 106.804897 -119.09267 
L 107.542711 -119.09267 
L 108.280525 -119.09267 
L 109.018339 -119.09267 
L 109.756153 -119.09267 
L 110.493967 -119.09267 
L 111.231781 -119.09267 
L 111.969595 -119.09267 
L 112.707409 -119.09267 
L 113.445223 -119.09267 
L 114.183037 -119.09267 
L 114.920851 -119.09267 
L 115.658665 -119.09267 
L 116.396479 -119.09267 
L 117.134293 -119.09267 
L 117.872107 -119.09267 
L 118.609921 -119.09267 
L 119.347736 -119.09267 
L 120.08555 -119.09267 
L 120.823364 -119.09267 
L 121.561178 -119.09267 
L 122.298992 -119.09267 
L 123.036806 -119.09267 
L 123.77462 -119.09267 
L 124.512434 -119.09267 
L 125.250248 -119.09267 
L 125.988062 -119.09267 
L 126.725876 -119.09267 
L 127.46369 -119.09267 
L 128.201504 -119.09267 
L 128.939318 -119.09267 
L 129.677132 -119.09267 
L 130.414946 -119.09267 
L 131.15276 -119.09267 
L 131.890574 -119.09267 
L 132.628388 -119.09267 
L 133.366202 -119.09267 
L 134.104017 -119.09267 
L 134.841831 -119.09267 
L 135.579645 -119.09267 
L 136.317459 -119.09267 
L 137.055273 -119.09267 
L 137.793087 -119.09267 
L 138.530901 -119.09267 
L 139.268715 -119.09267 
L 140.006529 -119.09267 
L 140.744343 -119.09267 
L 141.482157 -119.09267 
L 142.219971 -119.09267 
L 142.957785 -119.09267 
L 143.695599 -119.09267 
L 144.433413 -119.09267 
L 145.171227 -119.09267 
L 145.909041 -119.09267 
L 146.646855 -119.09267 
L 147.384669 -119.09267 
L 148.122483 -119.09267 
L 148.860298 -119.09267 
L 149.598112 -119.09267 
L 150.335926 -119.09267 
L 151.07374 -119.09267 
L 151.811554 -119.09267 
L 152.549368 -119.09267 
L 153.287182 -119.09267 
L 154.024996 -119.09267 
L 154.76281 -119.09267 
L 155.500624 -119.09267 
L 156.238438 -119.09267 
L 156.976252 -119.09267 
L 157.714066 -119.09267 
L 158.45188 -119.09267 
L 159.189694 -119.09267 
L 159.927508 -119.09267 
L 160.665322 -119.09267 
L 161.403136 -119.09267 
L 162.14095 -119.09267 
L 162.14095 -119.09267 
L 162.14095 -119.09267 
L 161.403136 -119.09267 
L 160.665322 -119.09267 
L 159.927508 -119.09267 
L 159.189694 -119.09267 
L 158.45188 -119.09267 
L 157.714066 -119.09267 
L 156.976252 -119.09267 
L 156.238438 -119.09267 
L 155.500624 -119.09267 
L 154.76281 -119.09267 
L 154.024996 -119.09267 
L 153.287182 -119.09267 
L 152.549368 -119.09267 
L 151.811554 -119.09267 
L 151.07374 -119.09267 
L 150.335926 -119.09267 
L 149.598112 -119.09267 
L 148.860298 -119.09267 
L 148.122483 -119.09267 
L 147.384669 -119.09267 
L 146.646855 -119.09267 
L 145.909041 -119.09267 
L 145.171227 -119.09267 
L 144.433413 -119.09267 
L 143.695599 -119.09267 
L 142.957785 -119.09267 
L 142.219971 -119.09267 
L 141.482157 -119.09267 
L 140.744343 -119.09267 
L 140.006529 -119.09267 
L 139.268715 -119.09267 
L 138.530901 -119.09267 
L 137.793087 -119.09267 
L 137.055273 -119.09267 
L 136.317459 -119.09267 
L 135.579645 -119.09267 
L 134.841831 -119.09267 
L 134.104017 -119.09267 
L 133.366202 -119.09267 
L 132.628388 -119.09267 
L 131.890574 -119.09267 
L 131.15276 -119.09267 
L 130.414946 -119.09267 
L 129.677132 -119.09267 
L 128.939318 -119.09267 
L 128.201504 -119.09267 
L 127.46369 -119.09267 
L 126.725876 -119.09267 
L 125.988062 -119.09267 
L 125.250248 -119.09267 
L 124.512434 -119.09267 
L 123.77462 -119.09267 
L 123.036806 -119.09267 
L 122.298992 -119.09267 
L 121.561178 -119.09267 
L 120.823364 -119.09267 
L 120.08555 -119.09267 
L 119.347736 -119.09267 
L 118.609921 -119.09267 
L 117.872107 -119.09267 
L 117.134293 -119.09267 
L 116.396479 -119.09267 
L 115.658665 -119.09267 
L 114.920851 -119.09267 
L 114.183037 -119.09267 
L 113.445223 -119.09267 
L 112.707409 -119.09267 
L 111.969595 -119.09267 
L 111.231781 -119.09267 
L 110.493967 -119.09267 
L 109.756153 -119.09267 
L 109.018339 -119.09267 
L 108.280525 -119.09267 
L 107.542711 -119.09267 
L 106.804897 -119.09267 
L 106.067083 -119.09267 
L 105.329269 -119.09267 
L 104.591455 -119.09267 
L 103.85364 -119.09267 
L 103.115826 -119.09267 
L 102.378012 -119.09267 
L 101.640198 -119.09267 
L 100.902384 -119.09267 
L 100.16457 -119.09267 
L 99.426756 -119.09267 
L 98.688942 -119.09267 
L 97.951128 -119.09267 
L 97.213314 -119.09267 
L 96.4755 -119.09267 
L 95.737686 -119.09267 
L 94.999872 -119.09267 
L 94.262058 -119.09267 
L 93.524244 -119.09267 
L 92.78643 -119.09267 
L 92.048616 -119.09267 
L 91.310802 -119.09267 
L 90.572988 -119.09267 
L 89.835174 -119.09267 
L 89.09736 -119.09267 
L 88.359545 -119.09267 
L 87.621731 -119.09267 
L 86.883917 -119.09267 
L 86.146103 -119.09267 
L 85.408289 -119.09267 
L 84.670475 -119.09267 
L 83.932661 -119.09267 
L 83.194847 -119.09267 
L 82.457033 -119.09267 
L 81.719219 -119.09267 
L 80.981405 -119.09267 
L 80.243591 -119.09267 
L 79.505777 -119.09267 
L 78.767963 -119.09267 
L 78.030149 -119.09267 
L 77.292335 -119.09267 
L 76.554521 -119.09267 
L 75.816707 -119.09267 
L 75.078893 -119.09267 
L 74.341079 -119.092671 
L 73.603264 -119.092671 
L 72.86545 -119.092671 
L 72.127636 -119.092671 
L 71.389822 -119.092671 
L 70.652008 -119.092671 
L 69.914194 -119.092671 
L 69.17638 -119.092671 
L 68.438566 -119.092672 
L 67.700752 -119.092673 
L 66.962938 -119.092674 
L 66.225124 -119.092676 
L 65.48731 -119.092678 
L 64.749496 -119.092682 
L 64.011682 -119.092688 
L 63.273868 -119.092696 
L 62.536054 -119.092708 
L 61.79824 -119.092724 
L 61.060426 -119.092746 
L 60.322612 -119.092776 
L 59.584798 -119.092815 
L 58.846983 -119.092877 
L 58.109169 -119.092977 
L 57.371355 -119.093133 
L 56.633541 -119.093387 
L 55.895727 -119.093761 
L 55.157913 -119.094356 
L 54.420099 -119.095307 
L 53.682285 -119.096731 
L 52.944471 -119.098668 
L 52.206657 -119.101668 
L 51.468843 -119.106589 
L 50.731029 -119.11457 
L 49.993215 -119.12824 
L 49.255401 -119.14937 
L 48.517587 -119.180265 
L 47.779773 -119.227829 
L 47.041959 -119.298691 
L 46.304145 -119.40979 
L 45.566331 -119.585756 
L 44.828517 -119.854141 
L 44.090702 -120.258121 
L 43.352888 -120.865829 
L 42.615074 -121.705758 
L 41.87726 -122.766821 
L 41.139446 -123.962421 
L 40.401632 -125.164367 
L 39.663818 -126.188537 
L 38.926004 -127.24992 
L 38.18819 -127.976719 
L 37.450376 -128.580414 
L 36.712562 -128.98254 
L 35.974748 -129.37577 
L 35.236934 -129.500162 
L 34.49912 -129.514506 
L 33.761306 -129.290034 
L 33.023492 -128.766275 
L 32.285678 -128.053998 
L 31.547864 -127.161782 
L 30.81005 -126.309671 
L 30.072236 -125.456765 
L 29.334421 -124.657141 
L 28.596607 -123.973516 
L 27.858793 -123.350422 
L 27.120979 -122.571537 
L 26.383165 -121.594526 
L 25.645351 -120.194614 
L 24.907537 -118.38372 
L 24.169723 -115.777056 
L 23.431909 -112.660159 
L 22.694095 -109.455225 
L 21.956281 -105.824849 
L 21.218467 -101.996602 
L 20.480653 -98.278537 
L 19.742839 -94.685613 
L 19.005025 -92.794432 
L 18.267211 -90.949617 
L 17.529397 -89.085773 
L 16.791583 -85.895446 
L 16.053769 -82.653116 
L 15.315955 -77.770583 
L 14.57814 -67.953277 
z
" style="stroke: #ff9a00; stroke-opacity: 0.2"/>
    </defs>
    <g clip-path="url(#p21c4f7a91f)">
     <use xlink:href="#m5466f6f281" x="0" y="240.42625" style="fill: #ff9a00; fill-opacity: 0.2; stroke: #ff9a00; stroke-opacity: 0.2"/>
    </g>
   </g>
   <g id="PolyCollection_6">
    <defs>
     <path id="me94194d454" d="M 14.57814 -67.953277 
L 14.57814 -67.953277 
L 15.315955 -54.884059 
L 16.053769 -49.75733 
L 16.791583 -48.217264 
L 17.529397 -47.647057 
L 18.267211 -47.133761 
L 19.005025 -46.02069 
L 19.742839 -44.477869 
L 20.480653 -42.725871 
L 21.218467 -40.826554 
L 21.956281 -39.062601 
L 22.694095 -37.256834 
L 23.431909 -35.633359 
L 24.169723 -34.212709 
L 24.907537 -33.318556 
L 25.645351 -32.71677 
L 26.383165 -32.636876 
L 27.120979 -33.165801 
L 27.858793 -33.820214 
L 28.596607 -34.641045 
L 29.334421 -35.919548 
L 30.072236 -37.071784 
L 30.81005 -38.16661 
L 31.547864 -39.035675 
L 32.285678 -40.000843 
L 33.023492 -40.799355 
L 33.761306 -41.323768 
L 34.49912 -41.667898 
L 35.236934 -41.892968 
L 35.974748 -42.041388 
L 36.712562 -42.132237 
L 37.450376 -42.205017 
L 38.18819 -42.255249 
L 38.926004 -42.290168 
L 39.663818 -42.315118 
L 40.401632 -42.333998 
L 41.139446 -42.348158 
L 41.87726 -42.357917 
L 42.615074 -42.364798 
L 43.352888 -42.369721 
L 44.090702 -42.37373 
L 44.828517 -42.376506 
L 45.566331 -42.378426 
L 46.304145 -42.379796 
L 47.041959 -42.380781 
L 47.779773 -42.381505 
L 48.517587 -42.382043 
L 49.255401 -42.382447 
L 49.993215 -42.38277 
L 50.731029 -42.383035 
L 51.468843 -42.383209 
L 52.206657 -42.383332 
L 52.944471 -42.383408 
L 53.682285 -42.383462 
L 54.420099 -42.383497 
L 55.157913 -42.383522 
L 55.895727 -42.383541 
L 56.633541 -42.383555 
L 57.371355 -42.383564 
L 58.109169 -42.38357 
L 58.846983 -42.383574 
L 59.584798 -42.383576 
L 60.322612 -42.383577 
L 61.060426 -42.383578 
L 61.79824 -42.383579 
L 62.536054 -42.383579 
L 63.273868 -42.383579 
L 64.011682 -42.383579 
L 64.749496 -42.383579 
L 65.48731 -42.383579 
L 66.225124 -42.38358 
L 66.962938 -42.38358 
L 67.700752 -42.38358 
L 68.438566 -42.38358 
L 69.17638 -42.38358 
L 69.914194 -42.38358 
L 70.652008 -42.38358 
L 71.389822 -42.38358 
L 72.127636 -42.38358 
L 72.86545 -42.38358 
L 73.603264 -42.38358 
L 74.341079 -42.38358 
L 75.078893 -42.38358 
L 75.816707 -42.38358 
L 76.554521 -42.38358 
L 77.292335 -42.38358 
L 78.030149 -42.38358 
L 78.767963 -42.38358 
L 79.505777 -42.38358 
L 80.243591 -42.38358 
L 80.981405 -42.38358 
L 81.719219 -42.38358 
L 82.457033 -42.38358 
L 83.194847 -42.38358 
L 83.932661 -42.38358 
L 84.670475 -42.38358 
L 85.408289 -42.38358 
L 86.146103 -42.38358 
L 86.883917 -42.38358 
L 87.621731 -42.38358 
L 88.359545 -42.38358 
L 89.09736 -42.38358 
L 89.835174 -42.38358 
L 90.572988 -42.38358 
L 91.310802 -42.38358 
L 92.048616 -42.38358 
L 92.78643 -42.38358 
L 93.524244 -42.38358 
L 94.262058 -42.38358 
L 94.999872 -42.38358 
L 95.737686 -42.38358 
L 96.4755 -42.38358 
L 97.213314 -42.38358 
L 97.951128 -42.38358 
L 98.688942 -42.38358 
L 99.426756 -42.38358 
L 100.16457 -42.38358 
L 100.902384 -42.38358 
L 101.640198 -42.38358 
L 102.378012 -42.38358 
L 103.115826 -42.38358 
L 103.85364 -42.38358 
L 104.591455 -42.38358 
L 105.329269 -42.38358 
L 106.067083 -42.38358 
L 106.804897 -42.38358 
L 107.542711 -42.38358 
L 108.280525 -42.38358 
L 109.018339 -42.38358 
L 109.756153 -42.38358 
L 110.493967 -42.38358 
L 111.231781 -42.38358 
L 111.969595 -42.38358 
L 112.707409 -42.38358 
L 113.445223 -42.38358 
L 114.183037 -42.38358 
L 114.920851 -42.38358 
L 115.658665 -42.38358 
L 116.396479 -42.38358 
L 117.134293 -42.38358 
L 117.872107 -42.38358 
L 118.609921 -42.38358 
L 119.347736 -42.38358 
L 120.08555 -42.38358 
L 120.823364 -42.38358 
L 121.561178 -42.38358 
L 122.298992 -42.38358 
L 123.036806 -42.38358 
L 123.77462 -42.38358 
L 124.512434 -42.38358 
L 125.250248 -42.38358 
L 125.988062 -42.38358 
L 126.725876 -42.38358 
L 127.46369 -42.38358 
L 128.201504 -42.38358 
L 128.939318 -42.38358 
L 129.677132 -42.38358 
L 130.414946 -42.38358 
L 131.15276 -42.38358 
L 131.890574 -42.38358 
L 132.628388 -42.38358 
L 133.366202 -42.38358 
L 134.104017 -42.38358 
L 134.841831 -42.38358 
L 135.579645 -42.38358 
L 136.317459 -42.38358 
L 137.055273 -42.38358 
L 137.793087 -42.38358 
L 138.530901 -42.38358 
L 139.268715 -42.38358 
L 140.006529 -42.38358 
L 140.744343 -42.38358 
L 141.482157 -42.38358 
L 142.219971 -42.38358 
L 142.957785 -42.38358 
L 143.695599 -42.38358 
L 144.433413 -42.38358 
L 145.171227 -42.38358 
L 145.909041 -42.38358 
L 146.646855 -42.38358 
L 147.384669 -42.38358 
L 148.122483 -42.38358 
L 148.860298 -42.38358 
L 149.598112 -42.38358 
L 150.335926 -42.38358 
L 151.07374 -42.38358 
L 151.811554 -42.38358 
L 152.549368 -42.38358 
L 153.287182 -42.38358 
L 154.024996 -42.38358 
L 154.76281 -42.38358 
L 155.500624 -42.38358 
L 156.238438 -42.38358 
L 156.976252 -42.38358 
L 157.714066 -42.38358 
L 158.45188 -42.38358 
L 159.189694 -42.38358 
L 159.927508 -42.38358 
L 160.665322 -42.38358 
L 161.403136 -42.38358 
L 162.14095 -42.38358 
L 162.14095 -42.38358 
L 162.14095 -42.38358 
L 161.403136 -42.38358 
L 160.665322 -42.38358 
L 159.927508 -42.38358 
L 159.189694 -42.38358 
L 158.45188 -42.38358 
L 157.714066 -42.38358 
L 156.976252 -42.38358 
L 156.238438 -42.38358 
L 155.500624 -42.38358 
L 154.76281 -42.38358 
L 154.024996 -42.38358 
L 153.287182 -42.38358 
L 152.549368 -42.38358 
L 151.811554 -42.38358 
L 151.07374 -42.38358 
L 150.335926 -42.38358 
L 149.598112 -42.38358 
L 148.860298 -42.38358 
L 148.122483 -42.38358 
L 147.384669 -42.38358 
L 146.646855 -42.38358 
L 145.909041 -42.38358 
L 145.171227 -42.38358 
L 144.433413 -42.38358 
L 143.695599 -42.38358 
L 142.957785 -42.38358 
L 142.219971 -42.38358 
L 141.482157 -42.38358 
L 140.744343 -42.38358 
L 140.006529 -42.38358 
L 139.268715 -42.38358 
L 138.530901 -42.38358 
L 137.793087 -42.38358 
L 137.055273 -42.38358 
L 136.317459 -42.38358 
L 135.579645 -42.38358 
L 134.841831 -42.38358 
L 134.104017 -42.38358 
L 133.366202 -42.38358 
L 132.628388 -42.38358 
L 131.890574 -42.38358 
L 131.15276 -42.38358 
L 130.414946 -42.38358 
L 129.677132 -42.38358 
L 128.939318 -42.38358 
L 128.201504 -42.38358 
L 127.46369 -42.38358 
L 126.725876 -42.38358 
L 125.988062 -42.38358 
L 125.250248 -42.38358 
L 124.512434 -42.38358 
L 123.77462 -42.38358 
L 123.036806 -42.38358 
L 122.298992 -42.38358 
L 121.561178 -42.38358 
L 120.823364 -42.38358 
L 120.08555 -42.38358 
L 119.347736 -42.38358 
L 118.609921 -42.38358 
L 117.872107 -42.38358 
L 117.134293 -42.38358 
L 116.396479 -42.38358 
L 115.658665 -42.38358 
L 114.920851 -42.38358 
L 114.183037 -42.38358 
L 113.445223 -42.38358 
L 112.707409 -42.38358 
L 111.969595 -42.38358 
L 111.231781 -42.38358 
L 110.493967 -42.38358 
L 109.756153 -42.38358 
L 109.018339 -42.38358 
L 108.280525 -42.38358 
L 107.542711 -42.38358 
L 106.804897 -42.38358 
L 106.067083 -42.38358 
L 105.329269 -42.38358 
L 104.591455 -42.38358 
L 103.85364 -42.38358 
L 103.115826 -42.38358 
L 102.378012 -42.38358 
L 101.640198 -42.38358 
L 100.902384 -42.38358 
L 100.16457 -42.38358 
L 99.426756 -42.38358 
L 98.688942 -42.38358 
L 97.951128 -42.38358 
L 97.213314 -42.38358 
L 96.4755 -42.38358 
L 95.737686 -42.38358 
L 94.999872 -42.38358 
L 94.262058 -42.38358 
L 93.524244 -42.38358 
L 92.78643 -42.38358 
L 92.048616 -42.38358 
L 91.310802 -42.38358 
L 90.572988 -42.38358 
L 89.835174 -42.38358 
L 89.09736 -42.38358 
L 88.359545 -42.38358 
L 87.621731 -42.38358 
L 86.883917 -42.38358 
L 86.146103 -42.38358 
L 85.408289 -42.38358 
L 84.670475 -42.38358 
L 83.932661 -42.38358 
L 83.194847 -42.38358 
L 82.457033 -42.38358 
L 81.719219 -42.38358 
L 80.981405 -42.38358 
L 80.243591 -42.38358 
L 79.505777 -42.38358 
L 78.767963 -42.38358 
L 78.030149 -42.38358 
L 77.292335 -42.38358 
L 76.554521 -42.38358 
L 75.816707 -42.38358 
L 75.078893 -42.38358 
L 74.341079 -42.38358 
L 73.603264 -42.38358 
L 72.86545 -42.38358 
L 72.127636 -42.38358 
L 71.389822 -42.38358 
L 70.652008 -42.38358 
L 69.914194 -42.38358 
L 69.17638 -42.38358 
L 68.438566 -42.38358 
L 67.700752 -42.38358 
L 66.962938 -42.38358 
L 66.225124 -42.38358 
L 65.48731 -42.38358 
L 64.749496 -42.38358 
L 64.011682 -42.38358 
L 63.273868 -42.38358 
L 62.536054 -42.383581 
L 61.79824 -42.383581 
L 61.060426 -42.383582 
L 60.322612 -42.383584 
L 59.584798 -42.383587 
L 58.846983 -42.383591 
L 58.109169 -42.383598 
L 57.371355 -42.383611 
L 56.633541 -42.383629 
L 55.895727 -42.383656 
L 55.157913 -42.383694 
L 54.420099 -42.383745 
L 53.682285 -42.383816 
L 52.944471 -42.383922 
L 52.206657 -42.384074 
L 51.468843 -42.384321 
L 50.731029 -42.38467 
L 49.993215 -42.3852 
L 49.255401 -42.385849 
L 48.517587 -42.386658 
L 47.779773 -42.387737 
L 47.041959 -42.389191 
L 46.304145 -42.391169 
L 45.566331 -42.393925 
L 44.828517 -42.397787 
L 44.090702 -42.403378 
L 43.352888 -42.411456 
L 42.615074 -42.421403 
L 41.87726 -42.435342 
L 41.139446 -42.455192 
L 40.401632 -42.484036 
L 39.663818 -42.522702 
L 38.926004 -42.574244 
L 38.18819 -42.646606 
L 37.450376 -42.751426 
L 36.712562 -42.903405 
L 35.974748 -43.093496 
L 35.236934 -43.400087 
L 34.49912 -43.86358 
L 33.761306 -44.570901 
L 33.023492 -45.643621 
L 32.285678 -47.274675 
L 31.547864 -49.254269 
L 30.81005 -51.054299 
L 30.072236 -53.323126 
L 29.334421 -55.732565 
L 28.596607 -58.418336 
L 27.858793 -60.265369 
L 27.120979 -61.923769 
L 26.383165 -63.566206 
L 25.645351 -64.430848 
L 24.907537 -64.96928 
L 24.169723 -65.900992 
L 23.431909 -66.904758 
L 22.694095 -68.447672 
L 21.956281 -70.965182 
L 21.218467 -74.585409 
L 20.480653 -78.534088 
L 19.742839 -82.144841 
L 19.005025 -84.359147 
L 18.267211 -86.50822 
L 17.529397 -86.420061 
L 16.791583 -84.603267 
L 16.053769 -81.467419 
L 15.315955 -77.183941 
L 14.57814 -67.953277 
z
" style="stroke: #000000; stroke-opacity: 0.2"/>
    </defs>
    <g clip-path="url(#p21c4f7a91f)">
     <use xlink:href="#me94194d454" x="0" y="240.42625" style="fill-opacity: 0.2; stroke: #000000; stroke-opacity: 0.2"/>
    </g>
   </g>
   <g id="matplotlib.axis_3">
    <g id="xtick_1">
     <g id="line2d_4">
      <defs>
       <path id="me637d8be9e" d="M 0 0 
L 0 3.5 
" style="stroke: #000000; stroke-width: 0.8"/>
      </defs>
      <g>
       <use xlink:href="#me637d8be9e" x="14.57814" y="201.878125" style="stroke: #000000; stroke-width: 0.8"/>
      </g>
     </g>
     <g id="text_2">
      <!-- 0 -->
      <g transform="translate(11.39689 216.476562) scale(0.1 -0.1)">
       <defs>
        <path id="DejaVuSans-30" d="M 2034 4250 
Q 1547 4250 1301 3770 
Q 1056 3291 1056 2328 
Q 1056 1369 1301 889 
Q 1547 409 2034 409 
Q 2525 409 2770 889 
Q 3016 1369 3016 2328 
Q 3016 3291 2770 3770 
Q 2525 4250 2034 4250 
z
M 2034 4750 
Q 2819 4750 3233 4129 
Q 3647 3509 3647 2328 
Q 3647 1150 3233 529 
Q 2819 -91 2034 -91 
Q 1250 -91 836 529 
Q 422 1150 422 2328 
Q 422 3509 836 4129 
Q 1250 4750 2034 4750 
z
" transform="scale(0.015625)"/>
       </defs>
       <use xlink:href="#DejaVuSans-30"/>
      </g>
     </g>
    </g>
    <g id="xtick_2">
     <g id="line2d_5">
      <g>
       <use xlink:href="#me637d8be9e" x="51.468843" y="201.878125" style="stroke: #000000; stroke-width: 0.8"/>
      </g>
     </g>
     <g id="text_3">
      <!-- 50 -->
      <g transform="translate(45.106343 216.476562) scale(0.1 -0.1)">
       <defs>
        <path id="DejaVuSans-35" d="M 691 4666 
L 3169 4666 
L 3169 4134 
L 1269 4134 
L 1269 2991 
Q 1406 3038 1543 3061 
Q 1681 3084 1819 3084 
Q 2600 3084 3056 2656 
Q 3513 2228 3513 1497 
Q 3513 744 3044 326 
Q 2575 -91 1722 -91 
Q 1428 -91 1123 -41 
Q 819 9 494 109 
L 494 744 
Q 775 591 1075 516 
Q 1375 441 1709 441 
Q 2250 441 2565 725 
Q 2881 1009 2881 1497 
Q 2881 1984 2565 2268 
Q 2250 2553 1709 2553 
Q 1456 2553 1204 2497 
Q 953 2441 691 2322 
L 691 4666 
z
" transform="scale(0.015625)"/>
       </defs>
       <use xlink:href="#DejaVuSans-35"/>
       <use xlink:href="#DejaVuSans-30" x="63.623047"/>
      </g>
     </g>
    </g>
    <g id="xtick_3">
     <g id="line2d_6">
      <g>
       <use xlink:href="#me637d8be9e" x="88.359545" y="201.878125" style="stroke: #000000; stroke-width: 0.8"/>
      </g>
     </g>
     <g id="text_4">
      <!-- 100 -->
      <g transform="translate(78.815795 216.476562) scale(0.1 -0.1)">
       <defs>
        <path id="DejaVuSans-31" d="M 794 531 
L 1825 531 
L 1825 4091 
L 703 3866 
L 703 4441 
L 1819 4666 
L 2450 4666 
L 2450 531 
L 3481 531 
L 3481 0 
L 794 0 
L 794 531 
z
" transform="scale(0.015625)"/>
       </defs>
       <use xlink:href="#DejaVuSans-31"/>
       <use xlink:href="#DejaVuSans-30" x="63.623047"/>
       <use xlink:href="#DejaVuSans-30" x="127.246094"/>
      </g>
     </g>
    </g>
    <g id="xtick_4">
     <g id="line2d_7">
      <g>
       <use xlink:href="#me637d8be9e" x="125.250248" y="201.878125" style="stroke: #000000; stroke-width: 0.8"/>
      </g>
     </g>
     <g id="text_5">
      <!-- 150 -->
      <g transform="translate(115.706498 216.476562) scale(0.1 -0.1)">
       <use xlink:href="#DejaVuSans-31"/>
       <use xlink:href="#DejaVuSans-35" x="63.623047"/>
       <use xlink:href="#DejaVuSans-30" x="127.246094"/>
      </g>
     </g>
    </g>
    <g id="xtick_5">
     <g id="line2d_8">
      <g>
       <use xlink:href="#me637d8be9e" x="162.14095" y="201.878125" style="stroke: #000000; stroke-width: 0.8"/>
      </g>
     </g>
     <g id="text_6">
      <!-- 200 -->
      <g transform="translate(152.5972 216.476562) scale(0.1 -0.1)">
       <defs>
        <path id="DejaVuSans-32" d="M 1228 531 
L 3431 531 
L 3431 0 
L 469 0 
L 469 531 
Q 828 903 1448 1529 
Q 2069 2156 2228 2338 
Q 2531 2678 2651 2914 
Q 2772 3150 2772 3378 
Q 2772 3750 2511 3984 
Q 2250 4219 1831 4219 
Q 1534 4219 1204 4116 
Q 875 4013 500 3803 
L 500 4441 
Q 881 4594 1212 4672 
Q 1544 4750 1819 4750 
Q 2544 4750 2975 4387 
Q 3406 4025 3406 3419 
Q 3406 3131 3298 2873 
Q 3191 2616 2906 2266 
Q 2828 2175 2409 1742 
Q 1991 1309 1228 531 
z
" transform="scale(0.015625)"/>
       </defs>
       <use xlink:href="#DejaVuSans-32"/>
       <use xlink:href="#DejaVuSans-30" x="63.623047"/>
       <use xlink:href="#DejaVuSans-30" x="127.246094"/>
      </g>
     </g>
    </g>
    <g id="text_7">
     <!-- Timestep ($t$) -->
     <g transform="translate(54.589545 230.91625) scale(0.11 -0.11)">
      <defs>
       <path id="DejaVuSans-54" d="M -19 4666 
L 3928 4666 
L 3928 4134 
L 2272 4134 
L 2272 0 
L 1638 0 
L 1638 4134 
L -19 4134 
L -19 4666 
z
" transform="scale(0.015625)"/>
       <path id="DejaVuSans-69" d="M 603 3500 
L 1178 3500 
L 1178 0 
L 603 0 
L 603 3500 
z
M 603 4863 
L 1178 4863 
L 1178 4134 
L 603 4134 
L 603 4863 
z
" transform="scale(0.015625)"/>
       <path id="DejaVuSans-6d" d="M 3328 2828 
Q 3544 3216 3844 3400 
Q 4144 3584 4550 3584 
Q 5097 3584 5394 3201 
Q 5691 2819 5691 2113 
L 5691 0 
L 5113 0 
L 5113 2094 
Q 5113 2597 4934 2840 
Q 4756 3084 4391 3084 
Q 3944 3084 3684 2787 
Q 3425 2491 3425 1978 
L 3425 0 
L 2847 0 
L 2847 2094 
Q 2847 2600 2669 2842 
Q 2491 3084 2119 3084 
Q 1678 3084 1418 2786 
Q 1159 2488 1159 1978 
L 1159 0 
L 581 0 
L 581 3500 
L 1159 3500 
L 1159 2956 
Q 1356 3278 1631 3431 
Q 1906 3584 2284 3584 
Q 2666 3584 2933 3390 
Q 3200 3197 3328 2828 
z
" transform="scale(0.015625)"/>
       <path id="DejaVuSans-65" d="M 3597 1894 
L 3597 1613 
L 953 1613 
Q 991 1019 1311 708 
Q 1631 397 2203 397 
Q 2534 397 2845 478 
Q 3156 559 3463 722 
L 3463 178 
Q 3153 47 2828 -22 
Q 2503 -91 2169 -91 
Q 1331 -91 842 396 
Q 353 884 353 1716 
Q 353 2575 817 3079 
Q 1281 3584 2069 3584 
Q 2775 3584 3186 3129 
Q 3597 2675 3597 1894 
z
M 3022 2063 
Q 3016 2534 2758 2815 
Q 2500 3097 2075 3097 
Q 1594 3097 1305 2825 
Q 1016 2553 972 2059 
L 3022 2063 
z
" transform="scale(0.015625)"/>
       <path id="DejaVuSans-73" d="M 2834 3397 
L 2834 2853 
Q 2591 2978 2328 3040 
Q 2066 3103 1784 3103 
Q 1356 3103 1142 2972 
Q 928 2841 928 2578 
Q 928 2378 1081 2264 
Q 1234 2150 1697 2047 
L 1894 2003 
Q 2506 1872 2764 1633 
Q 3022 1394 3022 966 
Q 3022 478 2636 193 
Q 2250 -91 1575 -91 
Q 1294 -91 989 -36 
Q 684 19 347 128 
L 347 722 
Q 666 556 975 473 
Q 1284 391 1588 391 
Q 1994 391 2212 530 
Q 2431 669 2431 922 
Q 2431 1156 2273 1281 
Q 2116 1406 1581 1522 
L 1381 1569 
Q 847 1681 609 1914 
Q 372 2147 372 2553 
Q 372 3047 722 3315 
Q 1072 3584 1716 3584 
Q 2034 3584 2315 3537 
Q 2597 3491 2834 3397 
z
" transform="scale(0.015625)"/>
       <path id="DejaVuSans-74" d="M 1172 4494 
L 1172 3500 
L 2356 3500 
L 2356 3053 
L 1172 3053 
L 1172 1153 
Q 1172 725 1289 603 
Q 1406 481 1766 481 
L 2356 481 
L 2356 0 
L 1766 0 
Q 1100 0 847 248 
Q 594 497 594 1153 
L 594 3053 
L 172 3053 
L 172 3500 
L 594 3500 
L 594 4494 
L 1172 4494 
z
" transform="scale(0.015625)"/>
       <path id="DejaVuSans-70" d="M 1159 525 
L 1159 -1331 
L 581 -1331 
L 581 3500 
L 1159 3500 
L 1159 2969 
Q 1341 3281 1617 3432 
Q 1894 3584 2278 3584 
Q 2916 3584 3314 3078 
Q 3713 2572 3713 1747 
Q 3713 922 3314 415 
Q 2916 -91 2278 -91 
Q 1894 -91 1617 61 
Q 1341 213 1159 525 
z
M 3116 1747 
Q 3116 2381 2855 2742 
Q 2594 3103 2138 3103 
Q 1681 3103 1420 2742 
Q 1159 2381 1159 1747 
Q 1159 1113 1420 752 
Q 1681 391 2138 391 
Q 2594 391 2855 752 
Q 3116 1113 3116 1747 
z
" transform="scale(0.015625)"/>
       <path id="DejaVuSans-20" transform="scale(0.015625)"/>
       <path id="DejaVuSans-28" d="M 1984 4856 
Q 1566 4138 1362 3434 
Q 1159 2731 1159 2009 
Q 1159 1288 1364 580 
Q 1569 -128 1984 -844 
L 1484 -844 
Q 1016 -109 783 600 
Q 550 1309 550 2009 
Q 550 2706 781 3412 
Q 1013 4119 1484 4856 
L 1984 4856 
z
" transform="scale(0.015625)"/>
       <path id="DejaVuSans-Oblique-74" d="M 2706 3500 
L 2619 3053 
L 1472 3053 
L 1100 1153 
Q 1081 1047 1072 975 
Q 1063 903 1063 863 
Q 1063 663 1183 572 
Q 1303 481 1569 481 
L 2150 481 
L 2053 0 
L 1503 0 
Q 991 0 739 200 
Q 488 400 488 806 
Q 488 878 497 964 
Q 506 1050 525 1153 
L 897 3053 
L 409 3053 
L 500 3500 
L 978 3500 
L 1172 4494 
L 1747 4494 
L 1556 3500 
L 2706 3500 
z
" transform="scale(0.015625)"/>
       <path id="DejaVuSans-29" d="M 513 4856 
L 1013 4856 
Q 1481 4119 1714 3412 
Q 1947 2706 1947 2009 
Q 1947 1309 1714 600 
Q 1481 -109 1013 -844 
L 513 -844 
Q 928 -128 1133 580 
Q 1338 1288 1338 2009 
Q 1338 2731 1133 3434 
Q 928 4138 513 4856 
z
" transform="scale(0.015625)"/>
      </defs>
      <use xlink:href="#DejaVuSans-54" transform="translate(0 0.015625)"/>
      <use xlink:href="#DejaVuSans-69" transform="translate(61.083984 0.015625)"/>
      <use xlink:href="#DejaVuSans-6d" transform="translate(88.867188 0.015625)"/>
      <use xlink:href="#DejaVuSans-65" transform="translate(186.279297 0.015625)"/>
      <use xlink:href="#DejaVuSans-73" transform="translate(247.802734 0.015625)"/>
      <use xlink:href="#DejaVuSans-74" transform="translate(299.902344 0.015625)"/>
      <use xlink:href="#DejaVuSans-65" transform="translate(339.111328 0.015625)"/>
      <use xlink:href="#DejaVuSans-70" transform="translate(400.634766 0.015625)"/>
      <use xlink:href="#DejaVuSans-20" transform="translate(464.111328 0.015625)"/>
      <use xlink:href="#DejaVuSans-28" transform="translate(495.898438 0.015625)"/>
      <use xlink:href="#DejaVuSans-Oblique-74" transform="translate(534.912109 0.015625)"/>
      <use xlink:href="#DejaVuSans-29" transform="translate(574.121094 0.015625)"/>
     </g>
    </g>
   </g>
   <g id="matplotlib.axis_4"/>
   <g id="line2d_9">
    <path d="M 14.57814 172.472973 
L 16.053769 173.068546 
L 16.791583 174.161673 
L 17.529397 175.533995 
L 18.267211 175.890811 
L 19.742839 175.247992 
L 21.218467 175.819988 
L 21.956281 176.205749 
L 23.431909 177.763306 
L 28.596607 184.778429 
L 29.334421 185.630334 
L 32.285678 189.746999 
L 33.023492 190.469741 
L 34.49912 191.517909 
L 36.712562 192.590651 
L 38.18819 193.310783 
L 38.926004 193.734612 
L 43.352888 197.083573 
L 44.828517 197.611814 
L 46.304145 197.851617 
L 49.255401 198.003082 
L 56.633541 198.041964 
L 162.14095 198.04267 
L 162.14095 198.04267 
" clip-path="url(#p21c4f7a91f)" style="fill: none; stroke: #7f00db; stroke-width: 1.5; stroke-linecap: square"/>
   </g>
   <g id="line2d_10">
    <path d="M 14.57814 172.472973 
L 15.315955 170.208078 
L 16.053769 169.536499 
L 16.791583 169.241263 
L 17.529397 168.492235 
L 18.267211 167.92285 
L 19.742839 165.056034 
L 23.431909 150.498422 
L 24.907537 146.204094 
L 30.072236 135.522539 
L 31.547864 132.231085 
L 33.023492 129.744418 
L 33.761306 128.907097 
L 34.49912 128.2405 
L 35.974748 127.339749 
L 38.926004 125.690265 
L 42.615074 122.736178 
L 44.090702 121.982628 
L 45.566331 121.624029 
L 47.779773 121.422775 
L 52.206657 121.341229 
L 86.883917 121.33358 
L 162.14095 121.33358 
L 162.14095 121.33358 
" clip-path="url(#p21c4f7a91f)" style="fill: none; stroke: #ff9a00; stroke-width: 1.5; stroke-linecap: square"/>
   </g>
   <g id="line2d_11">
    <path d="M 14.57814 172.472973 
L 15.315955 174.39225 
L 16.053769 174.813876 
L 16.791583 174.015985 
L 17.529397 173.392691 
L 18.267211 173.605259 
L 19.742839 177.114895 
L 22.694095 187.573997 
L 23.431909 189.157192 
L 24.169723 190.3694 
L 24.907537 191.282332 
L 27.120979 192.881465 
L 28.596607 193.89656 
L 30.072236 195.228795 
L 31.547864 196.281278 
L 33.023492 197.204762 
L 34.49912 197.660511 
L 36.712562 197.908429 
L 40.401632 198.017233 
L 53.682285 198.042611 
L 162.14095 198.04267 
L 162.14095 198.04267 
" clip-path="url(#p21c4f7a91f)" style="fill: none; stroke: #000000; stroke-width: 1.5; stroke-linecap: square"/>
   </g>
   <g id="patch_8">
    <path d="M 7.2 201.878125 
L 7.2 117.498125 
" style="fill: none; stroke: #000000; stroke-width: 0.8; stroke-linejoin: miter; stroke-linecap: square"/>
   </g>
   <g id="patch_9">
    <path d="M 169.519091 201.878125 
L 169.519091 117.498125 
" style="fill: none; stroke: #000000; stroke-width: 0.8; stroke-linejoin: miter; stroke-linecap: square"/>
   </g>
   <g id="patch_10">
    <path d="M 7.2 201.878125 
L 169.519091 201.878125 
" style="fill: none; stroke: #000000; stroke-width: 0.8; stroke-linejoin: miter; stroke-linecap: square"/>
   </g>
   <g id="patch_11">
    <path d="M 7.2 117.498125 
L 169.519091 117.498125 
" style="fill: none; stroke: #000000; stroke-width: 0.8; stroke-linejoin: miter; stroke-linecap: square"/>
   </g>
   <g id="legend_1">
    <g id="patch_12">
     <path d="M 89.019091 183.688125 
L 162.519091 183.688125 
Q 164.519091 183.688125 164.519091 181.688125 
L 164.519091 137.688125 
Q 164.519091 135.688125 162.519091 135.688125 
L 89.019091 135.688125 
Q 87.019091 135.688125 87.019091 137.688125 
L 87.019091 181.688125 
Q 87.019091 183.688125 89.019091 183.688125 
z
" style="fill: #ffffff; opacity: 0.8; stroke: #cccccc; stroke-linejoin: miter"/>
    </g>
    <g id="line2d_12">
     <path d="M 91.019091 143.988125 
L 101.019091 143.988125 
L 111.019091 143.988125 
" style="fill: none; stroke: #7f00db; stroke-width: 1.5; stroke-linecap: square"/>
    </g>
    <g id="text_8">
     <!-- $b(\pi_S\mid\mathcal{O})$ -->
     <g transform="translate(119.019091 147.488125) scale(0.1 -0.1)">
      <defs>
       <path id="DejaVuSans-Oblique-62" d="M 3169 2138 
Q 3169 2591 2961 2847 
Q 2753 3103 2388 3103 
Q 2122 3103 1889 2973 
Q 1656 2844 1484 2597 
Q 1303 2338 1198 1995 
Q 1094 1653 1094 1313 
Q 1094 881 1298 636 
Q 1503 391 1863 391 
Q 2134 391 2365 517 
Q 2597 644 2772 891 
Q 2950 1147 3059 1487 
Q 3169 1828 3169 2138 
z
M 1381 2969 
Q 1594 3256 1914 3420 
Q 2234 3584 2584 3584 
Q 3122 3584 3439 3221 
Q 3756 2859 3756 2241 
Q 3756 1734 3570 1259 
Q 3384 784 3041 416 
Q 2816 172 2522 40 
Q 2228 -91 1906 -91 
Q 1566 -91 1316 65 
Q 1066 222 909 531 
L 806 0 
L 231 0 
L 1178 4863 
L 1753 4863 
L 1381 2969 
z
" transform="scale(0.015625)"/>
       <path id="DejaVuSans-Oblique-3c0" d="M 584 3500 
L 3938 3500 
L 3825 2925 
L 3384 2925 
L 2966 775 
Q 2922 550 2981 450 
Q 3038 353 3209 353 
Q 3256 353 3325 363 
Q 3397 369 3419 372 
L 3338 -44 
Q 3222 -84 3103 -103 
Q 2981 -122 2866 -122 
Q 2491 -122 2388 81 
Q 2284 288 2391 838 
L 2797 2925 
L 1506 2925 
L 938 0 
L 350 0 
L 919 2925 
L 472 2925 
L 584 3500 
z
" transform="scale(0.015625)"/>
       <path id="DejaVuSans-Oblique-53" d="M 3859 4513 
L 3738 3897 
Q 3422 4066 3111 4152 
Q 2800 4238 2509 4238 
Q 1944 4238 1609 3991 
Q 1275 3744 1275 3334 
Q 1275 3109 1398 2989 
Q 1522 2869 2034 2731 
L 2413 2638 
Q 3053 2472 3303 2217 
Q 3553 1963 3553 1503 
Q 3553 797 2998 353 
Q 2444 -91 1538 -91 
Q 1166 -91 791 -17 
Q 416 56 38 206 
L 166 856 
Q 513 641 861 531 
Q 1209 422 1556 422 
Q 2147 422 2503 684 
Q 2859 947 2859 1369 
Q 2859 1650 2717 1795 
Q 2575 1941 2106 2059 
L 1728 2156 
Q 1081 2325 845 2545 
Q 609 2766 609 3163 
Q 609 3859 1145 4304 
Q 1681 4750 2541 4750 
Q 2875 4750 3203 4690 
Q 3531 4631 3859 4513 
z
" transform="scale(0.015625)"/>
       <path id="DejaVuSans-2223" d="M 1350 4934 
L 1850 4934 
L 1850 -1369 
L 1350 -1369 
L 1350 4934 
z
" transform="scale(0.015625)"/>
       <path id="STIXNonUnicode-Italic-e23b" d="M 2304 4237 
L 2342 4090 
Q 1773 3923 1350 3158 
Q 928 2394 928 1472 
Q 928 838 1216 515 
Q 1504 192 1984 192 
Q 2349 192 2739 435 
Q 3130 678 3430 1101 
Q 3968 1862 3968 2944 
Q 3968 3398 3744 3660 
Q 3520 3923 3219 3923 
Q 2918 3923 2691 3728 
Q 2464 3533 2464 3232 
Q 2464 2995 2694 2995 
Q 2714 2995 2784 3011 
Q 2854 3027 2918 3027 
Q 3104 3027 3104 2816 
Q 3104 2637 2944 2496 
Q 2784 2355 2592 2355 
Q 2323 2355 2179 2534 
Q 2035 2714 2035 2995 
Q 2035 3475 2505 3878 
Q 2976 4282 3571 4282 
Q 4096 4282 4381 3882 
Q 4666 3482 4666 2938 
Q 4666 2400 4422 1837 
Q 4179 1274 3808 877 
Q 2931 -64 1754 -64 
Q 1101 -64 672 304 
Q 243 672 243 1363 
Q 243 1933 435 2457 
Q 627 2982 931 3347 
Q 1235 3712 1596 3949 
Q 1958 4186 2304 4237 
z
" transform="scale(0.015625)"/>
      </defs>
      <use xlink:href="#DejaVuSans-Oblique-62" transform="translate(0 0.90625)"/>
      <use xlink:href="#DejaVuSans-28" transform="translate(63.476562 0.90625)"/>
      <use xlink:href="#DejaVuSans-Oblique-3c0" transform="translate(102.490234 0.90625)"/>
      <use xlink:href="#DejaVuSans-Oblique-53" transform="translate(162.695312 -15.5) scale(0.7)"/>
      <use xlink:href="#DejaVuSans-2223" transform="translate(229.345703 0.90625)"/>
      <use xlink:href="#STIXNonUnicode-Italic-e23b" transform="translate(298.828125 0.90625)"/>
      <use xlink:href="#DejaVuSans-29" transform="translate(372.528107 0.90625)"/>
     </g>
    </g>
    <g id="line2d_13">
     <path d="M 91.019091 158.988125 
L 101.019091 158.988125 
L 111.019091 158.988125 
" style="fill: none; stroke: #ff9a00; stroke-width: 1.5; stroke-linecap: square"/>
    </g>
    <g id="text_9">
     <!-- $b(\pi_0\mid\mathcal{O})$ -->
     <g transform="translate(119.019091 162.488125) scale(0.1 -0.1)">
      <use xlink:href="#DejaVuSans-Oblique-62" transform="translate(0 0.90625)"/>
      <use xlink:href="#DejaVuSans-28" transform="translate(63.476562 0.90625)"/>
      <use xlink:href="#DejaVuSans-Oblique-3c0" transform="translate(102.490234 0.90625)"/>
      <use xlink:href="#DejaVuSans-30" transform="translate(162.695312 -15.5) scale(0.7)"/>
      <use xlink:href="#DejaVuSans-2223" transform="translate(229.448242 0.90625)"/>
      <use xlink:href="#STIXNonUnicode-Italic-e23b" transform="translate(298.930664 0.90625)"/>
      <use xlink:href="#DejaVuSans-29" transform="translate(372.630646 0.90625)"/>
     </g>
    </g>
    <g id="line2d_14">
     <path d="M 91.019091 173.988125 
L 101.019091 173.988125 
L 111.019091 173.988125 
" style="fill: none; stroke: #000000; stroke-width: 1.5; stroke-linecap: square"/>
    </g>
    <g id="text_10">
     <!-- $b(\pi_A\mid\mathcal{O})$ -->
     <g transform="translate(119.019091 177.488125) scale(0.1 -0.1)">
      <defs>
       <path id="DejaVuSans-Oblique-41" d="M 2356 4666 
L 3072 4666 
L 3938 0 
L 3278 0 
L 3084 1197 
L 984 1197 
L 325 0 
L -341 0 
L 2356 4666 
z
M 2584 4044 
L 1275 1722 
L 2988 1722 
L 2584 4044 
z
" transform="scale(0.015625)"/>
      </defs>
      <use xlink:href="#DejaVuSans-Oblique-62" transform="translate(0 0.90625)"/>
      <use xlink:href="#DejaVuSans-28" transform="translate(63.476562 0.90625)"/>
      <use xlink:href="#DejaVuSans-Oblique-3c0" transform="translate(102.490234 0.90625)"/>
      <use xlink:href="#DejaVuSans-Oblique-41" transform="translate(162.695312 -15.5) scale(0.7)"/>
      <use xlink:href="#DejaVuSans-2223" transform="translate(232.797852 0.90625)"/>
      <use xlink:href="#STIXNonUnicode-Italic-e23b" transform="translate(302.280273 0.90625)"/>
      <use xlink:href="#DejaVuSans-29" transform="translate(375.980255 0.90625)"/>
     </g>
    </g>
   </g>
  </g>
 </g>
 <defs>
  <clipPath id="p06962a8989">
   <rect x="7.2" y="22.318125" width="162.319091" height="84.38"/>
  </clipPath>
  <clipPath id="p21c4f7a91f">
   <rect x="7.2" y="117.498125" width="162.319091" height="84.38"/>
  </clipPath>
 </defs>
</svg>
