<?xml version="1.0" encoding="utf-8" standalone="no"?>
<!DOCTYPE svg PUBLIC "-//W3C//DTD SVG 1.1//EN"
  "http://www.w3.org/Graphics/SVG/1.1/DTD/svg11.dtd">
<svg xmlns:xlink="http://www.w3.org/1999/xlink" width="560.15325pt" height="220.053375pt" viewBox="0 0 560.15325 220.053375" xmlns="http://www.w3.org/2000/svg" version="1.1">
 <metadata>
  <rdf:RDF xmlns:dc="http://purl.org/dc/elements/1.1/" xmlns:cc="http://creativecommons.org/ns#" xmlns:rdf="http://www.w3.org/1999/02/22-rdf-syntax-ns#">
   <cc:Work>
    <dc:type rdf:resource="http://purl.org/dc/dcmitype/StillImage"/>
    <dc:date>2025-01-06T17:53:47.196571</dc:date>
    <dc:format>image/svg+xml</dc:format>
    <dc:creator>
     <cc:Agent>
      <dc:title>Matplotlib v3.8.3, https://matplotlib.org/</dc:title>
     </cc:Agent>
    </dc:creator>
   </cc:Work>
  </rdf:RDF>
 </metadata>
 <defs>
  <style type="text/css">*{stroke-linejoin: round; stroke-linecap: butt}</style>
 </defs>
 <g id="figure_1">
  <g id="patch_1">
   <path d="M 0 220.053375 
L 560.15325 220.053375 
L 560.15325 0 
L 0 0 
z
" style="fill: #ffffff"/>
  </g>
  <g id="axes_1">
   <g id="patch_2">
    <path d="M 62.92125 159.285375 
L 296.183155 159.285375 
L 296.183155 25.965375 
L 62.92125 25.965375 
z
" style="fill: #ffffff"/>
   </g>
   <g id="patch_3">
    <path d="M 73.524064 159.285375 
L 97.858391 159.285375 
L 97.858391 74.488189 
L 73.524064 74.488189 
z
" clip-path="url(#pb70df77860)" style="fill: #323232"/>
   </g>
   <g id="patch_4">
    <path d="M 212.57736 159.285375 
L 236.911687 159.285375 
L 236.911687 95.77806 
L 212.57736 95.77806 
z
" clip-path="url(#pb70df77860)" style="fill: #323232"/>
   </g>
   <g id="patch_5">
    <path d="M 97.858391 159.285375 
L 122.192718 159.285375 
L 122.192718 74.146223 
L 97.858391 74.146223 
z
" clip-path="url(#pb70df77860)" style="fill: #ff9a00"/>
   </g>
   <g id="patch_6">
    <path d="M 236.911687 159.285375 
L 261.246014 159.285375 
L 261.246014 96.042033 
L 236.911687 96.042033 
z
" clip-path="url(#pb70df77860)" style="fill: #ff9a00"/>
   </g>
   <g id="patch_7">
    <path d="M 122.192718 159.285375 
L 146.527044 159.285375 
L 146.527044 100.190285 
L 122.192718 100.190285 
z
" clip-path="url(#pb70df77860)" style="fill: #ff5a00"/>
   </g>
   <g id="patch_8">
    <path d="M 261.246014 159.285375 
L 285.580341 159.285375 
L 285.580341 124.374533 
L 261.246014 124.374533 
z
" clip-path="url(#pb70df77860)" style="fill: #ff5a00"/>
   </g>
   <g id="matplotlib.axis_1">
    <g id="xtick_1">
     <g id="line2d_1">
      <defs>
       <path id="mb12c69596c" d="M 0 0 
L 0 3.5 
" style="stroke: #000000; stroke-width: 0.8"/>
      </defs>
      <g>
       <use xlink:href="#mb12c69596c" x="110.025554" y="159.285375" style="stroke: #000000; stroke-width: 0.8"/>
      </g>
     </g>
     <g id="text_1">
      <!-- Risk-Seeking -->
      <g transform="translate(65.054929 176.923188) scale(0.14 -0.14)">
       <defs>
        <path id="DejaVuSans-52" d="M 2841 2188 
Q 3044 2119 3236 1894 
Q 3428 1669 3622 1275 
L 4263 0 
L 3584 0 
L 2988 1197 
Q 2756 1666 2539 1819 
Q 2322 1972 1947 1972 
L 1259 1972 
L 1259 0 
L 628 0 
L 628 4666 
L 2053 4666 
Q 2853 4666 3247 4331 
Q 3641 3997 3641 3322 
Q 3641 2881 3436 2590 
Q 3231 2300 2841 2188 
z
M 1259 4147 
L 1259 2491 
L 2053 2491 
Q 2509 2491 2742 2702 
Q 2975 2913 2975 3322 
Q 2975 3731 2742 3939 
Q 2509 4147 2053 4147 
L 1259 4147 
z
" transform="scale(0.015625)"/>
        <path id="DejaVuSans-69" d="M 603 3500 
L 1178 3500 
L 1178 0 
L 603 0 
L 603 3500 
z
M 603 4863 
L 1178 4863 
L 1178 4134 
L 603 4134 
L 603 4863 
z
" transform="scale(0.015625)"/>
        <path id="DejaVuSans-73" d="M 2834 3397 
L 2834 2853 
Q 2591 2978 2328 3040 
Q 2066 3103 1784 3103 
Q 1356 3103 1142 2972 
Q 928 2841 928 2578 
Q 928 2378 1081 2264 
Q 1234 2150 1697 2047 
L 1894 2003 
Q 2506 1872 2764 1633 
Q 3022 1394 3022 966 
Q 3022 478 2636 193 
Q 2250 -91 1575 -91 
Q 1294 -91 989 -36 
Q 684 19 347 128 
L 347 722 
Q 666 556 975 473 
Q 1284 391 1588 391 
Q 1994 391 2212 530 
Q 2431 669 2431 922 
Q 2431 1156 2273 1281 
Q 2116 1406 1581 1522 
L 1381 1569 
Q 847 1681 609 1914 
Q 372 2147 372 2553 
Q 372 3047 722 3315 
Q 1072 3584 1716 3584 
Q 2034 3584 2315 3537 
Q 2597 3491 2834 3397 
z
" transform="scale(0.015625)"/>
        <path id="DejaVuSans-6b" d="M 581 4863 
L 1159 4863 
L 1159 1991 
L 2875 3500 
L 3609 3500 
L 1753 1863 
L 3688 0 
L 2938 0 
L 1159 1709 
L 1159 0 
L 581 0 
L 581 4863 
z
" transform="scale(0.015625)"/>
        <path id="DejaVuSans-2d" d="M 313 2009 
L 1997 2009 
L 1997 1497 
L 313 1497 
L 313 2009 
z
" transform="scale(0.015625)"/>
        <path id="DejaVuSans-53" d="M 3425 4513 
L 3425 3897 
Q 3066 4069 2747 4153 
Q 2428 4238 2131 4238 
Q 1616 4238 1336 4038 
Q 1056 3838 1056 3469 
Q 1056 3159 1242 3001 
Q 1428 2844 1947 2747 
L 2328 2669 
Q 3034 2534 3370 2195 
Q 3706 1856 3706 1288 
Q 3706 609 3251 259 
Q 2797 -91 1919 -91 
Q 1588 -91 1214 -16 
Q 841 59 441 206 
L 441 856 
Q 825 641 1194 531 
Q 1563 422 1919 422 
Q 2459 422 2753 634 
Q 3047 847 3047 1241 
Q 3047 1584 2836 1778 
Q 2625 1972 2144 2069 
L 1759 2144 
Q 1053 2284 737 2584 
Q 422 2884 422 3419 
Q 422 4038 858 4394 
Q 1294 4750 2059 4750 
Q 2388 4750 2728 4690 
Q 3069 4631 3425 4513 
z
" transform="scale(0.015625)"/>
        <path id="DejaVuSans-65" d="M 3597 1894 
L 3597 1613 
L 953 1613 
Q 991 1019 1311 708 
Q 1631 397 2203 397 
Q 2534 397 2845 478 
Q 3156 559 3463 722 
L 3463 178 
Q 3153 47 2828 -22 
Q 2503 -91 2169 -91 
Q 1331 -91 842 396 
Q 353 884 353 1716 
Q 353 2575 817 3079 
Q 1281 3584 2069 3584 
Q 2775 3584 3186 3129 
Q 3597 2675 3597 1894 
z
M 3022 2063 
Q 3016 2534 2758 2815 
Q 2500 3097 2075 3097 
Q 1594 3097 1305 2825 
Q 1016 2553 972 2059 
L 3022 2063 
z
" transform="scale(0.015625)"/>
        <path id="DejaVuSans-6e" d="M 3513 2113 
L 3513 0 
L 2938 0 
L 2938 2094 
Q 2938 2591 2744 2837 
Q 2550 3084 2163 3084 
Q 1697 3084 1428 2787 
Q 1159 2491 1159 1978 
L 1159 0 
L 581 0 
L 581 3500 
L 1159 3500 
L 1159 2956 
Q 1366 3272 1645 3428 
Q 1925 3584 2291 3584 
Q 2894 3584 3203 3211 
Q 3513 2838 3513 2113 
z
" transform="scale(0.015625)"/>
        <path id="DejaVuSans-67" d="M 2906 1791 
Q 2906 2416 2648 2759 
Q 2391 3103 1925 3103 
Q 1463 3103 1205 2759 
Q 947 2416 947 1791 
Q 947 1169 1205 825 
Q 1463 481 1925 481 
Q 2391 481 2648 825 
Q 2906 1169 2906 1791 
z
M 3481 434 
Q 3481 -459 3084 -895 
Q 2688 -1331 1869 -1331 
Q 1566 -1331 1297 -1286 
Q 1028 -1241 775 -1147 
L 775 -588 
Q 1028 -725 1275 -790 
Q 1522 -856 1778 -856 
Q 2344 -856 2625 -561 
Q 2906 -266 2906 331 
L 2906 616 
Q 2728 306 2450 153 
Q 2172 0 1784 0 
Q 1141 0 747 490 
Q 353 981 353 1791 
Q 353 2603 747 3093 
Q 1141 3584 1784 3584 
Q 2172 3584 2450 3431 
Q 2728 3278 2906 2969 
L 2906 3500 
L 3481 3500 
L 3481 434 
z
" transform="scale(0.015625)"/>
       </defs>
       <use xlink:href="#DejaVuSans-52"/>
       <use xlink:href="#DejaVuSans-69" x="69.482422"/>
       <use xlink:href="#DejaVuSans-73" x="97.265625"/>
       <use xlink:href="#DejaVuSans-6b" x="149.365234"/>
       <use xlink:href="#DejaVuSans-2d" x="207.275391"/>
       <use xlink:href="#DejaVuSans-53" x="243.359375"/>
       <use xlink:href="#DejaVuSans-65" x="306.835938"/>
       <use xlink:href="#DejaVuSans-65" x="368.359375"/>
       <use xlink:href="#DejaVuSans-6b" x="429.882812"/>
       <use xlink:href="#DejaVuSans-69" x="487.792969"/>
       <use xlink:href="#DejaVuSans-6e" x="515.576172"/>
       <use xlink:href="#DejaVuSans-67" x="578.955078"/>
      </g>
     </g>
    </g>
    <g id="xtick_2">
     <g id="line2d_2">
      <g>
       <use xlink:href="#mb12c69596c" x="249.078851" y="159.285375" style="stroke: #000000; stroke-width: 0.8"/>
      </g>
     </g>
     <g id="text_2">
      <!-- Risk-Averse -->
      <g transform="translate(208.543382 176.923188) scale(0.14 -0.14)">
       <defs>
        <path id="DejaVuSans-41" d="M 2188 4044 
L 1331 1722 
L 3047 1722 
L 2188 4044 
z
M 1831 4666 
L 2547 4666 
L 4325 0 
L 3669 0 
L 3244 1197 
L 1141 1197 
L 716 0 
L 50 0 
L 1831 4666 
z
" transform="scale(0.015625)"/>
        <path id="DejaVuSans-76" d="M 191 3500 
L 800 3500 
L 1894 563 
L 2988 3500 
L 3597 3500 
L 2284 0 
L 1503 0 
L 191 3500 
z
" transform="scale(0.015625)"/>
        <path id="DejaVuSans-72" d="M 2631 2963 
Q 2534 3019 2420 3045 
Q 2306 3072 2169 3072 
Q 1681 3072 1420 2755 
Q 1159 2438 1159 1844 
L 1159 0 
L 581 0 
L 581 3500 
L 1159 3500 
L 1159 2956 
Q 1341 3275 1631 3429 
Q 1922 3584 2338 3584 
Q 2397 3584 2469 3576 
Q 2541 3569 2628 3553 
L 2631 2963 
z
" transform="scale(0.015625)"/>
       </defs>
       <use xlink:href="#DejaVuSans-52"/>
       <use xlink:href="#DejaVuSans-69" x="69.482422"/>
       <use xlink:href="#DejaVuSans-73" x="97.265625"/>
       <use xlink:href="#DejaVuSans-6b" x="149.365234"/>
       <use xlink:href="#DejaVuSans-2d" x="207.275391"/>
       <use xlink:href="#DejaVuSans-41" x="241.109375"/>
       <use xlink:href="#DejaVuSans-76" x="303.642578"/>
       <use xlink:href="#DejaVuSans-65" x="362.822266"/>
       <use xlink:href="#DejaVuSans-72" x="424.345703"/>
       <use xlink:href="#DejaVuSans-73" x="465.458984"/>
       <use xlink:href="#DejaVuSans-65" x="517.558594"/>
      </g>
     </g>
    </g>
   </g>
   <g id="matplotlib.axis_2">
    <g id="ytick_1">
     <g id="line2d_3">
      <defs>
       <path id="m7182c034f0" d="M 0 0 
L -3.5 0 
" style="stroke: #000000; stroke-width: 0.8"/>
      </defs>
      <g>
       <use xlink:href="#m7182c034f0" x="62.92125" y="159.285375" style="stroke: #000000; stroke-width: 0.8"/>
      </g>
     </g>
     <g id="text_3">
      <!-- 0.00 -->
      <g transform="translate(24.749375 164.604281) scale(0.14 -0.14)">
       <defs>
        <path id="DejaVuSans-30" d="M 2034 4250 
Q 1547 4250 1301 3770 
Q 1056 3291 1056 2328 
Q 1056 1369 1301 889 
Q 1547 409 2034 409 
Q 2525 409 2770 889 
Q 3016 1369 3016 2328 
Q 3016 3291 2770 3770 
Q 2525 4250 2034 4250 
z
M 2034 4750 
Q 2819 4750 3233 4129 
Q 3647 3509 3647 2328 
Q 3647 1150 3233 529 
Q 2819 -91 2034 -91 
Q 1250 -91 836 529 
Q 422 1150 422 2328 
Q 422 3509 836 4129 
Q 1250 4750 2034 4750 
z
" transform="scale(0.015625)"/>
        <path id="DejaVuSans-2e" d="M 684 794 
L 1344 794 
L 1344 0 
L 684 0 
L 684 794 
z
" transform="scale(0.015625)"/>
       </defs>
       <use xlink:href="#DejaVuSans-30"/>
       <use xlink:href="#DejaVuSans-2e" x="63.623047"/>
       <use xlink:href="#DejaVuSans-30" x="95.410156"/>
       <use xlink:href="#DejaVuSans-30" x="159.033203"/>
      </g>
     </g>
    </g>
    <g id="ytick_2">
     <g id="line2d_4">
      <g>
       <use xlink:href="#m7182c034f0" x="62.92125" y="125.955375" style="stroke: #000000; stroke-width: 0.8"/>
      </g>
     </g>
     <g id="text_4">
      <!-- 0.25 -->
      <g transform="translate(24.749375 131.274281) scale(0.14 -0.14)">
       <defs>
        <path id="DejaVuSans-32" d="M 1228 531 
L 3431 531 
L 3431 0 
L 469 0 
L 469 531 
Q 828 903 1448 1529 
Q 2069 2156 2228 2338 
Q 2531 2678 2651 2914 
Q 2772 3150 2772 3378 
Q 2772 3750 2511 3984 
Q 2250 4219 1831 4219 
Q 1534 4219 1204 4116 
Q 875 4013 500 3803 
L 500 4441 
Q 881 4594 1212 4672 
Q 1544 4750 1819 4750 
Q 2544 4750 2975 4387 
Q 3406 4025 3406 3419 
Q 3406 3131 3298 2873 
Q 3191 2616 2906 2266 
Q 2828 2175 2409 1742 
Q 1991 1309 1228 531 
z
" transform="scale(0.015625)"/>
        <path id="DejaVuSans-35" d="M 691 4666 
L 3169 4666 
L 3169 4134 
L 1269 4134 
L 1269 2991 
Q 1406 3038 1543 3061 
Q 1681 3084 1819 3084 
Q 2600 3084 3056 2656 
Q 3513 2228 3513 1497 
Q 3513 744 3044 326 
Q 2575 -91 1722 -91 
Q 1428 -91 1123 -41 
Q 819 9 494 109 
L 494 744 
Q 775 591 1075 516 
Q 1375 441 1709 441 
Q 2250 441 2565 725 
Q 2881 1009 2881 1497 
Q 2881 1984 2565 2268 
Q 2250 2553 1709 2553 
Q 1456 2553 1204 2497 
Q 953 2441 691 2322 
L 691 4666 
z
" transform="scale(0.015625)"/>
       </defs>
       <use xlink:href="#DejaVuSans-30"/>
       <use xlink:href="#DejaVuSans-2e" x="63.623047"/>
       <use xlink:href="#DejaVuSans-32" x="95.410156"/>
       <use xlink:href="#DejaVuSans-35" x="159.033203"/>
      </g>
     </g>
    </g>
    <g id="ytick_3">
     <g id="line2d_5">
      <g>
       <use xlink:href="#m7182c034f0" x="62.92125" y="92.625375" style="stroke: #000000; stroke-width: 0.8"/>
      </g>
     </g>
     <g id="text_5">
      <!-- 0.50 -->
      <g transform="translate(24.749375 97.944281) scale(0.14 -0.14)">
       <use xlink:href="#DejaVuSans-30"/>
       <use xlink:href="#DejaVuSans-2e" x="63.623047"/>
       <use xlink:href="#DejaVuSans-35" x="95.410156"/>
       <use xlink:href="#DejaVuSans-30" x="159.033203"/>
      </g>
     </g>
    </g>
    <g id="ytick_4">
     <g id="line2d_6">
      <g>
       <use xlink:href="#m7182c034f0" x="62.92125" y="59.295375" style="stroke: #000000; stroke-width: 0.8"/>
      </g>
     </g>
     <g id="text_6">
      <!-- 0.75 -->
      <g transform="translate(24.749375 64.614281) scale(0.14 -0.14)">
       <defs>
        <path id="DejaVuSans-37" d="M 525 4666 
L 3525 4666 
L 3525 4397 
L 1831 0 
L 1172 0 
L 2766 4134 
L 525 4134 
L 525 4666 
z
" transform="scale(0.015625)"/>
       </defs>
       <use xlink:href="#DejaVuSans-30"/>
       <use xlink:href="#DejaVuSans-2e" x="63.623047"/>
       <use xlink:href="#DejaVuSans-37" x="95.410156"/>
       <use xlink:href="#DejaVuSans-35" x="159.033203"/>
      </g>
     </g>
    </g>
    <g id="ytick_5">
     <g id="line2d_7">
      <g>
       <use xlink:href="#m7182c034f0" x="62.92125" y="25.965375" style="stroke: #000000; stroke-width: 0.8"/>
      </g>
     </g>
     <g id="text_7">
      <!-- 1.00 -->
      <g transform="translate(24.749375 31.284281) scale(0.14 -0.14)">
       <defs>
        <path id="DejaVuSans-31" d="M 794 531 
L 1825 531 
L 1825 4091 
L 703 3866 
L 703 4441 
L 1819 4666 
L 2450 4666 
L 2450 531 
L 3481 531 
L 3481 0 
L 794 0 
L 794 531 
z
" transform="scale(0.015625)"/>
       </defs>
       <use xlink:href="#DejaVuSans-31"/>
       <use xlink:href="#DejaVuSans-2e" x="63.623047"/>
       <use xlink:href="#DejaVuSans-30" x="95.410156"/>
       <use xlink:href="#DejaVuSans-30" x="159.033203"/>
      </g>
     </g>
    </g>
    <g id="text_8">
     <!-- C-ACT -->
     <g transform="translate(17.837812 113.710688) rotate(-90) scale(0.14 -0.14)">
      <defs>
       <path id="DejaVuSans-43" d="M 4122 4306 
L 4122 3641 
Q 3803 3938 3442 4084 
Q 3081 4231 2675 4231 
Q 1875 4231 1450 3742 
Q 1025 3253 1025 2328 
Q 1025 1406 1450 917 
Q 1875 428 2675 428 
Q 3081 428 3442 575 
Q 3803 722 4122 1019 
L 4122 359 
Q 3791 134 3420 21 
Q 3050 -91 2638 -91 
Q 1578 -91 968 557 
Q 359 1206 359 2328 
Q 359 3453 968 4101 
Q 1578 4750 2638 4750 
Q 3056 4750 3426 4639 
Q 3797 4528 4122 4306 
z
" transform="scale(0.015625)"/>
       <path id="DejaVuSans-54" d="M -19 4666 
L 3928 4666 
L 3928 4134 
L 2272 4134 
L 2272 0 
L 1638 0 
L 1638 4134 
L -19 4134 
L -19 4666 
z
" transform="scale(0.015625)"/>
      </defs>
      <use xlink:href="#DejaVuSans-43"/>
      <use xlink:href="#DejaVuSans-2d" x="69.824219"/>
      <use xlink:href="#DejaVuSans-41" x="103.658203"/>
      <use xlink:href="#DejaVuSans-43" x="170.316406"/>
      <use xlink:href="#DejaVuSans-54" x="240.140625"/>
     </g>
    </g>
   </g>
   <g id="LineCollection_1">
    <path d="M 85.691227 81.724585 
L 85.691227 67.251793 
" clip-path="url(#pb70df77860)" style="fill: none; stroke: #000000; stroke-width: 1.5"/>
    <path d="M 224.744524 100.873216 
L 224.744524 90.682903 
" clip-path="url(#pb70df77860)" style="fill: none; stroke: #000000; stroke-width: 1.5"/>
   </g>
   <g id="line2d_8">
    <defs>
     <path id="m8e18209b7f" d="M 5 0 
L -5 -0 
" style="stroke: #000000"/>
    </defs>
    <g clip-path="url(#pb70df77860)">
     <use xlink:href="#m8e18209b7f" x="85.691227" y="81.724585" style="stroke: #000000"/>
     <use xlink:href="#m8e18209b7f" x="224.744524" y="100.873216" style="stroke: #000000"/>
    </g>
   </g>
   <g id="line2d_9">
    <g clip-path="url(#pb70df77860)">
     <use xlink:href="#m8e18209b7f" x="85.691227" y="67.251793" style="stroke: #000000"/>
     <use xlink:href="#m8e18209b7f" x="224.744524" y="90.682903" style="stroke: #000000"/>
    </g>
   </g>
   <g id="LineCollection_2">
    <path d="M 110.025554 80.518295 
L 110.025554 67.774152 
" clip-path="url(#pb70df77860)" style="fill: none; stroke: #000000; stroke-width: 1.5"/>
    <path d="M 249.078851 102.721219 
L 249.078851 89.362848 
" clip-path="url(#pb70df77860)" style="fill: none; stroke: #000000; stroke-width: 1.5"/>
   </g>
   <g id="line2d_10">
    <g clip-path="url(#pb70df77860)">
     <use xlink:href="#m8e18209b7f" x="110.025554" y="80.518295" style="stroke: #000000"/>
     <use xlink:href="#m8e18209b7f" x="249.078851" y="102.721219" style="stroke: #000000"/>
    </g>
   </g>
   <g id="line2d_11">
    <g clip-path="url(#pb70df77860)">
     <use xlink:href="#m8e18209b7f" x="110.025554" y="67.774152" style="stroke: #000000"/>
     <use xlink:href="#m8e18209b7f" x="249.078851" y="89.362848" style="stroke: #000000"/>
    </g>
   </g>
   <g id="LineCollection_3">
    <path d="M 134.359881 123.971924 
L 134.359881 76.408646 
" clip-path="url(#pb70df77860)" style="fill: none; stroke: #000000; stroke-width: 1.5"/>
    <path d="M 273.413177 143.219319 
L 273.413177 105.529747 
" clip-path="url(#pb70df77860)" style="fill: none; stroke: #000000; stroke-width: 1.5"/>
   </g>
   <g id="line2d_12">
    <g clip-path="url(#pb70df77860)">
     <use xlink:href="#m8e18209b7f" x="134.359881" y="123.971924" style="stroke: #000000"/>
     <use xlink:href="#m8e18209b7f" x="273.413177" y="143.219319" style="stroke: #000000"/>
    </g>
   </g>
   <g id="line2d_13">
    <g clip-path="url(#pb70df77860)">
     <use xlink:href="#m8e18209b7f" x="134.359881" y="76.408646" style="stroke: #000000"/>
     <use xlink:href="#m8e18209b7f" x="273.413177" y="105.529747" style="stroke: #000000"/>
    </g>
   </g>
   <g id="patch_9">
    <path d="M 62.92125 159.285375 
L 62.92125 25.965375 
" style="fill: none; stroke: #000000; stroke-width: 0.8; stroke-linejoin: miter; stroke-linecap: square"/>
   </g>
   <g id="patch_10">
    <path d="M 296.183155 159.285375 
L 296.183155 25.965375 
" style="fill: none; stroke: #000000; stroke-width: 0.8; stroke-linejoin: miter; stroke-linecap: square"/>
   </g>
   <g id="patch_11">
    <path d="M 62.92125 159.285375 
L 296.183155 159.285375 
" style="fill: none; stroke: #000000; stroke-width: 0.8; stroke-linejoin: miter; stroke-linecap: square"/>
   </g>
   <g id="patch_12">
    <path d="M 62.92125 25.965375 
L 296.183155 25.965375 
" style="fill: none; stroke: #000000; stroke-width: 0.8; stroke-linejoin: miter; stroke-linecap: square"/>
   </g>
   <g id="text_9">
    <!-- RCR -->
    <g transform="translate(162.433265 19.965375) scale(0.168 -0.168)">
     <use xlink:href="#DejaVuSans-52"/>
     <use xlink:href="#DejaVuSans-43" x="64.482422"/>
     <use xlink:href="#DejaVuSans-52" x="134.306641"/>
    </g>
   </g>
  </g>
  <g id="axes_2">
   <g id="patch_13">
    <path d="M 319.509345 159.285375 
L 552.77125 159.285375 
L 552.77125 25.965375 
L 319.509345 25.965375 
z
" style="fill: #ffffff"/>
   </g>
   <g id="patch_14">
    <path d="M 330.112159 159.285375 
L 354.446486 159.285375 
L 354.446486 105.911046 
L 330.112159 105.911046 
z
" clip-path="url(#p2357b75ae6)" style="fill: #323232"/>
   </g>
   <g id="patch_15">
    <path d="M 469.165456 159.285375 
L 493.499782 159.285375 
L 493.499782 91.132191 
L 469.165456 91.132191 
z
" clip-path="url(#p2357b75ae6)" style="fill: #323232"/>
   </g>
   <g id="patch_16">
    <path d="M 354.446486 159.285375 
L 378.780813 159.285375 
L 378.780813 105.34177 
L 354.446486 105.34177 
z
" clip-path="url(#p2357b75ae6)" style="fill: #ff9a00"/>
   </g>
   <g id="patch_17">
    <path d="M 493.499782 159.285375 
L 517.834109 159.285375 
L 517.834109 91.348836 
L 493.499782 91.348836 
z
" clip-path="url(#p2357b75ae6)" style="fill: #ff9a00"/>
   </g>
   <g id="patch_18">
    <path d="M 378.780813 159.285375 
L 403.11514 159.285375 
L 403.11514 139.821655 
L 378.780813 139.821655 
z
" clip-path="url(#p2357b75ae6)" style="fill: #ff5a00"/>
   </g>
   <g id="patch_19">
    <path d="M 517.834109 159.285375 
L 542.168436 159.285375 
L 542.168436 129.960641 
L 517.834109 129.960641 
z
" clip-path="url(#p2357b75ae6)" style="fill: #ff5a00"/>
   </g>
   <g id="matplotlib.axis_3">
    <g id="xtick_3">
     <g id="line2d_14">
      <g>
       <use xlink:href="#mb12c69596c" x="366.613649" y="159.285375" style="stroke: #000000; stroke-width: 0.8"/>
      </g>
     </g>
     <g id="text_10">
      <!-- Risk-Seeking -->
      <g transform="translate(321.643024 176.923188) scale(0.14 -0.14)">
       <use xlink:href="#DejaVuSans-52"/>
       <use xlink:href="#DejaVuSans-69" x="69.482422"/>
       <use xlink:href="#DejaVuSans-73" x="97.265625"/>
       <use xlink:href="#DejaVuSans-6b" x="149.365234"/>
       <use xlink:href="#DejaVuSans-2d" x="207.275391"/>
       <use xlink:href="#DejaVuSans-53" x="243.359375"/>
       <use xlink:href="#DejaVuSans-65" x="306.835938"/>
       <use xlink:href="#DejaVuSans-65" x="368.359375"/>
       <use xlink:href="#DejaVuSans-6b" x="429.882812"/>
       <use xlink:href="#DejaVuSans-69" x="487.792969"/>
       <use xlink:href="#DejaVuSans-6e" x="515.576172"/>
       <use xlink:href="#DejaVuSans-67" x="578.955078"/>
      </g>
     </g>
    </g>
    <g id="xtick_4">
     <g id="line2d_15">
      <g>
       <use xlink:href="#mb12c69596c" x="505.666946" y="159.285375" style="stroke: #000000; stroke-width: 0.8"/>
      </g>
     </g>
     <g id="text_11">
      <!-- Risk-Averse -->
      <g transform="translate(465.131477 176.923188) scale(0.14 -0.14)">
       <use xlink:href="#DejaVuSans-52"/>
       <use xlink:href="#DejaVuSans-69" x="69.482422"/>
       <use xlink:href="#DejaVuSans-73" x="97.265625"/>
       <use xlink:href="#DejaVuSans-6b" x="149.365234"/>
       <use xlink:href="#DejaVuSans-2d" x="207.275391"/>
       <use xlink:href="#DejaVuSans-41" x="241.109375"/>
       <use xlink:href="#DejaVuSans-76" x="303.642578"/>
       <use xlink:href="#DejaVuSans-65" x="362.822266"/>
       <use xlink:href="#DejaVuSans-72" x="424.345703"/>
       <use xlink:href="#DejaVuSans-73" x="465.458984"/>
       <use xlink:href="#DejaVuSans-65" x="517.558594"/>
      </g>
     </g>
    </g>
   </g>
   <g id="matplotlib.axis_4">
    <g id="ytick_6">
     <g id="line2d_16">
      <g>
       <use xlink:href="#m7182c034f0" x="319.509345" y="159.285375" style="stroke: #000000; stroke-width: 0.8"/>
      </g>
     </g>
    </g>
    <g id="ytick_7">
     <g id="line2d_17">
      <g>
       <use xlink:href="#m7182c034f0" x="319.509345" y="125.955375" style="stroke: #000000; stroke-width: 0.8"/>
      </g>
     </g>
    </g>
    <g id="ytick_8">
     <g id="line2d_18">
      <g>
       <use xlink:href="#m7182c034f0" x="319.509345" y="92.625375" style="stroke: #000000; stroke-width: 0.8"/>
      </g>
     </g>
    </g>
    <g id="ytick_9">
     <g id="line2d_19">
      <g>
       <use xlink:href="#m7182c034f0" x="319.509345" y="59.295375" style="stroke: #000000; stroke-width: 0.8"/>
      </g>
     </g>
    </g>
    <g id="ytick_10">
     <g id="line2d_20">
      <g>
       <use xlink:href="#m7182c034f0" x="319.509345" y="25.965375" style="stroke: #000000; stroke-width: 0.8"/>
      </g>
     </g>
    </g>
   </g>
   <g id="LineCollection_4">
    <path d="M 342.279323 113.83003 
L 342.279323 97.992062 
" clip-path="url(#p2357b75ae6)" style="fill: none; stroke: #000000; stroke-width: 1.5"/>
    <path d="M 481.332619 102.700167 
L 481.332619 79.564215 
" clip-path="url(#p2357b75ae6)" style="fill: none; stroke: #000000; stroke-width: 1.5"/>
   </g>
   <g id="line2d_21">
    <g clip-path="url(#p2357b75ae6)">
     <use xlink:href="#m8e18209b7f" x="342.279323" y="113.83003" style="stroke: #000000"/>
     <use xlink:href="#m8e18209b7f" x="481.332619" y="102.700167" style="stroke: #000000"/>
    </g>
   </g>
   <g id="line2d_22">
    <g clip-path="url(#p2357b75ae6)">
     <use xlink:href="#m8e18209b7f" x="342.279323" y="97.992062" style="stroke: #000000"/>
     <use xlink:href="#m8e18209b7f" x="481.332619" y="79.564215" style="stroke: #000000"/>
    </g>
   </g>
   <g id="LineCollection_5">
    <path d="M 366.613649 113.571686 
L 366.613649 97.111854 
" clip-path="url(#p2357b75ae6)" style="fill: none; stroke: #000000; stroke-width: 1.5"/>
    <path d="M 505.666946 103.147821 
L 505.666946 79.549851 
" clip-path="url(#p2357b75ae6)" style="fill: none; stroke: #000000; stroke-width: 1.5"/>
   </g>
   <g id="line2d_23">
    <g clip-path="url(#p2357b75ae6)">
     <use xlink:href="#m8e18209b7f" x="366.613649" y="113.571686" style="stroke: #000000"/>
     <use xlink:href="#m8e18209b7f" x="505.666946" y="103.147821" style="stroke: #000000"/>
    </g>
   </g>
   <g id="line2d_24">
    <g clip-path="url(#p2357b75ae6)">
     <use xlink:href="#m8e18209b7f" x="366.613649" y="97.111854" style="stroke: #000000"/>
     <use xlink:href="#m8e18209b7f" x="505.666946" y="79.549851" style="stroke: #000000"/>
    </g>
   </g>
   <g id="LineCollection_6">
    <path d="M 390.947976 151.739194 
L 390.947976 127.904116 
" clip-path="url(#p2357b75ae6)" style="fill: none; stroke: #000000; stroke-width: 1.5"/>
    <path d="M 530.001273 144.366208 
L 530.001273 115.555075 
" clip-path="url(#p2357b75ae6)" style="fill: none; stroke: #000000; stroke-width: 1.5"/>
   </g>
   <g id="line2d_25">
    <g clip-path="url(#p2357b75ae6)">
     <use xlink:href="#m8e18209b7f" x="390.947976" y="151.739194" style="stroke: #000000"/>
     <use xlink:href="#m8e18209b7f" x="530.001273" y="144.366208" style="stroke: #000000"/>
    </g>
   </g>
   <g id="line2d_26">
    <g clip-path="url(#p2357b75ae6)">
     <use xlink:href="#m8e18209b7f" x="390.947976" y="127.904116" style="stroke: #000000"/>
     <use xlink:href="#m8e18209b7f" x="530.001273" y="115.555075" style="stroke: #000000"/>
    </g>
   </g>
   <g id="patch_20">
    <path d="M 319.509345 159.285375 
L 319.509345 25.965375 
" style="fill: none; stroke: #000000; stroke-width: 0.8; stroke-linejoin: miter; stroke-linecap: square"/>
   </g>
   <g id="patch_21">
    <path d="M 552.77125 159.285375 
L 552.77125 25.965375 
" style="fill: none; stroke: #000000; stroke-width: 0.8; stroke-linejoin: miter; stroke-linecap: square"/>
   </g>
   <g id="patch_22">
    <path d="M 319.509345 159.285375 
L 552.77125 159.285375 
" style="fill: none; stroke: #000000; stroke-width: 0.8; stroke-linejoin: miter; stroke-linecap: square"/>
   </g>
   <g id="patch_23">
    <path d="M 319.509345 25.965375 
L 552.77125 25.965375 
" style="fill: none; stroke: #000000; stroke-width: 0.8; stroke-linejoin: miter; stroke-linecap: square"/>
   </g>
   <g id="text_12">
    <!-- RMP -->
    <g transform="translate(417.991048 19.965375) scale(0.168 -0.168)">
     <defs>
      <path id="DejaVuSans-4d" d="M 628 4666 
L 1569 4666 
L 2759 1491 
L 3956 4666 
L 4897 4666 
L 4897 0 
L 4281 0 
L 4281 4097 
L 3078 897 
L 2444 897 
L 1241 4097 
L 1241 0 
L 628 0 
L 628 4666 
z
" transform="scale(0.015625)"/>
      <path id="DejaVuSans-50" d="M 1259 4147 
L 1259 2394 
L 2053 2394 
Q 2494 2394 2734 2622 
Q 2975 2850 2975 3272 
Q 2975 3691 2734 3919 
Q 2494 4147 2053 4147 
L 1259 4147 
z
M 628 4666 
L 2053 4666 
Q 2838 4666 3239 4311 
Q 3641 3956 3641 3272 
Q 3641 2581 3239 2228 
Q 2838 1875 2053 1875 
L 1259 1875 
L 1259 0 
L 628 0 
L 628 4666 
z
" transform="scale(0.015625)"/>
     </defs>
     <use xlink:href="#DejaVuSans-52"/>
     <use xlink:href="#DejaVuSans-4d" x="69.482422"/>
     <use xlink:href="#DejaVuSans-50" x="155.761719"/>
    </g>
   </g>
   <g id="legend_1">
    <g id="patch_24">
     <path d="M 65.72125 212.853375 
L 550.15325 212.853375 
Q 552.95325 212.853375 552.95325 210.053375 
L 552.95325 190.904 
Q 552.95325 188.104 550.15325 188.104 
L 65.72125 188.104 
Q 62.92125 188.104 62.92125 190.904 
L 62.92125 210.053375 
Q 62.92125 212.853375 65.72125 212.853375 
z
" style="fill: #ffffff; opacity: 0.8; stroke: #cccccc; stroke-linejoin: miter"/>
    </g>
    <g id="patch_25">
     <path d="M 68.52125 204.341813 
L 96.52125 204.341813 
L 96.52125 194.541812 
L 68.52125 194.541812 
z
" style="fill: #323232"/>
    </g>
    <g id="text_13">
     <!-- Oracle -->
     <g transform="translate(107.72125 204.341813) scale(0.14 -0.14)">
      <defs>
       <path id="DejaVuSans-4f" d="M 2522 4238 
Q 1834 4238 1429 3725 
Q 1025 3213 1025 2328 
Q 1025 1447 1429 934 
Q 1834 422 2522 422 
Q 3209 422 3611 934 
Q 4013 1447 4013 2328 
Q 4013 3213 3611 3725 
Q 3209 4238 2522 4238 
z
M 2522 4750 
Q 3503 4750 4090 4092 
Q 4678 3434 4678 2328 
Q 4678 1225 4090 567 
Q 3503 -91 2522 -91 
Q 1538 -91 948 565 
Q 359 1222 359 2328 
Q 359 3434 948 4092 
Q 1538 4750 2522 4750 
z
" transform="scale(0.015625)"/>
       <path id="DejaVuSans-61" d="M 2194 1759 
Q 1497 1759 1228 1600 
Q 959 1441 959 1056 
Q 959 750 1161 570 
Q 1363 391 1709 391 
Q 2188 391 2477 730 
Q 2766 1069 2766 1631 
L 2766 1759 
L 2194 1759 
z
M 3341 1997 
L 3341 0 
L 2766 0 
L 2766 531 
Q 2569 213 2275 61 
Q 1981 -91 1556 -91 
Q 1019 -91 701 211 
Q 384 513 384 1019 
Q 384 1609 779 1909 
Q 1175 2209 1959 2209 
L 2766 2209 
L 2766 2266 
Q 2766 2663 2505 2880 
Q 2244 3097 1772 3097 
Q 1472 3097 1187 3025 
Q 903 2953 641 2809 
L 641 3341 
Q 956 3463 1253 3523 
Q 1550 3584 1831 3584 
Q 2591 3584 2966 3190 
Q 3341 2797 3341 1997 
z
" transform="scale(0.015625)"/>
       <path id="DejaVuSans-63" d="M 3122 3366 
L 3122 2828 
Q 2878 2963 2633 3030 
Q 2388 3097 2138 3097 
Q 1578 3097 1268 2742 
Q 959 2388 959 1747 
Q 959 1106 1268 751 
Q 1578 397 2138 397 
Q 2388 397 2633 464 
Q 2878 531 3122 666 
L 3122 134 
Q 2881 22 2623 -34 
Q 2366 -91 2075 -91 
Q 1284 -91 818 406 
Q 353 903 353 1747 
Q 353 2603 823 3093 
Q 1294 3584 2113 3584 
Q 2378 3584 2631 3529 
Q 2884 3475 3122 3366 
z
" transform="scale(0.015625)"/>
       <path id="DejaVuSans-6c" d="M 603 4863 
L 1178 4863 
L 1178 0 
L 603 0 
L 603 4863 
z
" transform="scale(0.015625)"/>
      </defs>
      <use xlink:href="#DejaVuSans-4f"/>
      <use xlink:href="#DejaVuSans-72" x="78.710938"/>
      <use xlink:href="#DejaVuSans-61" x="119.824219"/>
      <use xlink:href="#DejaVuSans-63" x="181.103516"/>
      <use xlink:href="#DejaVuSans-6c" x="236.083984"/>
      <use xlink:href="#DejaVuSans-65" x="263.867188"/>
     </g>
    </g>
    <g id="patch_26">
     <path d="M 257.874125 204.341813 
L 285.874125 204.341813 
L 285.874125 194.541812 
L 257.874125 194.541812 
z
" style="fill: #ff9a00"/>
    </g>
    <g id="text_14">
     <!-- RS-ToM -->
     <g transform="translate(297.074125 204.341813) scale(0.14 -0.14)">
      <defs>
       <path id="DejaVuSans-6f" d="M 1959 3097 
Q 1497 3097 1228 2736 
Q 959 2375 959 1747 
Q 959 1119 1226 758 
Q 1494 397 1959 397 
Q 2419 397 2687 759 
Q 2956 1122 2956 1747 
Q 2956 2369 2687 2733 
Q 2419 3097 1959 3097 
z
M 1959 3584 
Q 2709 3584 3137 3096 
Q 3566 2609 3566 1747 
Q 3566 888 3137 398 
Q 2709 -91 1959 -91 
Q 1206 -91 779 398 
Q 353 888 353 1747 
Q 353 2609 779 3096 
Q 1206 3584 1959 3584 
z
" transform="scale(0.015625)"/>
      </defs>
      <use xlink:href="#DejaVuSans-52"/>
      <use xlink:href="#DejaVuSans-53" x="69.482422"/>
      <use xlink:href="#DejaVuSans-2d" x="132.958984"/>
      <use xlink:href="#DejaVuSans-54" x="159.917969"/>
      <use xlink:href="#DejaVuSans-6f" x="204.001953"/>
      <use xlink:href="#DejaVuSans-4d" x="265.183594"/>
     </g>
    </g>
    <g id="patch_27">
     <path d="M 450.87575 204.341813 
L 478.87575 204.341813 
L 478.87575 194.541812 
L 450.87575 194.541812 
z
" style="fill: #ff5a00"/>
    </g>
    <g id="text_15">
     <!-- Rational -->
     <g transform="translate(490.07575 204.341813) scale(0.14 -0.14)">
      <defs>
       <path id="DejaVuSans-74" d="M 1172 4494 
L 1172 3500 
L 2356 3500 
L 2356 3053 
L 1172 3053 
L 1172 1153 
Q 1172 725 1289 603 
Q 1406 481 1766 481 
L 2356 481 
L 2356 0 
L 1766 0 
Q 1100 0 847 248 
Q 594 497 594 1153 
L 594 3053 
L 172 3053 
L 172 3500 
L 594 3500 
L 594 4494 
L 1172 4494 
z
" transform="scale(0.015625)"/>
      </defs>
      <use xlink:href="#DejaVuSans-52"/>
      <use xlink:href="#DejaVuSans-61" x="67.232422"/>
      <use xlink:href="#DejaVuSans-74" x="128.511719"/>
      <use xlink:href="#DejaVuSans-69" x="167.720703"/>
      <use xlink:href="#DejaVuSans-6f" x="195.503906"/>
      <use xlink:href="#DejaVuSans-6e" x="256.685547"/>
      <use xlink:href="#DejaVuSans-61" x="320.064453"/>
      <use xlink:href="#DejaVuSans-6c" x="381.34375"/>
     </g>
    </g>
   </g>
  </g>
 </g>
 <defs>
  <clipPath id="pb70df77860">
   <rect x="62.92125" y="25.965375" width="233.261905" height="133.32"/>
  </clipPath>
  <clipPath id="p2357b75ae6">
   <rect x="319.509345" y="25.965375" width="233.261905" height="133.32"/>
  </clipPath>
 </defs>
</svg>
